<?xml version="1.0" standalone="no"?>
 <!DOCTYPE svg PUBLIC "-//W3C//DTD SVG 1.1//EN" 
 "http://www.w3.org/Graphics/SVG/1.1/DTD/svg11.dtd"> 
<svg
  xmlns:svg="http://www.w3.org/2000/svg"
  xmlns="http://www.w3.org/2000/svg"
  xmlns:xlink="http://www.w3.org/1999/xlink"
  version="1.1"
  width="2.039620cm" height="2.293620cm" viewBox="0 0 20396200 22936200">
<title>SVG Picture created as breakout-brd.svg date 2022/05/25 22:09:55 </title>
  <desc>Picture generated by PCBNEW </desc>
<g style="fill:#000000; fill-opacity:1.000000;stroke:#000000; stroke-opacity:1.000000;
stroke-linecap:round; stroke-linejoin:round;"
 transform="translate(0 0) scale(1 1)">
</g>
<g style="fill:#000000; fill-opacity:0.0; 
stroke:#000000; stroke-width:0.000000; stroke-opacity:1; 
stroke-linecap:round; stroke-linejoin:round;">
<g >
</g>
<g style="fill:#000000; fill-opacity:0.0; 
stroke:#000000; stroke-width:1.000000; stroke-opacity:1; 
stroke-linecap:round; stroke-linejoin:round;">
</g>
<g style="fill:#000000; fill-opacity:1.0; 
stroke:#000000; stroke-width:1.000000; stroke-opacity:1; 
stroke-linecap:round; stroke-linejoin:round;">
<path style="fill:#000000; fill-opacity:1.0; 
stroke:#000000; stroke-width:1.000000; stroke-opacity:1; 
stroke-linecap:round; stroke-linejoin:round;fill-rule:evenodd;"
d="M 14660000.000000,16275000.000000
14648582.000000,16332403.000000
14616066.000000,16381066.000000
14567403.000000,16413582.000000
14510000.000000,16425000.000000
12835000.000000,16425000.000000
12777597.000000,16413582.000000
12728934.000000,16381066.000000
12696418.000000,16332403.000000
12685000.000000,16275000.000000
12685000.000000,15975000.000000
12696418.000000,15917597.000000
12728934.000000,15868934.000000
12777597.000000,15836418.000000
12835000.000000,15825000.000000
14510000.000000,15825000.000000
14567403.000000,15836418.000000
14616066.000000,15868934.000000
14648582.000000,15917597.000000
14660000.000000,15975000.000000
Z" /> 
<path style="fill:#000000; fill-opacity:1.0; 
stroke:#000000; stroke-width:1.000000; stroke-opacity:1; 
stroke-linecap:round; stroke-linejoin:round;fill-rule:evenodd;"
d="M 14660000.000000,15005000.000000
14648582.000000,15062403.000000
14616066.000000,15111066.000000
14567403.000000,15143582.000000
14510000.000000,15155000.000000
12835000.000000,15155000.000000
12777597.000000,15143582.000000
12728934.000000,15111066.000000
12696418.000000,15062403.000000
12685000.000000,15005000.000000
12685000.000000,14705000.000000
12696418.000000,14647597.000000
12728934.000000,14598934.000000
12777597.000000,14566418.000000
12835000.000000,14555000.000000
14510000.000000,14555000.000000
14567403.000000,14566418.000000
14616066.000000,14598934.000000
14648582.000000,14647597.000000
14660000.000000,14705000.000000
Z" /> 
<path style="fill:#000000; fill-opacity:1.0; 
stroke:#000000; stroke-width:1.000000; stroke-opacity:1; 
stroke-linecap:round; stroke-linejoin:round;fill-rule:evenodd;"
d="M 14660000.000000,13735000.000000
14648582.000000,13792403.000000
14616066.000000,13841066.000000
14567403.000000,13873582.000000
14510000.000000,13885000.000000
12835000.000000,13885000.000000
12777597.000000,13873582.000000
12728934.000000,13841066.000000
12696418.000000,13792403.000000
12685000.000000,13735000.000000
12685000.000000,13435000.000000
12696418.000000,13377597.000000
12728934.000000,13328934.000000
12777597.000000,13296418.000000
12835000.000000,13285000.000000
14510000.000000,13285000.000000
14567403.000000,13296418.000000
14616066.000000,13328934.000000
14648582.000000,13377597.000000
14660000.000000,13435000.000000
Z" /> 
<path style="fill:#000000; fill-opacity:1.0; 
stroke:#000000; stroke-width:1.000000; stroke-opacity:1; 
stroke-linecap:round; stroke-linejoin:round;fill-rule:evenodd;"
d="M 14660000.000000,12465000.000000
14648582.000000,12522403.000000
14616066.000000,12571066.000000
14567403.000000,12603582.000000
14510000.000000,12615000.000000
12835000.000000,12615000.000000
12777597.000000,12603582.000000
12728934.000000,12571066.000000
12696418.000000,12522403.000000
12685000.000000,12465000.000000
12685000.000000,12165000.000000
12696418.000000,12107597.000000
12728934.000000,12058934.000000
12777597.000000,12026418.000000
12835000.000000,12015000.000000
14510000.000000,12015000.000000
14567403.000000,12026418.000000
14616066.000000,12058934.000000
14648582.000000,12107597.000000
14660000.000000,12165000.000000
Z" /> 
<path style="fill:#000000; fill-opacity:1.0; 
stroke:#000000; stroke-width:1.000000; stroke-opacity:1; 
stroke-linecap:round; stroke-linejoin:round;fill-rule:evenodd;"
d="M 14660000.000000,11195000.000000
14648582.000000,11252403.000000
14616066.000000,11301066.000000
14567403.000000,11333582.000000
14510000.000000,11345000.000000
12835000.000000,11345000.000000
12777597.000000,11333582.000000
12728934.000000,11301066.000000
12696418.000000,11252403.000000
12685000.000000,11195000.000000
12685000.000000,10895000.000000
12696418.000000,10837597.000000
12728934.000000,10788934.000000
12777597.000000,10756418.000000
12835000.000000,10745000.000000
14510000.000000,10745000.000000
14567403.000000,10756418.000000
14616066.000000,10788934.000000
14648582.000000,10837597.000000
14660000.000000,10895000.000000
Z" /> 
<path style="fill:#000000; fill-opacity:1.0; 
stroke:#000000; stroke-width:1.000000; stroke-opacity:1; 
stroke-linecap:round; stroke-linejoin:round;fill-rule:evenodd;"
d="M 14660000.000000,9925000.000000
14648582.000000,9982403.000000
14616066.000000,10031066.000000
14567403.000000,10063582.000000
14510000.000000,10075000.000000
12835000.000000,10075000.000000
12777597.000000,10063582.000000
12728934.000000,10031066.000000
12696418.000000,9982403.000000
12685000.000000,9925000.000000
12685000.000000,9625000.000000
12696418.000000,9567597.000000
12728934.000000,9518934.000000
12777597.000000,9486418.000000
12835000.000000,9475000.000000
14510000.000000,9475000.000000
14567403.000000,9486418.000000
14616066.000000,9518934.000000
14648582.000000,9567597.000000
14660000.000000,9625000.000000
Z" /> 
<path style="fill:#000000; fill-opacity:1.0; 
stroke:#000000; stroke-width:1.000000; stroke-opacity:1; 
stroke-linecap:round; stroke-linejoin:round;fill-rule:evenodd;"
d="M 14660000.000000,8655000.000000
14648582.000000,8712403.000000
14616066.000000,8761066.000000
14567403.000000,8793582.000000
14510000.000000,8805000.000000
12835000.000000,8805000.000000
12777597.000000,8793582.000000
12728934.000000,8761066.000000
12696418.000000,8712403.000000
12685000.000000,8655000.000000
12685000.000000,8355000.000000
12696418.000000,8297597.000000
12728934.000000,8248934.000000
12777597.000000,8216418.000000
12835000.000000,8205000.000000
14510000.000000,8205000.000000
14567403.000000,8216418.000000
14616066.000000,8248934.000000
14648582.000000,8297597.000000
14660000.000000,8355000.000000
Z" /> 
<path style="fill:#000000; fill-opacity:1.0; 
stroke:#000000; stroke-width:1.000000; stroke-opacity:1; 
stroke-linecap:round; stroke-linejoin:round;fill-rule:evenodd;"
d="M 14660000.000000,7385000.000000
14648582.000000,7442403.000000
14616066.000000,7491066.000000
14567403.000000,7523582.000000
14510000.000000,7535000.000000
12835000.000000,7535000.000000
12777597.000000,7523582.000000
12728934.000000,7491066.000000
12696418.000000,7442403.000000
12685000.000000,7385000.000000
12685000.000000,7085000.000000
12696418.000000,7027597.000000
12728934.000000,6978934.000000
12777597.000000,6946418.000000
12835000.000000,6935000.000000
14510000.000000,6935000.000000
14567403.000000,6946418.000000
14616066.000000,6978934.000000
14648582.000000,7027597.000000
14660000.000000,7085000.000000
Z" /> 
<path style="fill:#000000; fill-opacity:1.0; 
stroke:#000000; stroke-width:1.000000; stroke-opacity:1; 
stroke-linecap:round; stroke-linejoin:round;fill-rule:evenodd;"
d="M 7735000.000000,7385000.000000
7723582.000000,7442403.000000
7691066.000000,7491066.000000
7642403.000000,7523582.000000
7585000.000000,7535000.000000
5910000.000000,7535000.000000
5852597.000000,7523582.000000
5803934.000000,7491066.000000
5771418.000000,7442403.000000
5760000.000000,7385000.000000
5760000.000000,7085000.000000
5771418.000000,7027597.000000
5803934.000000,6978934.000000
5852597.000000,6946418.000000
5910000.000000,6935000.000000
7585000.000000,6935000.000000
7642403.000000,6946418.000000
7691066.000000,6978934.000000
7723582.000000,7027597.000000
7735000.000000,7085000.000000
Z" /> 
<path style="fill:#000000; fill-opacity:1.0; 
stroke:#000000; stroke-width:1.000000; stroke-opacity:1; 
stroke-linecap:round; stroke-linejoin:round;fill-rule:evenodd;"
d="M 7735000.000000,8655000.000000
7723582.000000,8712403.000000
7691066.000000,8761066.000000
7642403.000000,8793582.000000
7585000.000000,8805000.000000
5910000.000000,8805000.000000
5852597.000000,8793582.000000
5803934.000000,8761066.000000
5771418.000000,8712403.000000
5760000.000000,8655000.000000
5760000.000000,8355000.000000
5771418.000000,8297597.000000
5803934.000000,8248934.000000
5852597.000000,8216418.000000
5910000.000000,8205000.000000
7585000.000000,8205000.000000
7642403.000000,8216418.000000
7691066.000000,8248934.000000
7723582.000000,8297597.000000
7735000.000000,8355000.000000
Z" /> 
<path style="fill:#000000; fill-opacity:1.0; 
stroke:#000000; stroke-width:1.000000; stroke-opacity:1; 
stroke-linecap:round; stroke-linejoin:round;fill-rule:evenodd;"
d="M 7735000.000000,9925000.000000
7723582.000000,9982403.000000
7691066.000000,10031066.000000
7642403.000000,10063582.000000
7585000.000000,10075000.000000
5910000.000000,10075000.000000
5852597.000000,10063582.000000
5803934.000000,10031066.000000
5771418.000000,9982403.000000
5760000.000000,9925000.000000
5760000.000000,9625000.000000
5771418.000000,9567597.000000
5803934.000000,9518934.000000
5852597.000000,9486418.000000
5910000.000000,9475000.000000
7585000.000000,9475000.000000
7642403.000000,9486418.000000
7691066.000000,9518934.000000
7723582.000000,9567597.000000
7735000.000000,9625000.000000
Z" /> 
<path style="fill:#000000; fill-opacity:1.0; 
stroke:#000000; stroke-width:1.000000; stroke-opacity:1; 
stroke-linecap:round; stroke-linejoin:round;fill-rule:evenodd;"
d="M 7735000.000000,11195000.000000
7723582.000000,11252403.000000
7691066.000000,11301066.000000
7642403.000000,11333582.000000
7585000.000000,11345000.000000
5910000.000000,11345000.000000
5852597.000000,11333582.000000
5803934.000000,11301066.000000
5771418.000000,11252403.000000
5760000.000000,11195000.000000
5760000.000000,10895000.000000
5771418.000000,10837597.000000
5803934.000000,10788934.000000
5852597.000000,10756418.000000
5910000.000000,10745000.000000
7585000.000000,10745000.000000
7642403.000000,10756418.000000
7691066.000000,10788934.000000
7723582.000000,10837597.000000
7735000.000000,10895000.000000
Z" /> 
<path style="fill:#000000; fill-opacity:1.0; 
stroke:#000000; stroke-width:1.000000; stroke-opacity:1; 
stroke-linecap:round; stroke-linejoin:round;fill-rule:evenodd;"
d="M 7735000.000000,12465000.000000
7723582.000000,12522403.000000
7691066.000000,12571066.000000
7642403.000000,12603582.000000
7585000.000000,12615000.000000
5910000.000000,12615000.000000
5852597.000000,12603582.000000
5803934.000000,12571066.000000
5771418.000000,12522403.000000
5760000.000000,12465000.000000
5760000.000000,12165000.000000
5771418.000000,12107597.000000
5803934.000000,12058934.000000
5852597.000000,12026418.000000
5910000.000000,12015000.000000
7585000.000000,12015000.000000
7642403.000000,12026418.000000
7691066.000000,12058934.000000
7723582.000000,12107597.000000
7735000.000000,12165000.000000
Z" /> 
<path style="fill:#000000; fill-opacity:1.0; 
stroke:#000000; stroke-width:1.000000; stroke-opacity:1; 
stroke-linecap:round; stroke-linejoin:round;fill-rule:evenodd;"
d="M 7735000.000000,13735000.000000
7723582.000000,13792403.000000
7691066.000000,13841066.000000
7642403.000000,13873582.000000
7585000.000000,13885000.000000
5910000.000000,13885000.000000
5852597.000000,13873582.000000
5803934.000000,13841066.000000
5771418.000000,13792403.000000
5760000.000000,13735000.000000
5760000.000000,13435000.000000
5771418.000000,13377597.000000
5803934.000000,13328934.000000
5852597.000000,13296418.000000
5910000.000000,13285000.000000
7585000.000000,13285000.000000
7642403.000000,13296418.000000
7691066.000000,13328934.000000
7723582.000000,13377597.000000
7735000.000000,13435000.000000
Z" /> 
<path style="fill:#000000; fill-opacity:1.0; 
stroke:#000000; stroke-width:1.000000; stroke-opacity:1; 
stroke-linecap:round; stroke-linejoin:round;fill-rule:evenodd;"
d="M 7735000.000000,15005000.000000
7723582.000000,15062403.000000
7691066.000000,15111066.000000
7642403.000000,15143582.000000
7585000.000000,15155000.000000
5910000.000000,15155000.000000
5852597.000000,15143582.000000
5803934.000000,15111066.000000
5771418.000000,15062403.000000
5760000.000000,15005000.000000
5760000.000000,14705000.000000
5771418.000000,14647597.000000
5803934.000000,14598934.000000
5852597.000000,14566418.000000
5910000.000000,14555000.000000
7585000.000000,14555000.000000
7642403.000000,14566418.000000
7691066.000000,14598934.000000
7723582.000000,14647597.000000
7735000.000000,14705000.000000
Z" /> 
<path style="fill:#000000; fill-opacity:1.0; 
stroke:#000000; stroke-width:1.000000; stroke-opacity:1; 
stroke-linecap:round; stroke-linejoin:round;fill-rule:evenodd;"
d="M 7735000.000000,16275000.000000
7723582.000000,16332403.000000
7691066.000000,16381066.000000
7642403.000000,16413582.000000
7585000.000000,16425000.000000
5910000.000000,16425000.000000
5852597.000000,16413582.000000
5803934.000000,16381066.000000
5771418.000000,16332403.000000
5760000.000000,16275000.000000
5760000.000000,15975000.000000
5771418.000000,15917597.000000
5803934.000000,15868934.000000
5852597.000000,15836418.000000
5910000.000000,15825000.000000
7585000.000000,15825000.000000
7642403.000000,15836418.000000
7691066.000000,15868934.000000
7723582.000000,15917597.000000
7735000.000000,15975000.000000
Z" /> 
</g>
<g >
</g>
<g style="fill:#000000; fill-opacity:1.0; 
stroke:#000000; stroke-width:1.000000; stroke-opacity:1; 
stroke-linecap:round; stroke-linejoin:round;">
<path style="fill:#000000; fill-opacity:1.0; 
stroke:#000000; stroke-width:1.000000; stroke-opacity:1; 
stroke-linecap:round; stroke-linejoin:round;fill-rule:evenodd;"
d="M 5979999.000000,21219999.000000
4280001.000000,21219999.000000
4280001.000000,19520001.000000
5979999.000000,19520001.000000
Z" /> 
<circle cx="7670000.000000" cy="20370000.000000" r="850000.000000" /> 
<circle cx="10210000.000000" cy="20370000.000000" r="850000.000000" /> 
</g>
<g >
</g>
<g style="fill:#000000; fill-opacity:1.0; 
stroke:#000000; stroke-width:1.000000; stroke-opacity:1; 
stroke-linecap:round; stroke-linejoin:round;">
<path style="fill:#000000; fill-opacity:1.0; 
stroke:#000000; stroke-width:1.000000; stroke-opacity:1; 
stroke-linecap:round; stroke-linejoin:round;fill-rule:evenodd;"
d="M 16980001.000000,5979999.000000
16980001.000000,4280001.000000
18679999.000000,4280001.000000
18679999.000000,5979999.000000
Z" /> 
<circle cx="17830000.000000" cy="7670000.000000" r="850000.000000" /> 
<circle cx="17830000.000000" cy="10210000.000000" r="850000.000000" /> 
<circle cx="17830000.000000" cy="12750000.000000" r="850000.000000" /> 
<circle cx="17830000.000000" cy="15290000.000000" r="850000.000000" /> 
</g>
<g >
</g>
<g style="fill:#000000; fill-opacity:1.0; 
stroke:#000000; stroke-width:1.000000; stroke-opacity:1; 
stroke-linecap:round; stroke-linejoin:round;">
<path style="fill:#000000; fill-opacity:1.0; 
stroke:#000000; stroke-width:1.000000; stroke-opacity:1; 
stroke-linecap:round; stroke-linejoin:round;fill-rule:evenodd;"
d="M 1740001.000000,5979999.000000
1740001.000000,4280001.000000
3439999.000000,4280001.000000
3439999.000000,5979999.000000
Z" /> 
<circle cx="2590000.000000" cy="7670000.000000" r="850000.000000" /> 
<circle cx="2590000.000000" cy="10210000.000000" r="850000.000000" /> 
<circle cx="2590000.000000" cy="12750000.000000" r="850000.000000" /> 
<circle cx="2590000.000000" cy="15290000.000000" r="850000.000000" /> 
</g>
<g >
</g>
<g style="fill:#000000; fill-opacity:1.0; 
stroke:#000000; stroke-width:1.000000; stroke-opacity:1; 
stroke-linecap:round; stroke-linejoin:round;">
<path style="fill:#000000; fill-opacity:1.0; 
stroke:#000000; stroke-width:1.000000; stroke-opacity:1; 
stroke-linecap:round; stroke-linejoin:round;fill-rule:evenodd;"
d="M 13170001.000000,1740001.000000
14869999.000000,1740001.000000
14869999.000000,3439999.000000
13170001.000000,3439999.000000
Z" /> 
<circle cx="11480000.000000" cy="2590000.000000" r="850000.000000" /> 
<circle cx="8940000.000000" cy="2590000.000000" r="850000.000000" /> 
<circle cx="6400000.000000" cy="2590000.000000" r="850000.000000" /> 
</g>
<g >
</g>
<g style="fill:#000000; fill-opacity:1.0; 
stroke:#000000; stroke-width:1.000000; stroke-opacity:1; 
stroke-linecap:round; stroke-linejoin:round;">
<circle cx="17830000.000000" cy="20370000.000000" r="850000.000000" /> 
<path style="fill:#000000; fill-opacity:1.0; 
stroke:#000000; stroke-width:1.000000; stroke-opacity:1; 
stroke-linecap:round; stroke-linejoin:round;fill-rule:evenodd;"
d="M 16139999.000000,21219999.000000
14440001.000000,21219999.000000
14440001.000000,19520001.000000
16139999.000000,19520001.000000
Z" /> 
</g>
<g >
</g>
<g >
</g>
<g style="fill:#000000; fill-opacity:1.0; 
stroke:#000000; stroke-width:1.000000; stroke-opacity:1; 
stroke-linecap:round; stroke-linejoin:round;">
</g>
<g style="fill:#000000; fill-opacity:1.0; 
stroke:#000000; stroke-width:250000.000000; stroke-opacity:1; 
stroke-linecap:round; stroke-linejoin:round;">
</g>
<g style="fill:#000000; fill-opacity:0.0; 
stroke:#000000; stroke-width:250000.000000; stroke-opacity:1; 
stroke-linecap:round; stroke-linejoin:round;">
<path d="M6747500 2937500
L6400000 2590000
" />
<path d="M6747500 7235000
L6747500 2937500
" />
<path d="M8940000 6701072
L8940000 2590000
" />
<path d="M7136072 8505000
L8940000 6701072
" />
<path d="M6747500 8505000
L7136072 8505000
" />
<path d="M11480000 5431072
L11480000 2590000
" />
<path d="M6747500 9775000
L7136072 9775000
" />
<path d="M7136072 9775000
L11480000 5431072
" />
<path d="M10210000 9575000
L11280000 8505000
" />
<path d="M11280000 8505000
L13672500 8505000
" />
<path d="M10210000 20370000
L10210000 9575000
" />
<path d="M5965000 11045000
L2590000 7670000
" />
<path d="M6747500 11045000
L5965000 11045000
" />
<path d="M4695000 12315000
L2590000 10210000
" />
<path d="M6747500 12315000
L4695000 12315000
" />
<path d="M6747500 13585000
L3425000 13585000
" />
<path d="M3425000 13585000
L2590000 12750000
" />
<path d="M6747500 14855000
L3025000 14855000
" />
<path d="M3025000 14855000
L2590000 15290000
" />
<path d="M5130000 17742500
L5130000 20370000
" />
<path d="M6747500 16125000
L5130000 17742500
" />
<path d="M17830000 8940000
L17830000 7670000
" />
<path d="M16655489 9723501
L17343501 9035489
" />
<path d="M17343501 9035489
L17734511 9035489
" />
<path d="M16655489 10114511
L16655489 9723501
" />
<path d="M15725000 11045000
L16655489 10114511
" />
<path d="M13672500 11045000
L15725000 11045000
" />
<path d="M17734511 9035489
L17830000 8940000
" />
<path d="M13672500 12315000
L15725000 12315000
" />
<path d="M15725000 12315000
L17830000 10210000
" />
<path d="M15725000 14855000
L17830000 12750000
" />
<path d="M13672500 14855000
L15725000 14855000
" />
<path d="M13672500 16125000
L16995000 16125000
" />
<path d="M16995000 16125000
L17830000 15290000
" />
<path d="M12360480 14409520
L13185000 13585000
" />
<path d="M12360480 16471552
L12360480 14409520
" />
<path d="M12638448 16749520
L12360480 16471552
" />
<path d="M13185000 13585000
L13672500 13585000
" />
<path d="M17830000 20370000
L14209520 16749520
" />
<path d="M14209520 16749520
L12638448 16749520
" />
</g>
<g >
</g>
<g style="fill:#000000; fill-opacity:0.0; 
stroke:#000000; stroke-width:250000.000000; stroke-opacity:1; 
stroke-linecap:round; stroke-linejoin:round;">
<g >
</g>
<g style="fill:#000000; fill-opacity:1.0; 
stroke:#000000; stroke-width:1.000000; stroke-opacity:1; 
stroke-linecap:round; stroke-linejoin:round;">
<path style="fill:#000000; fill-opacity:1.0; 
stroke:#000000; stroke-width:1.000000; stroke-opacity:1; 
stroke-linecap:round; stroke-linejoin:round;fill-rule:evenodd;"
d="M 19812539.000000,570185.000000
19858294.000000,622989.000000
19869500.000000,674500.000000
19869500.000000,22285500.000000
19849815.000000,22352539.000000
19797011.000000,22398294.000000
19745500.000000,22409500.000000
674500.000000,22409500.000000
607461.000000,22389815.000000
561706.000000,22337011.000000
550500.000000,22285500.000000
550500.000000,15290000.000000
1234341.000000,15290000.000000
1234813.000000,15295395.000000
1252799.000000,15500966.000000
1254937.000000,15525408.000000
1316097.000000,15753663.000000
1318384.000000,15758567.000000
1318386.000000,15758573.000000
1388675.000000,15909306.000000
1415965.000000,15967829.000000
1419072.000000,15972266.000000
1419073.000000,15972268.000000
1548399.000000,16156966.000000
1548403.000000,16156970.000000
1551505.000000,16161401.000000
1718599.000000,16328495.000000
1912170.000000,16464035.000000
2126337.000000,16563903.000000
2149760.000000,16570179.000000
2349366.000000,16623663.000000
2349369.000000,16623664.000000
2354592.000000,16625063.000000
2359979.000000,16625534.000000
2359983.000000,16625535.000000
2584605.000000,16645187.000000
2590000.000000,16645659.000000
2595395.000000,16645187.000000
2820017.000000,16625535.000000
2820021.000000,16625534.000000
2825408.000000,16625063.000000
2830631.000000,16623664.000000
2830634.000000,16623663.000000
3030240.000000,16570179.000000
3053663.000000,16563903.000000
3267830.000000,16464035.000000
3461401.000000,16328495.000000
3628495.000000,16161401.000000
3631597.000000,16156970.000000
3631601.000000,16156966.000000
3760927.000000,15972268.000000
3760928.000000,15972266.000000
3764035.000000,15967829.000000
3791325.000000,15909306.000000
3861614.000000,15758573.000000
3861616.000000,15758567.000000
3863903.000000,15753663.000000
3912470.000000,15572407.000000
3948835.000000,15512746.000000
4011682.000000,15482217.000000
4032245.000000,15480500.000000
5229308.000000,15480500.000000
5296347.000000,15500185.000000
5342102.000000,15552989.000000
5352046.000000,15622147.000000
5336040.000000,15667620.000000
5312229.000000,15707883.000000
5312227.000000,15707887.000000
5308256.000000,15714602.000000
5262402.000000,15872431.000000
5259500.000000,15909306.000000
5259500.000000,16340694.000000
5262402.000000,16377569.000000
5308256.000000,16535398.000000
5312902.000000,16543253.000000
5313158.000000,16544264.000000
5315326.000000,16549274.000000
5314518.000000,16549624.000000
5330086.000000,16610974.000000
5307929.000000,16677238.000000
5293852.000000,16694057.000000
4742701.000000,17245208.000000
4734516.000000,17252657.000000
4728123.000000,17256714.000000
4722781.000000,17262403.000000
4682100.000000,17305723.000000
4679389.000000,17308520.000000
4659880.000000,17328029.000000
4657415.000000,17331207.000000
4649833.000000,17340084.000000
4628592.000000,17362703.000000
4619938.000000,17371918.000000
4615671.000000,17379680.000000
4610288.000000,17389472.000000
4599603.000000,17405738.000000
4592110.000000,17415397.000000
4592108.000000,17415401.000000
4587327.000000,17421564.000000
4584229.000000,17428724.000000
4584225.000000,17428730.000000
4569978.000000,17461653.000000
4564839.000000,17472143.000000
4543803.000000,17510408.000000
4541862.000000,17517966.000000
4541862.000000,17517967.000000
4538822.000000,17529807.000000
4532521.000000,17548212.000000
4524562.000000,17566604.000000
4523341.000000,17574314.000000
4517730.000000,17609740.000000
4515363.000000,17621173.000000
4504500.000000,17663481.000000
4504500.000000,17683517.000000
4502975.000000,17702902.000000
4499840.000000,17722696.000000
4500574.000000,17730462.000000
4500574.000000,17730465.000000
4503950.000000,17766176.000000
4504500.000000,17777845.000000
4504500.000000,18895501.000000
4484815.000000,18962540.000000
4432011.000000,19008295.000000
4380500.000000,19019501.000000
4232624.000000,19019501.000000
4171420.000000,19026149.000000
4037176.000000,19076474.000000
4030111.000000,19081769.000000
4030109.000000,19081770.000000
3950052.000000,19141770.000000
3922454.000000,19162454.000000
3836474.000000,19277176.000000
3786149.000000,19411420.000000
3779500.000000,19472623.000000
3779501.000000,21267376.000000
3786149.000000,21328580.000000
3836474.000000,21462824.000000
3922454.000000,21577546.000000
3929519.000000,21582841.000000
4030109.000000,21658230.000000
4030111.000000,21658231.000000
4037176.000000,21663526.000000
4171420.000000,21713851.000000
4232623.000000,21720500.000000
5129866.000000,21720500.000000
6027376.000000,21720499.000000
6088580.000000,21713851.000000
6222824.000000,21663526.000000
6229889.000000,21658231.000000
6229891.000000,21658230.000000
6330481.000000,21582841.000000
6337546.000000,21577546.000000
6423526.000000,21462824.000000
6426626.000000,21454554.000000
6426629.000000,21454549.000000
6473197.000000,21330329.000000
6515161.000000,21274465.000000
6580666.000000,21250157.000000
6648914.000000,21265123.000000
6676987.000000,21286175.000000
6795091.000000,21404279.000000
6803357.000000,21411215.000000
6987992.000000,21540498.000000
6997324.000000,21545886.000000
7201603.000000,21641143.000000
7211736.000000,21644832.000000
7402779.000000,21696022.000000
7416653.000000,21695691.000000
7420000.000000,21687875.000000
7420000.000000,21682806.000000
7920000.000000,21682806.000000
7923910.000000,21696123.000000
7932326.000000,21697333.000000
8128264.000000,21644832.000000
8138397.000000,21641143.000000
8342676.000000,21545886.000000
8352008.000000,21540498.000000
8536643.000000,21411215.000000
8544909.000000,21404279.000000
8704281.000000,21244907.000000
8711212.000000,21236648.000000
8838120.000000,21055404.000000
8892697.000000,21011780.000000
8962196.000000,21004587.000000
9024550.000000,21036109.000000
9041270.000000,21055405.000000
9168399.000000,21236966.000000
9168403.000000,21236970.000000
9171505.000000,21241401.000000
9338599.000000,21408495.000000
9532170.000000,21544035.000000
9746337.000000,21643903.000000
9798157.000000,21657788.000000
9969366.000000,21703663.000000
9969369.000000,21703664.000000
9974592.000000,21705063.000000
9979979.000000,21705534.000000
9979983.000000,21705535.000000
10204605.000000,21725187.000000
10210000.000000,21725659.000000
10215395.000000,21725187.000000
10440017.000000,21705535.000000
10440021.000000,21705534.000000
10445408.000000,21705063.000000
10450631.000000,21703664.000000
10450634.000000,21703663.000000
10621843.000000,21657788.000000
10673663.000000,21643903.000000
10887830.000000,21544035.000000
11081401.000000,21408495.000000
11225924.000000,21263972.000000
13940000.000000,21263972.000000
13940363.000000,21270669.000000
13945803.000000,21320744.000000
13949371.000000,21335753.000000
13993817.000000,21454311.000000
14002212.000000,21469646.000000
14077516.000000,21570124.000000
14089876.000000,21582484.000000
14190354.000000,21657788.000000
14205689.000000,21666183.000000
14324247.000000,21710629.000000
14339256.000000,21714197.000000
14389331.000000,21719637.000000
14396028.000000,21720000.000000
15022170.000000,21720000.000000
15037169.000000,21715596.000000
15038356.000000,21714226.000000
15040000.000000,21706668.000000
15040000.000000,20637830.000000
15035596.000000,20622831.000000
15034226.000000,20621644.000000
15026668.000000,20620000.000000
13957830.000000,20620000.000000
13942831.000000,20624404.000000
13941644.000000,20625774.000000
13940000.000000,20633332.000000
13940000.000000,21263972.000000
11225924.000000,21263972.000000
11248495.000000,21241401.000000
11251597.000000,21236970.000000
11251601.000000,21236966.000000
11380927.000000,21052268.000000
11380928.000000,21052266.000000
11384035.000000,21047829.000000
11404199.000000,21004587.000000
11481614.000000,20838573.000000
11481616.000000,20838567.000000
11483903.000000,20833663.000000
11545063.000000,20605408.000000
11565659.000000,20370000.000000
11545063.000000,20134592.000000
11536376.000000,20102170.000000
13940000.000000,20102170.000000
13944404.000000,20117169.000000
13945774.000000,20118356.000000
13953332.000000,20120000.000000
15022170.000000,20120000.000000
15037169.000000,20115596.000000
15038356.000000,20114226.000000
15040000.000000,20106668.000000
15040000.000000,19037830.000000
15035596.000000,19022831.000000
15034226.000000,19021644.000000
15026668.000000,19020000.000000
14396028.000000,19020000.000000
14389331.000000,19020363.000000
14339256.000000,19025803.000000
14324247.000000,19029371.000000
14205689.000000,19073817.000000
14190354.000000,19082212.000000
14089876.000000,19157516.000000
14077516.000000,19169876.000000
14002212.000000,19270354.000000
13993817.000000,19285689.000000
13949371.000000,19404247.000000
13945803.000000,19419256.000000
13940363.000000,19469331.000000
13940000.000000,19476028.000000
13940000.000000,20102170.000000
11536376.000000,20102170.000000
11483903.000000,19906337.000000
11481616.000000,19901433.000000
11481614.000000,19901427.000000
11386325.000000,19697082.000000
11384035.000000,19692171.000000
11378730.000000,19684595.000000
11251601.000000,19503034.000000
11251597.000000,19503030.000000
11248495.000000,19498599.000000
11081401.000000,19331505.000000
10892890.000000,19199508.000000
10888376.000000,19196347.000000
10844752.000000,19141770.000000
10835500.000000,19094772.000000
10835500.000000,14389716.000000
11730320.000000,14389716.000000
11731054.000000,14397482.000000
11731054.000000,14397485.000000
11734430.000000,14433196.000000
11734980.000000,14444865.000000
11734980.000000,16393777.000000
11734458.000000,16404833.000000
11732807.000000,16412219.000000
11733052.000000,16420013.000000
11734919.000000,16479425.000000
11734980.000000,16483320.000000
11734980.000000,16510902.000000
11735466.000000,16514752.000000
11735467.000000,16514760.000000
11735482.000000,16514875.000000
11736400.000000,16526530.000000
11737771.000000,16570179.000000
11739947.000000,16577670.000000
11739948.000000,16577674.000000
11743360.000000,16589418.000000
11747306.000000,16608472.000000
11749816.000000,16628344.000000
11759111.000000,16651819.000000
11765894.000000,16668951.000000
11769679.000000,16680007.000000
11777171.000000,16705794.000000
11781862.000000,16721942.000000
11792058.000000,16739182.000000
11800618.000000,16756655.000000
11807994.000000,16775284.000000
11820924.000000,16793081.000000
11833661.000000,16810612.000000
11840073.000000,16820374.000000
11858336.000000,16851255.000000
11858342.000000,16851263.000000
11862310.000000,16857972.000000
11876474.000000,16872136.000000
11889111.000000,16886932.000000
11900886.000000,16903139.000000
11906899.000000,16908113.000000
11934538.000000,16930978.000000
11943179.000000,16938841.000000
12141166.000000,17136829.000000
12148604.000000,17145003.000000
12152662.000000,17151397.000000
12158350.000000,17156738.000000
12201672.000000,17197421.000000
12204469.000000,17200132.000000
12223977.000000,17219640.000000
12227155.000000,17222105.000000
12236032.000000,17229687.000000
12260932.000000,17253070.000000
12267866.000000,17259582.000000
12274705.000000,17263341.000000
12274704.000000,17263341.000000
12285420.000000,17269232.000000
12301686.000000,17279917.000000
12311345.000000,17287410.000000
12311349.000000,17287412.000000
12317512.000000,17292193.000000
12324678.000000,17295294.000000
12357599.000000,17309541.000000
12368086.000000,17314678.000000
12406356.000000,17335717.000000
12425765.000000,17340700.000000
12444165.000000,17347000.000000
12462552.000000,17354957.000000
12470256.000000,17356177.000000
12470259.000000,17356178.000000
12505682.000000,17361788.000000
12517117.000000,17364156.000000
12559429.000000,17375020.000000
12579465.000000,17375020.000000
12598863.000000,17376547.000000
12618644.000000,17379680.000000
12626410.000000,17378946.000000
12626413.000000,17378946.000000
12662124.000000,17375570.000000
12673793.000000,17375020.000000
13899068.000000,17375020.000000
13966107.000000,17394705.000000
13986749.000000,17411339.000000
15504404.000000,18928995.000000
15537889.000000,18990318.000000
15537890.000000,19020000.000000
15540000.000000,19020000.000000
15540000.000000,21702170.000000
15544404.000000,21717169.000000
15545774.000000,21718356.000000
15553332.000000,21720000.000000
16183972.000000,21720000.000000
16190669.000000,21719637.000000
16240744.000000,21714197.000000
16255753.000000,21710629.000000
16374311.000000,21666183.000000
16389646.000000,21657788.000000
16490124.000000,21582484.000000
16502484.000000,21570124.000000
16577788.000000,21469646.000000
16586182.000000,21454313.000000
16632615.000000,21330454.000000
16674579.000000,21274591.000000
16740085.000000,21250283.000000
16808333.000000,21265249.000000
16836405.000000,21286301.000000
16958599.000000,21408495.000000
17152170.000000,21544035.000000
17366337.000000,21643903.000000
17418157.000000,21657788.000000
17589366.000000,21703663.000000
17589369.000000,21703664.000000
17594592.000000,21705063.000000
17599979.000000,21705534.000000
17599983.000000,21705535.000000
17824605.000000,21725187.000000
17830000.000000,21725659.000000
17835395.000000,21725187.000000
18060017.000000,21705535.000000
18060021.000000,21705534.000000
18065408.000000,21705063.000000
18070631.000000,21703664.000000
18070634.000000,21703663.000000
18241843.000000,21657788.000000
18293663.000000,21643903.000000
18507830.000000,21544035.000000
18701401.000000,21408495.000000
18868495.000000,21241401.000000
18871597.000000,21236970.000000
18871601.000000,21236966.000000
19000927.000000,21052268.000000
19000928.000000,21052266.000000
19004035.000000,21047829.000000
19024199.000000,21004587.000000
19101614.000000,20838573.000000
19101616.000000,20838567.000000
19103903.000000,20833663.000000
19165063.000000,20605408.000000
19185659.000000,20370000.000000
19165063.000000,20134592.000000
19103903.000000,19906337.000000
19101616.000000,19901433.000000
19101614.000000,19901427.000000
19006325.000000,19697082.000000
19004035.000000,19692171.000000
18998730.000000,19684595.000000
18871601.000000,19503034.000000
18871597.000000,19503030.000000
18868495.000000,19498599.000000
18701401.000000,19331505.000000
18507830.000000,19195965.000000
18293663.000000,19096097.000000
18208859.000000,19073374.000000
18070634.000000,19036337.000000
18070631.000000,19036336.000000
18065408.000000,19034937.000000
18060021.000000,19034466.000000
18060017.000000,19034465.000000
17835395.000000,19014813.000000
17830000.000000,19014341.000000
17824605.000000,19014813.000000
17599983.000000,19034465.000000
17599979.000000,19034466.000000
17594592.000000,19034937.000000
17589371.000000,19036336.000000
17589365.000000,19036337.000000
17494126.000000,19061856.000000
17424276.000000,19060193.000000
17374352.000000,19029762.000000
15306772.000000,16962181.000000
15273287.000000,16900858.000000
15278271.000000,16831166.000000
15320143.000000,16775233.000000
15385607.000000,16750816.000000
15394453.000000,16750500.000000
16917225.000000,16750500.000000
16928281.000000,16751022.000000
16935667.000000,16752673.000000
17002873.000000,16750561.000000
17006768.000000,16750500.000000
17034350.000000,16750500.000000
17038200.000000,16750014.000000
17038208.000000,16750013.000000
17038323.000000,16749998.000000
17049978.000000,16749080.000000
17093627.000000,16747709.000000
17101118.000000,16745533.000000
17101122.000000,16745532.000000
17112866.000000,16742120.000000
17131920.000000,16738174.000000
17151792.000000,16735664.000000
17192401.000000,16719585.000000
17203455.000000,16715801.000000
17237900.000000,16705794.000000
17245390.000000,16703618.000000
17262630.000000,16693422.000000
17280103.000000,16684862.000000
17291474.000000,16680360.000000
17291477.000000,16680359.000000
17298732.000000,16677486.000000
17334060.000000,16651819.000000
17343822.000000,16645407.000000
17374698.000000,16627146.000000
17374701.000000,16627144.000000
17381420.000000,16623170.000000
17385407.000000,16619183.000000
17449546.000000,16593998.000000
17492607.000000,16597737.000000
17589365.000000,16623663.000000
17589371.000000,16623664.000000
17594592.000000,16625063.000000
17599979.000000,16625534.000000
17599983.000000,16625535.000000
17824605.000000,16645187.000000
17830000.000000,16645659.000000
17835395.000000,16645187.000000
18060017.000000,16625535.000000
18060021.000000,16625534.000000
18065408.000000,16625063.000000
18070631.000000,16623664.000000
18070634.000000,16623663.000000
18270240.000000,16570179.000000
18293663.000000,16563903.000000
18507830.000000,16464035.000000
18701401.000000,16328495.000000
18868495.000000,16161401.000000
18871597.000000,16156970.000000
18871601.000000,16156966.000000
19000927.000000,15972268.000000
19000928.000000,15972266.000000
19004035.000000,15967829.000000
19031325.000000,15909306.000000
19101614.000000,15758573.000000
19101616.000000,15758567.000000
19103903.000000,15753663.000000
19165063.000000,15525408.000000
19167202.000000,15500966.000000
19185187.000000,15295395.000000
19185659.000000,15290000.000000
19169698.000000,15107569.000000
19165535.000000,15059983.000000
19165534.000000,15059979.000000
19165063.000000,15054592.000000
19103903.000000,14826337.000000
19101616.000000,14821433.000000
19101614.000000,14821427.000000
19006325.000000,14617082.000000
19004035.000000,14612171.000000
18992952.000000,14596343.000000
18871601.000000,14423034.000000
18871597.000000,14423030.000000
18868495.000000,14418599.000000
18701401.000000,14251505.000000
18515842.000000,14121575.000000
18472218.000000,14066998.000000
18465025.000000,13997499.000000
18496547.000000,13935145.000000
18515842.000000,13918425.000000
18540921.000000,13900864.000000
18701401.000000,13788495.000000
18868495.000000,13621401.000000
18871597.000000,13616970.000000
18871601.000000,13616966.000000
19000927.000000,13432268.000000
19000928.000000,13432266.000000
19004035.000000,13427829.000000
19031325.000000,13369306.000000
19101614.000000,13218573.000000
19101616.000000,13218567.000000
19103903.000000,13213663.000000
19162859.000000,12993634.000000
19163663.000000,12990634.000000
19163664.000000,12990631.000000
19165063.000000,12985408.000000
19167202.000000,12960966.000000
19185187.000000,12755395.000000
19185659.000000,12750000.000000
19179082.000000,12674829.000000
19165535.000000,12519983.000000
19165534.000000,12519979.000000
19165063.000000,12514592.000000
19103903.000000,12286337.000000
19101616.000000,12281433.000000
19101614.000000,12281427.000000
19006325.000000,12077082.000000
19004035.000000,12072171.000000
18992952.000000,12056343.000000
18871601.000000,11883034.000000
18871597.000000,11883030.000000
18868495.000000,11878599.000000
18701401.000000,11711505.000000
18515842.000000,11581575.000000
18472218.000000,11526998.000000
18465025.000000,11457499.000000
18496547.000000,11395145.000000
18515842.000000,11378425.000000
18540921.000000,11360864.000000
18701401.000000,11248495.000000
18868495.000000,11081401.000000
18871597.000000,11076970.000000
18871601.000000,11076966.000000
19000927.000000,10892268.000000
19000928.000000,10892266.000000
19004035.000000,10887829.000000
19031325.000000,10829306.000000
19101614.000000,10678573.000000
19101616.000000,10678567.000000
19103903.000000,10673663.000000
19159239.000000,10467143.000000
19163663.000000,10450634.000000
19163664.000000,10450631.000000
19165063.000000,10445408.000000
19167202.000000,10420966.000000
19185187.000000,10215395.000000
19185659.000000,10210000.000000
19182851.000000,10177905.000000
19165535.000000,9979983.000000
19165534.000000,9979979.000000
19165063.000000,9974592.000000
19103903.000000,9746337.000000
19101616.000000,9741433.000000
19101614.000000,9741427.000000
19006325.000000,9537082.000000
19004035.000000,9532171.000000
18992195.000000,9515261.000000
18871601.000000,9343034.000000
18871597.000000,9343030.000000
18868495.000000,9338599.000000
18701401.000000,9171505.000000
18515842.000000,9041575.000000
18472218.000000,8986998.000000
18465025.000000,8917499.000000
18496547.000000,8855145.000000
18515842.000000,8838425.000000
18540921.000000,8820864.000000
18701401.000000,8708495.000000
18868495.000000,8541401.000000
18871597.000000,8536970.000000
18871601.000000,8536966.000000
19000927.000000,8352268.000000
19000928.000000,8352266.000000
19004035.000000,8347829.000000
19031325.000000,8289306.000000
19101614.000000,8138573.000000
19101616.000000,8138567.000000
19103903.000000,8133663.000000
19159443.000000,7926382.000000
19163663.000000,7910634.000000
19163664.000000,7910631.000000
19165063.000000,7905408.000000
19165781.000000,7897208.000000
19185187.000000,7675395.000000
19185659.000000,7670000.000000
19182851.000000,7637905.000000
19165535.000000,7439983.000000
19165534.000000,7439979.000000
19165063.000000,7434592.000000
19103903.000000,7206337.000000
19101616.000000,7201433.000000
19101614.000000,7201427.000000
19006325.000000,6997082.000000
19004035.000000,6992171.000000
18992195.000000,6975261.000000
18871601.000000,6803034.000000
18871597.000000,6803030.000000
18868495.000000,6798599.000000
18746301.000000,6676405.000000
18712816.000000,6615082.000000
18717800.000000,6545390.000000
18759672.000000,6489457.000000
18790454.000000,6472615.000000
18914313.000000,6426182.000000
18929646.000000,6417788.000000
19030124.000000,6342484.000000
19042484.000000,6330124.000000
19117788.000000,6229646.000000
19126183.000000,6214311.000000
19170629.000000,6095753.000000
19174197.000000,6080744.000000
19179637.000000,6030669.000000
19180000.000000,6023972.000000
19180000.000000,5397830.000000
19175596.000000,5382831.000000
19174226.000000,5381644.000000
19166668.000000,5380000.000000
16497830.000000,5380000.000000
16482831.000000,5384404.000000
16481644.000000,5385774.000000
16480000.000000,5393332.000000
16480000.000000,6023972.000000
16480363.000000,6030669.000000
16485803.000000,6080744.000000
16489371.000000,6095753.000000
16533817.000000,6214311.000000
16542212.000000,6229646.000000
16617516.000000,6330124.000000
16629876.000000,6342484.000000
16730354.000000,6417788.000000
16745687.000000,6426182.000000
16869546.000000,6472615.000000
16925409.000000,6514579.000000
16949717.000000,6580085.000000
16934751.000000,6648333.000000
16913699.000000,6676405.000000
16791505.000000,6798599.000000
16788403.000000,6803030.000000
16788399.000000,6803034.000000
16667805.000000,6975261.000000
16655965.000000,6992171.000000
16653675.000000,6997082.000000
16558386.000000,7201427.000000
16558384.000000,7201433.000000
16556097.000000,7206337.000000
16494937.000000,7434592.000000
16494466.000000,7439979.000000
16494465.000000,7439983.000000
16477149.000000,7637905.000000
16474341.000000,7670000.000000
16474813.000000,7675395.000000
16494220.000000,7897208.000000
16494937.000000,7905408.000000
16496336.000000,7910631.000000
16496337.000000,7910634.000000
16500557.000000,7926382.000000
16556097.000000,8133663.000000
16558384.000000,8138567.000000
16558386.000000,8138573.000000
16628675.000000,8289306.000000
16655965.000000,8347829.000000
16791505.000000,8541401.000000
16792909.000000,8542805.000000
16820499.000000,8605837.000000
16809463.000000,8674829.000000
16785178.000000,8709222.000000
16507401.000000,8986998.000000
16268190.000000,9226209.000000
16260005.000000,9233658.000000
16253612.000000,9237715.000000
16231530.000000,9261230.000000
16207588.000000,9286725.000000
16204877.000000,9289522.000000
16185369.000000,9309030.000000
16182904.000000,9312208.000000
16175322.000000,9321085.000000
16158875.000000,9338599.000000
16145427.000000,9352919.000000
16135777.000000,9370473.000000
16125092.000000,9386739.000000
16117599.000000,9396398.000000
16117597.000000,9396402.000000
16112816.000000,9402565.000000
16109718.000000,9409725.000000
16109714.000000,9409731.000000
16095467.000000,9442654.000000
16090328.000000,9453144.000000
16079765.000000,9472359.000000
16069292.000000,9491409.000000
16067351.000000,9498967.000000
16067351.000000,9498968.000000
16064311.000000,9510808.000000
16058010.000000,9529213.000000
16050051.000000,9547605.000000
16048830.000000,9555315.000000
16043219.000000,9590741.000000
16040852.000000,9602174.000000
16029989.000000,9644482.000000
16029989.000000,9664518.000000
16028464.000000,9683903.000000
16025329.000000,9703697.000000
16026063.000000,9711463.000000
16026063.000000,9711466.000000
16029439.000000,9747177.000000
16029989.000000,9758846.000000
16029989.000000,9804058.000000
16010304.000000,9871097.000000
15993670.000000,9891739.000000
15502228.000000,10383181.000000
15440905.000000,10416666.000000
15414547.000000,10419500.000000
15190111.000000,10419500.000000
15123072.000000,10399815.000000
15077317.000000,10347011.000000
15067373.000000,10277853.000000
15083379.000000,10232378.000000
15107312.000000,10191909.000000
15113459.000000,10177705.000000
15154539.000000,10036306.000000
15152777.000000,10027922.000000
15141497.000000,10025000.000000
12205534.000000,10025000.000000
12190971.000000,10029276.000000
12190006.000000,10034739.000000
12231541.000000,10177705.000000
12237689.000000,10191913.000000
12313347.000000,10319843.000000
12324010.000000,10333590.000000
12349544.000000,10398626.000000
12335864.000000,10467143.000000
12324010.000000,10485589.000000
12322436.000000,10487618.000000
12316919.000000,10493135.000000
12312948.000000,10499849.000000
12312946.000000,10499852.000000
12285730.000000,10545873.000000
12233256.000000,10634602.000000
12231079.000000,10642095.000000
12223428.000000,10668430.000000
12187402.000000,10792431.000000
12184500.000000,10829306.000000
12184500.000000,11260694.000000
12187402.000000,11297569.000000
12233256.000000,11455398.000000
12237226.000000,11462112.000000
12237227.000000,11462113.000000
12307877.000000,11581576.000000
12316919.000000,11596865.000000
12322438.000000,11602384.000000
12323690.000000,11603998.000000
12349226.000000,11669034.000000
12335547.000000,11737551.000000
12323690.000000,11756002.000000
12322438.000000,11757616.000000
12316919.000000,11763135.000000
12312948.000000,11769850.000000
12312947.000000,11769851.000000
12250899.000000,11874770.000000
12233256.000000,11904602.000000
12187402.000000,12062431.000000
12184500.000000,12099306.000000
12184500.000000,12530694.000000
12187402.000000,12567569.000000
12233256.000000,12725398.000000
12237226.000000,12732112.000000
12237227.000000,12732113.000000
12250996.000000,12755395.000000
12316919.000000,12866865.000000
12322438.000000,12872384.000000
12323690.000000,12873998.000000
12349226.000000,12939034.000000
12335547.000000,13007551.000000
12323690.000000,13026002.000000
12322438.000000,13027616.000000
12316919.000000,13033135.000000
12312948.000000,13039850.000000
12312947.000000,13039851.000000
12237230.000000,13167883.000000
12233256.000000,13174602.000000
12187402.000000,13332431.000000
12184500.000000,13369306.000000
12184500.000000,13649547.000000
12164815.000000,13716586.000000
12148181.000000,13737228.000000
11973181.000000,13912228.000000
11964996.000000,13919677.000000
11958603.000000,13923734.000000
11912580.000000,13972743.000000
11909869.000000,13975540.000000
11890360.000000,13995049.000000
11887895.000000,13998227.000000
11880315.000000,14007101.000000
11850418.000000,14038938.000000
11846659.000000,14045776.000000
11840768.000000,14056492.000000
11830083.000000,14072758.000000
11822590.000000,14082417.000000
11822588.000000,14082421.000000
11817807.000000,14088584.000000
11814709.000000,14095744.000000
11814705.000000,14095750.000000
11800458.000000,14128673.000000
11795319.000000,14139163.000000
11774283.000000,14177428.000000
11772342.000000,14184986.000000
11772342.000000,14184987.000000
11769302.000000,14196827.000000
11763001.000000,14215232.000000
11755042.000000,14233624.000000
11753821.000000,14241334.000000
11748210.000000,14276760.000000
11745843.000000,14288193.000000
11734980.000000,14330501.000000
11734980.000000,14350537.000000
11733455.000000,14369922.000000
11730320.000000,14389716.000000
10835500.000000,14389716.000000
10835500.000000,9885452.000000
10855185.000000,9818413.000000
10871819.000000,9797771.000000
11502771.000000,9166819.000000
11564094.000000,9133334.000000
11590452.000000,9130500.000000
12154889.000000,9130500.000000
12221928.000000,9150185.000000
12267683.000000,9202989.000000
12277627.000000,9272147.000000
12261621.000000,9317622.000000
12237688.000000,9358091.000000
12231541.000000,9372295.000000
12190461.000000,9513694.000000
12192223.000000,9522078.000000
12203503.000000,9525000.000000
15139466.000000,9525000.000000
15154029.000000,9520724.000000
15154994.000000,9515261.000000
15113459.000000,9372295.000000
15107311.000000,9358087.000000
15031655.000000,9230160.000000
15020992.000000,9216414.000000
14995456.000000,9151378.000000
15009135.000000,9082860.000000
15020988.000000,9064415.000000
15022568.000000,9062378.000000
15028081.000000,9056865.000000
15037124.000000,9041575.000000
15107773.000000,8922113.000000
15107774.000000,8922112.000000
15111744.000000,8915398.000000
15157598.000000,8757569.000000
15160500.000000,8720694.000000
15160500.000000,8289306.000000
15157598.000000,8252431.000000
15121572.000000,8128430.000000
15113921.000000,8102095.000000
15111744.000000,8094602.000000
15105212.000000,8083557.000000
15032054.000000,7959852.000000
15032052.000000,7959849.000000
15028081.000000,7953135.000000
15022564.000000,7947618.000000
15020990.000000,7945589.000000
14995456.000000,7880552.000000
15009136.000000,7812035.000000
15020990.000000,7793590.000000
15031653.000000,7779843.000000
15107311.000000,7651913.000000
15113459.000000,7637705.000000
15154539.000000,7496306.000000
15152777.000000,7487922.000000
15141497.000000,7485000.000000
12205534.000000,7485000.000000
12190971.000000,7489276.000000
12190006.000000,7494739.000000
12231541.000000,7637705.000000
12237688.000000,7651909.000000
12261621.000000,7692378.000000
12278804.000000,7760102.000000
12256644.000000,7826365.000000
12202179.000000,7870129.000000
12154889.000000,7879500.000000
11357775.000000,7879500.000000
11346719.000000,7878978.000000
11339333.000000,7877327.000000
11287709.000000,7878949.000000
11272113.000000,7879439.000000
11268219.000000,7879500.000000
11240650.000000,7879500.000000
11236800.000000,7879986.000000
11236792.000000,7879987.000000
11236685.000000,7880001.000000
11225030.000000,7880919.000000
11203877.000000,7881583.000000
11189168.000000,7882045.000000
11189167.000000,7882045.000000
11181373.000000,7882290.000000
11173885.000000,7884465.000000
11173882.000000,7884466.000000
11162133.000000,7887880.000000
11143083.000000,7891825.000000
11123208.000000,7894336.000000
11082604.000000,7910413.000000
11071552.000000,7914197.000000
11029610.000000,7926382.000000
11012361.000000,7936583.000000
10994901.000000,7945137.000000
10976268.000000,7952514.000000
10969961.000000,7957097.000000
10969960.000000,7957097.000000
10940941.000000,7978181.000000
10931175.000000,7984596.000000
10900294.000000,8002858.000000
10900291.000000,8002860.000000
10893580.000000,8006829.000000
10879415.000000,8020994.000000
10864619.000000,8033631.000000
10854726.000000,8040818.000000
10854720.000000,8040824.000000
10848413.000000,8045406.000000
10843441.000000,8051416.000000
10843440.000000,8051417.000000
10820578.000000,8079053.000000
10812715.000000,8087694.000000
9822701.000000,9077708.000000
9814516.000000,9085157.000000
9808123.000000,9089214.000000
9766691.000000,9133334.000000
9762100.000000,9138223.000000
9759389.000000,9141020.000000
9739880.000000,9160529.000000
9737415.000000,9163707.000000
9729835.000000,9172581.000000
9720992.000000,9181998.000000
9706387.000000,9197551.000000
9699938.000000,9204418.000000
9696179.000000,9211256.000000
9690288.000000,9221972.000000
9679603.000000,9238238.000000
9672110.000000,9247897.000000
9672108.000000,9247901.000000
9667327.000000,9254064.000000
9664229.000000,9261224.000000
9664225.000000,9261230.000000
9649978.000000,9294153.000000
9644839.000000,9304643.000000
9640688.000000,9312194.000000
9623803.000000,9342908.000000
9621862.000000,9350466.000000
9621862.000000,9350467.000000
9618822.000000,9362307.000000
9612521.000000,9380712.000000
9604562.000000,9399104.000000
9603341.000000,9406814.000000
9597730.000000,9442240.000000
9595363.000000,9453673.000000
9584500.000000,9495981.000000
9584500.000000,9516017.000000
9582975.000000,9535402.000000
9579840.000000,9555196.000000
9580574.000000,9562962.000000
9580574.000000,9562965.000000
9583950.000000,9598676.000000
9584500.000000,9610345.000000
9584500.000000,19094774.000000
9564815.000000,19161813.000000
9531623.000000,19196349.000000
9343034.000000,19328399.000000
9343033.000000,19328400.000000
9338599.000000,19331505.000000
9171505.000000,19498599.000000
9168403.000000,19503030.000000
9168399.000000,19503034.000000
9041270.000000,19684595.000000
8986693.000000,19728220.000000
8917195.000000,19735414.000000
8854840.000000,19703891.000000
8838120.000000,19684596.000000
8711212.000000,19503352.000000
8704281.000000,19495093.000000
8544909.000000,19335721.000000
8536643.000000,19328785.000000
8352008.000000,19199502.000000
8342676.000000,19194114.000000
8138397.000000,19098857.000000
8128264.000000,19095168.000000
7937221.000000,19043978.000000
7923347.000000,19044309.000000
7920000.000000,19052125.000000
7920000.000000,21682806.000000
7420000.000000,21682806.000000
7420000.000000,19057194.000000
7416090.000000,19043877.000000
7407674.000000,19042667.000000
7211736.000000,19095168.000000
7201603.000000,19098857.000000
6997333.000000,19194110.000000
6987983.000000,19199508.000000
6803357.000000,19328784.000000
6795093.000000,19335719.000000
6676987.000000,19453825.000000
6615664.000000,19487310.000000
6545972.000000,19482326.000000
6490039.000000,19440454.000000
6473197.000000,19409671.000000
6426629.000000,19285451.000000
6426626.000000,19285445.000000
6423526.000000,19277176.000000
6337546.000000,19162454.000000
6309948.000000,19141770.000000
6229891.000000,19081770.000000
6229889.000000,19081769.000000
6222824.000000,19076474.000000
6088580.000000,19026149.000000
6027377.000000,19019500.000000
5879500.000000,19019500.000000
5812461.000000,18999815.000000
5766706.000000,18947011.000000
5755500.000000,18895500.000000
5755500.000000,18052952.000000
5775185.000000,17985913.000000
5791819.000000,17965271.000000
6795272.000000,16961819.000000
6856595.000000,16928334.000000
6882953.000000,16925500.000000
7650694.000000,16925500.000000
7687569.000000,16922598.000000
7845398.000000,16876744.000000
7986865.000000,16793081.000000
8103081.000000,16676865.000000
8186744.000000,16535398.000000
8232598.000000,16377569.000000
8235500.000000,16340694.000000
8235500.000000,15909306.000000
8232598.000000,15872431.000000
8186744.000000,15714602.000000
8182771.000000,15707883.000000
8107053.000000,15579851.000000
8107052.000000,15579850.000000
8103081.000000,15573135.000000
8097562.000000,15567616.000000
8096310.000000,15566002.000000
8070774.000000,15500966.000000
8084453.000000,15432449.000000
8096310.000000,15413998.000000
8097562.000000,15412384.000000
8103081.000000,15406865.000000
8169004.000000,15295395.000000
8182773.000000,15272113.000000
8182774.000000,15272112.000000
8186744.000000,15265398.000000
8232598.000000,15107569.000000
8235500.000000,15070694.000000
8235500.000000,14639306.000000
8232598.000000,14602431.000000
8186744.000000,14444602.000000
8169102.000000,14414770.000000
8107053.000000,14309851.000000
8107052.000000,14309850.000000
8103081.000000,14303135.000000
8097562.000000,14297616.000000
8096310.000000,14296002.000000
8070774.000000,14230966.000000
8084453.000000,14162449.000000
8096310.000000,14143998.000000
8097562.000000,14142384.000000
8103081.000000,14136865.000000
8112123.000000,14121576.000000
8182773.000000,14002113.000000
8182774.000000,14002112.000000
8186744.000000,13995398.000000
8232598.000000,13837569.000000
8235500.000000,13800694.000000
8235500.000000,13369306.000000
8232598.000000,13332431.000000
8186744.000000,13174602.000000
8182771.000000,13167883.000000
8107053.000000,13039851.000000
8107052.000000,13039850.000000
8103081.000000,13033135.000000
8097562.000000,13027616.000000
8096310.000000,13026002.000000
8070774.000000,12960966.000000
8084453.000000,12892449.000000
8096310.000000,12873998.000000
8097562.000000,12872384.000000
8103081.000000,12866865.000000
8169004.000000,12755395.000000
8182773.000000,12732113.000000
8182774.000000,12732112.000000
8186744.000000,12725398.000000
8232598.000000,12567569.000000
8235500.000000,12530694.000000
8235500.000000,12099306.000000
8232598.000000,12062431.000000
8186744.000000,11904602.000000
8169102.000000,11874770.000000
8107053.000000,11769851.000000
8107052.000000,11769850.000000
8103081.000000,11763135.000000
8097562.000000,11757616.000000
8096310.000000,11756002.000000
8070774.000000,11690966.000000
8084453.000000,11622449.000000
8096310.000000,11603998.000000
8097562.000000,11602384.000000
8103081.000000,11596865.000000
8112123.000000,11581576.000000
8182773.000000,11462113.000000
8182774.000000,11462112.000000
8186744.000000,11455398.000000
8232598.000000,11297569.000000
8235500.000000,11260694.000000
8235500.000000,10829306.000000
8232598.000000,10792431.000000
8196572.000000,10668430.000000
8188921.000000,10642095.000000
8186744.000000,10634602.000000
8107054.000000,10499852.000000
8107052.000000,10499850.000000
8103081.000000,10493135.000000
8097562.000000,10487616.000000
8096310.000000,10486002.000000
8070774.000000,10420966.000000
8084453.000000,10352449.000000
8096310.000000,10333998.000000
8097562.000000,10332384.000000
8103081.000000,10326865.000000
8122957.000000,10293256.000000
8182773.000000,10192113.000000
8182774.000000,10192112.000000
8186744.000000,10185398.000000
8232598.000000,10027569.000000
8235500.000000,9990694.000000
8235500.000000,9611524.000000
8255185.000000,9544485.000000
8271819.000000,9523843.000000
10821969.000000,6973694.000000
12190461.000000,6973694.000000
12192223.000000,6982078.000000
12203503.000000,6985000.000000
13404670.000000,6985000.000000
13419669.000000,6980596.000000
13420856.000000,6979226.000000
13422500.000000,6971668.000000
13422500.000000,6967170.000000
13922500.000000,6967170.000000
13926904.000000,6982169.000000
13928274.000000,6983356.000000
13935832.000000,6985000.000000
15139466.000000,6985000.000000
15154029.000000,6980724.000000
15154994.000000,6975261.000000
15113459.000000,6832295.000000
15107311.000000,6818087.000000
15031655.000000,6690161.000000
15022164.000000,6677925.000000
14917075.000000,6572836.000000
14904839.000000,6563345.000000
14776913.000000,6487689.000000
14762705.000000,6481541.000000
14618579.000000,6439669.000000
14606174.000000,6437403.000000
14578077.000000,6435192.000000
14573197.000000,6435000.000000
13940330.000000,6435000.000000
13925331.000000,6439404.000000
13924144.000000,6440774.000000
13922500.000000,6448332.000000
13922500.000000,6967170.000000
13422500.000000,6967170.000000
13422500.000000,6452830.000000
13418096.000000,6437831.000000
13416726.000000,6436644.000000
13409168.000000,6435000.000000
12771803.000000,6435000.000000
12766923.000000,6435192.000000
12738826.000000,6437403.000000
12726421.000000,6439669.000000
12582295.000000,6481541.000000
12568087.000000,6487689.000000
12440161.000000,6563345.000000
12427925.000000,6572836.000000
12322836.000000,6677925.000000
12313345.000000,6690161.000000
12237689.000000,6818087.000000
12231541.000000,6832295.000000
12190461.000000,6973694.000000
10821969.000000,6973694.000000
11867299.000000,5928364.000000
11875484.000000,5920915.000000
11881877.000000,5916858.000000
11927901.000000,5867848.000000
11930611.000000,5865052.000000
11950120.000000,5845543.000000
11952585.000000,5842365.000000
11960167.000000,5833488.000000
11984720.000000,5807343.000000
11984722.000000,5807341.000000
11990062.000000,5801654.000000
11999713.000000,5784099.000000
12010397.000000,5767834.000000
12017890.000000,5758175.000000
12017892.000000,5758171.000000
12022673.000000,5752008.000000
12025771.000000,5744848.000000
12025775.000000,5744842.000000
12040022.000000,5711919.000000
12045161.000000,5701429.000000
12062438.000000,5670002.000000
12062439.000000,5670001.000000
12066197.000000,5663164.000000
12071178.000000,5643765.000000
12077479.000000,5625360.000000
12085438.000000,5606968.000000
12092270.000000,5563832.000000
12094638.000000,5552394.000000
12105500.000000,5510091.000000
12105500.000000,5490055.000000
12107025.000000,5470670.000000
12110160.000000,5450876.000000
12106050.000000,5407396.000000
12105500.000000,5395727.000000
12105500.000000,4862170.000000
16480000.000000,4862170.000000
16484404.000000,4877169.000000
16485774.000000,4878356.000000
16493332.000000,4880000.000000
17562170.000000,4880000.000000
17577169.000000,4875596.000000
17578356.000000,4874226.000000
17580000.000000,4866668.000000
17580000.000000,4862170.000000
18080000.000000,4862170.000000
18084404.000000,4877169.000000
18085774.000000,4878356.000000
18093332.000000,4880000.000000
19162170.000000,4880000.000000
19177169.000000,4875596.000000
19178356.000000,4874226.000000
19180000.000000,4866668.000000
19180000.000000,4236028.000000
19179637.000000,4229331.000000
19174197.000000,4179256.000000
19170629.000000,4164247.000000
19126183.000000,4045689.000000
19117788.000000,4030354.000000
19042484.000000,3929876.000000
19030124.000000,3917516.000000
18929646.000000,3842212.000000
18914311.000000,3833817.000000
18795753.000000,3789371.000000
18780744.000000,3785803.000000
18730669.000000,3780363.000000
18723972.000000,3780000.000000
18097830.000000,3780000.000000
18082831.000000,3784404.000000
18081644.000000,3785774.000000
18080000.000000,3793332.000000
18080000.000000,4862170.000000
17580000.000000,4862170.000000
17580000.000000,3797830.000000
17575596.000000,3782831.000000
17574226.000000,3781644.000000
17566668.000000,3780000.000000
16936028.000000,3780000.000000
16929331.000000,3780363.000000
16879256.000000,3785803.000000
16864247.000000,3789371.000000
16745689.000000,3833817.000000
16730354.000000,3842212.000000
16629876.000000,3917516.000000
16617516.000000,3929876.000000
16542212.000000,4030354.000000
16533817.000000,4045689.000000
16489371.000000,4164247.000000
16485803.000000,4179256.000000
16480363.000000,4229331.000000
16480000.000000,4236028.000000
16480000.000000,4862170.000000
12105500.000000,4862170.000000
12105500.000000,3865228.000000
12125185.000000,3798189.000000
12158376.000000,3763653.000000
12285969.000000,3674311.000000
12351401.000000,3628495.000000
12473595.000000,3506301.000000
12534918.000000,3472816.000000
12604610.000000,3477800.000000
12660543.000000,3519672.000000
12677385.000000,3550454.000000
12723818.000000,3674313.000000
12732212.000000,3689646.000000
12807516.000000,3790124.000000
12819876.000000,3802484.000000
12920354.000000,3877788.000000
12935689.000000,3886183.000000
13054247.000000,3930629.000000
13069256.000000,3934197.000000
13119331.000000,3939637.000000
13126028.000000,3940000.000000
13752170.000000,3940000.000000
13767169.000000,3935596.000000
13768356.000000,3934226.000000
13770000.000000,3926668.000000
13770000.000000,3922170.000000
14270000.000000,3922170.000000
14274404.000000,3937169.000000
14275774.000000,3938356.000000
14283332.000000,3940000.000000
14913972.000000,3940000.000000
14920669.000000,3939637.000000
14970744.000000,3934197.000000
14985753.000000,3930629.000000
15104311.000000,3886183.000000
15119646.000000,3877788.000000
15220124.000000,3802484.000000
15232484.000000,3790124.000000
15307788.000000,3689646.000000
15316183.000000,3674311.000000
15360629.000000,3555753.000000
15364197.000000,3540744.000000
15369637.000000,3490669.000000
15370000.000000,3483972.000000
15370000.000000,2857830.000000
15365596.000000,2842831.000000
15364226.000000,2841644.000000
15356668.000000,2840000.000000
14287830.000000,2840000.000000
14272831.000000,2844404.000000
14271644.000000,2845774.000000
14270000.000000,2853332.000000
14270000.000000,3922170.000000
13770000.000000,3922170.000000
13770000.000000,2322170.000000
14270000.000000,2322170.000000
14274404.000000,2337169.000000
14275774.000000,2338356.000000
14283332.000000,2340000.000000
15352170.000000,2340000.000000
15367169.000000,2335596.000000
15368356.000000,2334226.000000
15370000.000000,2326668.000000
15370000.000000,1696028.000000
15369637.000000,1689331.000000
15364197.000000,1639256.000000
15360629.000000,1624247.000000
15316183.000000,1505689.000000
15307788.000000,1490354.000000
15232484.000000,1389876.000000
15220124.000000,1377516.000000
15119646.000000,1302212.000000
15104311.000000,1293817.000000
14985753.000000,1249371.000000
14970744.000000,1245803.000000
14920669.000000,1240363.000000
14913972.000000,1240000.000000
14287830.000000,1240000.000000
14272831.000000,1244404.000000
14271644.000000,1245774.000000
14270000.000000,1253332.000000
14270000.000000,2322170.000000
13770000.000000,2322170.000000
13770000.000000,1257830.000000
13765596.000000,1242831.000000
13764226.000000,1241644.000000
13756668.000000,1240000.000000
13126028.000000,1240000.000000
13119331.000000,1240363.000000
13069256.000000,1245803.000000
13054247.000000,1249371.000000
12935689.000000,1293817.000000
12920354.000000,1302212.000000
12819876.000000,1377516.000000
12807516.000000,1389876.000000
12732212.000000,1490354.000000
12723818.000000,1505687.000000
12677385.000000,1629546.000000
12635421.000000,1685409.000000
12569915.000000,1709717.000000
12501667.000000,1694751.000000
12473595.000000,1673699.000000
12351401.000000,1551505.000000
12157830.000000,1415965.000000
11943663.000000,1316097.000000
11859863.000000,1293643.000000
11720634.000000,1256337.000000
11720631.000000,1256336.000000
11715408.000000,1254937.000000
11710021.000000,1254466.000000
11710017.000000,1254465.000000
11485395.000000,1234813.000000
11480000.000000,1234341.000000
11474605.000000,1234813.000000
11249983.000000,1254465.000000
11249979.000000,1254466.000000
11244592.000000,1254937.000000
11239369.000000,1256336.000000
11239366.000000,1256337.000000
11100137.000000,1293643.000000
11016337.000000,1316097.000000
11011433.000000,1318384.000000
11011427.000000,1318386.000000
10824331.000000,1405631.000000
10802171.000000,1415965.000000
10797734.000000,1419072.000000
10797732.000000,1419073.000000
10613034.000000,1548399.000000
10613033.000000,1548400.000000
10608599.000000,1551505.000000
10441505.000000,1718599.000000
10438403.000000,1723030.000000
10438399.000000,1723034.000000
10311575.000000,1904159.000000
10256998.000000,1947784.000000
10187500.000000,1954978.000000
10125145.000000,1923455.000000
10108425.000000,1904159.000000
9981601.000000,1723034.000000
9981597.000000,1723030.000000
9978495.000000,1718599.000000
9811401.000000,1551505.000000
9617830.000000,1415965.000000
9403663.000000,1316097.000000
9319863.000000,1293643.000000
9180634.000000,1256337.000000
9180631.000000,1256336.000000
9175408.000000,1254937.000000
9170021.000000,1254466.000000
9170017.000000,1254465.000000
8945395.000000,1234813.000000
8940000.000000,1234341.000000
8934605.000000,1234813.000000
8709983.000000,1254465.000000
8709979.000000,1254466.000000
8704592.000000,1254937.000000
8699369.000000,1256336.000000
8699366.000000,1256337.000000
8560137.000000,1293643.000000
8476337.000000,1316097.000000
8471433.000000,1318384.000000
8471427.000000,1318386.000000
8284331.000000,1405631.000000
8262171.000000,1415965.000000
8257734.000000,1419072.000000
8257732.000000,1419073.000000
8073034.000000,1548399.000000
8073033.000000,1548400.000000
8068599.000000,1551505.000000
7901505.000000,1718599.000000
7898403.000000,1723030.000000
7898399.000000,1723034.000000
7771575.000000,1904159.000000
7716998.000000,1947784.000000
7647500.000000,1954978.000000
7585145.000000,1923455.000000
7568425.000000,1904159.000000
7441601.000000,1723034.000000
7441597.000000,1723030.000000
7438495.000000,1718599.000000
7271401.000000,1551505.000000
7077830.000000,1415965.000000
6863663.000000,1316097.000000
6779863.000000,1293643.000000
6640634.000000,1256337.000000
6640631.000000,1256336.000000
6635408.000000,1254937.000000
6630021.000000,1254466.000000
6630017.000000,1254465.000000
6405395.000000,1234813.000000
6400000.000000,1234341.000000
6394605.000000,1234813.000000
6169983.000000,1254465.000000
6169979.000000,1254466.000000
6164592.000000,1254937.000000
6159369.000000,1256336.000000
6159366.000000,1256337.000000
6020137.000000,1293643.000000
5936337.000000,1316097.000000
5931433.000000,1318384.000000
5931427.000000,1318386.000000
5744331.000000,1405631.000000
5722171.000000,1415965.000000
5717734.000000,1419072.000000
5717732.000000,1419073.000000
5533034.000000,1548399.000000
5533033.000000,1548400.000000
5528599.000000,1551505.000000
5361505.000000,1718599.000000
5358403.000000,1723030.000000
5358399.000000,1723034.000000
5231575.000000,1904159.000000
5225965.000000,1912171.000000
5223675.000000,1917082.000000
5128386.000000,2121427.000000
5128384.000000,2121433.000000
5126097.000000,2126337.000000
5064937.000000,2354592.000000
5044341.000000,2590000.000000
5064937.000000,2825408.000000
5126097.000000,3053663.000000
5128384.000000,3058567.000000
5128386.000000,3058573.000000
5206004.000000,3225022.000000
5225965.000000,3267829.000000
5229072.000000,3272266.000000
5229073.000000,3272268.000000
5358399.000000,3456966.000000
5358403.000000,3456970.000000
5361505.000000,3461401.000000
5528599.000000,3628495.000000
5722170.000000,3764035.000000
5936337.000000,3863903.000000
5988157.000000,3877788.000000
6030094.000000,3889025.000000
6089754.000000,3925390.000000
6120283.000000,3988237.000000
6122000.000000,4008800.000000
6122000.000000,6310500.000000
6102315.000000,6377539.000000
6049511.000000,6423294.000000
5998000.000000,6434500.000000
5844306.000000,6434500.000000
5807431.000000,6437402.000000
5737710.000000,6457658.000000
5666661.000000,6478300.000000
5649602.000000,6483256.000000
5642888.000000,6487226.000000
5642887.000000,6487227.000000
5628112.000000,6495965.000000
5508135.000000,6566919.000000
5391919.000000,6683135.000000
5387947.000000,6689852.000000
5325899.000000,6794770.000000
5308256.000000,6824602.000000
5262402.000000,6982431.000000
5259500.000000,7019306.000000
5259500.000000,7450694.000000
5262402.000000,7487569.000000
5308256.000000,7645398.000000
5312226.000000,7652112.000000
5312227.000000,7652113.000000
5344925.000000,7707402.000000
5391919.000000,7786865.000000
5397438.000000,7792384.000000
5398690.000000,7793998.000000
5424226.000000,7859034.000000
5410547.000000,7927551.000000
5398690.000000,7946002.000000
5397438.000000,7947616.000000
5391919.000000,7953135.000000
5387948.000000,7959850.000000
5387947.000000,7959851.000000
5317452.000000,8079053.000000
5308256.000000,8094602.000000
5306079.000000,8102095.000000
5298428.000000,8128430.000000
5262402.000000,8252431.000000
5259500.000000,8289306.000000
5259500.000000,8720694.000000
5262402.000000,8757569.000000
5308256.000000,8915398.000000
5312226.000000,8922112.000000
5312227.000000,8922113.000000
5382877.000000,9041576.000000
5391919.000000,9056865.000000
5397438.000000,9062384.000000
5398690.000000,9063998.000000
5424226.000000,9129034.000000
5410547.000000,9197551.000000
5398690.000000,9216002.000000
5397438.000000,9217616.000000
5391919.000000,9223135.000000
5387948.000000,9229850.000000
5387947.000000,9229851.000000
5337952.000000,9314389.000000
5286883.000000,9362072.000000
5218142.000000,9374576.000000
5153552.000000,9347931.000000
5143539.000000,9338949.000000
4568248.000000,8763657.000000
3930238.000000,8125647.000000
3896753.000000,8064324.000000
3898144.000000,8005873.000000
3923663.000000,7910635.000000
3923664.000000,7910629.000000
3925063.000000,7905408.000000
3925781.000000,7897208.000000
3945187.000000,7675395.000000
3945659.000000,7670000.000000
3942851.000000,7637905.000000
3925535.000000,7439983.000000
3925534.000000,7439979.000000
3925063.000000,7434592.000000
3863903.000000,7206337.000000
3861616.000000,7201433.000000
3861614.000000,7201427.000000
3766325.000000,6997082.000000
3764035.000000,6992171.000000
3752195.000000,6975261.000000
3631601.000000,6803034.000000
3631597.000000,6803030.000000
3628495.000000,6798599.000000
3506301.000000,6676405.000000
3472816.000000,6615082.000000
3477800.000000,6545390.000000
3519672.000000,6489457.000000
3550454.000000,6472615.000000
3674313.000000,6426182.000000
3689646.000000,6417788.000000
3790124.000000,6342484.000000
3802484.000000,6330124.000000
3877788.000000,6229646.000000
3886183.000000,6214311.000000
3930629.000000,6095753.000000
3934197.000000,6080744.000000
3939637.000000,6030669.000000
3940000.000000,6023972.000000
3940000.000000,5397830.000000
3935596.000000,5382831.000000
3934226.000000,5381644.000000
3926668.000000,5380000.000000
1257830.000000,5380000.000000
1242831.000000,5384404.000000
1241644.000000,5385774.000000
1240000.000000,5393332.000000
1240000.000000,6023972.000000
1240363.000000,6030669.000000
1245803.000000,6080744.000000
1249371.000000,6095753.000000
1293817.000000,6214311.000000
1302212.000000,6229646.000000
1377516.000000,6330124.000000
1389876.000000,6342484.000000
1490354.000000,6417788.000000
1505687.000000,6426182.000000
1629546.000000,6472615.000000
1685409.000000,6514579.000000
1709717.000000,6580085.000000
1694751.000000,6648333.000000
1673699.000000,6676405.000000
1551505.000000,6798599.000000
1548403.000000,6803030.000000
1548399.000000,6803034.000000
1427805.000000,6975261.000000
1415965.000000,6992171.000000
1413675.000000,6997082.000000
1318386.000000,7201427.000000
1318384.000000,7201433.000000
1316097.000000,7206337.000000
1254937.000000,7434592.000000
1254466.000000,7439979.000000
1254465.000000,7439983.000000
1237149.000000,7637905.000000
1234341.000000,7670000.000000
1234813.000000,7675395.000000
1254220.000000,7897208.000000
1254937.000000,7905408.000000
1256336.000000,7910631.000000
1256337.000000,7910634.000000
1260557.000000,7926382.000000
1316097.000000,8133663.000000
1318384.000000,8138567.000000
1318386.000000,8138573.000000
1388675.000000,8289306.000000
1415965.000000,8347829.000000
1419072.000000,8352266.000000
1419073.000000,8352268.000000
1548399.000000,8536966.000000
1548403.000000,8536970.000000
1551505.000000,8541401.000000
1718599.000000,8708495.000000
1819950.000000,8779462.000000
1904159.000000,8838426.000000
1947783.000000,8893003.000000
1954976.000000,8962502.000000
1923454.000000,9024856.000000
1904158.000000,9041576.000000
1723034.000000,9168399.000000
1723033.000000,9168400.000000
1718599.000000,9171505.000000
1551505.000000,9338599.000000
1548403.000000,9343030.000000
1548399.000000,9343034.000000
1427805.000000,9515261.000000
1415965.000000,9532171.000000
1413675.000000,9537082.000000
1318386.000000,9741427.000000
1318384.000000,9741433.000000
1316097.000000,9746337.000000
1254937.000000,9974592.000000
1254466.000000,9979979.000000
1254465.000000,9979983.000000
1237149.000000,10177905.000000
1234341.000000,10210000.000000
1234813.000000,10215395.000000
1252799.000000,10420966.000000
1254937.000000,10445408.000000
1256336.000000,10450631.000000
1256337.000000,10450634.000000
1260761.000000,10467143.000000
1316097.000000,10673663.000000
1318384.000000,10678567.000000
1318386.000000,10678573.000000
1388675.000000,10829306.000000
1415965.000000,10887829.000000
1419072.000000,10892266.000000
1419073.000000,10892268.000000
1548399.000000,11076966.000000
1548403.000000,11076970.000000
1551505.000000,11081401.000000
1718599.000000,11248495.000000
1819950.000000,11319462.000000
1904159.000000,11378426.000000
1947783.000000,11433003.000000
1954976.000000,11502502.000000
1923454.000000,11564856.000000
1904158.000000,11581576.000000
1723034.000000,11708399.000000
1723033.000000,11708400.000000
1718599.000000,11711505.000000
1551505.000000,11878599.000000
1548403.000000,11883030.000000
1548399.000000,11883034.000000
1427048.000000,12056343.000000
1415965.000000,12072171.000000
1413675.000000,12077082.000000
1318386.000000,12281427.000000
1318384.000000,12281433.000000
1316097.000000,12286337.000000
1254937.000000,12514592.000000
1254466.000000,12519979.000000
1254465.000000,12519983.000000
1240918.000000,12674829.000000
1234341.000000,12750000.000000
1234813.000000,12755395.000000
1252799.000000,12960966.000000
1254937.000000,12985408.000000
1256336.000000,12990631.000000
1256337.000000,12990634.000000
1257141.000000,12993634.000000
1316097.000000,13213663.000000
1318384.000000,13218567.000000
1318386.000000,13218573.000000
1388675.000000,13369306.000000
1415965.000000,13427829.000000
1419072.000000,13432266.000000
1419073.000000,13432268.000000
1548399.000000,13616966.000000
1548403.000000,13616970.000000
1551505.000000,13621401.000000
1718599.000000,13788495.000000
1819950.000000,13859462.000000
1904159.000000,13918426.000000
1947783.000000,13973003.000000
1954976.000000,14042502.000000
1923454.000000,14104856.000000
1904158.000000,14121576.000000
1723034.000000,14248399.000000
1723033.000000,14248400.000000
1718599.000000,14251505.000000
1551505.000000,14418599.000000
1548403.000000,14423030.000000
1548399.000000,14423034.000000
1427048.000000,14596343.000000
1415965.000000,14612171.000000
1413675.000000,14617082.000000
1318386.000000,14821427.000000
1318384.000000,14821433.000000
1316097.000000,14826337.000000
1254937.000000,15054592.000000
1254466.000000,15059979.000000
1254465.000000,15059983.000000
1250302.000000,15107569.000000
1234341.000000,15290000.000000
550500.000000,15290000.000000
550500.000000,4862170.000000
1240000.000000,4862170.000000
1244404.000000,4877169.000000
1245774.000000,4878356.000000
1253332.000000,4880000.000000
2322170.000000,4880000.000000
2337169.000000,4875596.000000
2338356.000000,4874226.000000
2340000.000000,4866668.000000
2340000.000000,4862170.000000
2840000.000000,4862170.000000
2844404.000000,4877169.000000
2845774.000000,4878356.000000
2853332.000000,4880000.000000
3922170.000000,4880000.000000
3937169.000000,4875596.000000
3938356.000000,4874226.000000
3940000.000000,4866668.000000
3940000.000000,4236028.000000
3939637.000000,4229331.000000
3934197.000000,4179256.000000
3930629.000000,4164247.000000
3886183.000000,4045689.000000
3877788.000000,4030354.000000
3802484.000000,3929876.000000
3790124.000000,3917516.000000
3689646.000000,3842212.000000
3674311.000000,3833817.000000
3555753.000000,3789371.000000
3540744.000000,3785803.000000
3490669.000000,3780363.000000
3483972.000000,3780000.000000
2857830.000000,3780000.000000
2842831.000000,3784404.000000
2841644.000000,3785774.000000
2840000.000000,3793332.000000
2840000.000000,4862170.000000
2340000.000000,4862170.000000
2340000.000000,3797830.000000
2335596.000000,3782831.000000
2334226.000000,3781644.000000
2326668.000000,3780000.000000
1696028.000000,3780000.000000
1689331.000000,3780363.000000
1639256.000000,3785803.000000
1624247.000000,3789371.000000
1505689.000000,3833817.000000
1490354.000000,3842212.000000
1389876.000000,3917516.000000
1377516.000000,3929876.000000
1302212.000000,4030354.000000
1293817.000000,4045689.000000
1249371.000000,4164247.000000
1245803.000000,4179256.000000
1240363.000000,4229331.000000
1240000.000000,4236028.000000
1240000.000000,4862170.000000
550500.000000,4862170.000000
550500.000000,674500.000000
570185.000000,607461.000000
622989.000000,561706.000000
674500.000000,550500.000000
19745500.000000,550500.000000
Z" /> 
</g>
</g>
</g>
<g style="fill:#FFFFFF; fill-opacity:1.0; 
stroke:#FFFFFF; stroke-width:1.000000; stroke-opacity:1; 
stroke-linecap:round; stroke-linejoin:round;">
<circle cx="5130000.000000" cy="20370000.000000" r="500000.000000" /> 
</g>
<g style="fill:#FFFFFF; fill-opacity:1.0; 
stroke:#FFFFFF; stroke-width:21200.000000; stroke-opacity:1; 
stroke-linecap:round; stroke-linejoin:round;">
</g>
<g style="fill:#FFFFFF; fill-opacity:1.0; 
stroke:#FFFFFF; stroke-width:1.000000; stroke-opacity:1; 
stroke-linecap:round; stroke-linejoin:round;">
<circle cx="7670000.000000" cy="20370000.000000" r="500000.000000" /> 
</g>
<g style="fill:#FFFFFF; fill-opacity:1.0; 
stroke:#FFFFFF; stroke-width:21200.000000; stroke-opacity:1; 
stroke-linecap:round; stroke-linejoin:round;">
</g>
<g style="fill:#FFFFFF; fill-opacity:1.0; 
stroke:#FFFFFF; stroke-width:1.000000; stroke-opacity:1; 
stroke-linecap:round; stroke-linejoin:round;">
<circle cx="10210000.000000" cy="20370000.000000" r="500000.000000" /> 
</g>
<g style="fill:#FFFFFF; fill-opacity:1.0; 
stroke:#FFFFFF; stroke-width:21200.000000; stroke-opacity:1; 
stroke-linecap:round; stroke-linejoin:round;">
</g>
<g style="fill:#FFFFFF; fill-opacity:1.0; 
stroke:#FFFFFF; stroke-width:1.000000; stroke-opacity:1; 
stroke-linecap:round; stroke-linejoin:round;">
<circle cx="17830000.000000" cy="5130000.000000" r="500000.000000" /> 
</g>
<g style="fill:#FFFFFF; fill-opacity:1.0; 
stroke:#FFFFFF; stroke-width:21200.000000; stroke-opacity:1; 
stroke-linecap:round; stroke-linejoin:round;">
</g>
<g style="fill:#FFFFFF; fill-opacity:1.0; 
stroke:#FFFFFF; stroke-width:1.000000; stroke-opacity:1; 
stroke-linecap:round; stroke-linejoin:round;">
<circle cx="17830000.000000" cy="7670000.000000" r="500000.000000" /> 
</g>
<g style="fill:#FFFFFF; fill-opacity:1.0; 
stroke:#FFFFFF; stroke-width:21200.000000; stroke-opacity:1; 
stroke-linecap:round; stroke-linejoin:round;">
</g>
<g style="fill:#FFFFFF; fill-opacity:1.0; 
stroke:#FFFFFF; stroke-width:1.000000; stroke-opacity:1; 
stroke-linecap:round; stroke-linejoin:round;">
<circle cx="17830000.000000" cy="10210000.000000" r="500000.000000" /> 
</g>
<g style="fill:#FFFFFF; fill-opacity:1.0; 
stroke:#FFFFFF; stroke-width:21200.000000; stroke-opacity:1; 
stroke-linecap:round; stroke-linejoin:round;">
</g>
<g style="fill:#FFFFFF; fill-opacity:1.0; 
stroke:#FFFFFF; stroke-width:1.000000; stroke-opacity:1; 
stroke-linecap:round; stroke-linejoin:round;">
<circle cx="17830000.000000" cy="12750000.000000" r="500000.000000" /> 
</g>
<g style="fill:#FFFFFF; fill-opacity:1.0; 
stroke:#FFFFFF; stroke-width:21200.000000; stroke-opacity:1; 
stroke-linecap:round; stroke-linejoin:round;">
</g>
<g style="fill:#FFFFFF; fill-opacity:1.0; 
stroke:#FFFFFF; stroke-width:1.000000; stroke-opacity:1; 
stroke-linecap:round; stroke-linejoin:round;">
<circle cx="17830000.000000" cy="15290000.000000" r="500000.000000" /> 
</g>
<g style="fill:#FFFFFF; fill-opacity:1.0; 
stroke:#FFFFFF; stroke-width:21200.000000; stroke-opacity:1; 
stroke-linecap:round; stroke-linejoin:round;">
</g>
<g style="fill:#FFFFFF; fill-opacity:1.0; 
stroke:#FFFFFF; stroke-width:1.000000; stroke-opacity:1; 
stroke-linecap:round; stroke-linejoin:round;">
<circle cx="2590000.000000" cy="5130000.000000" r="500000.000000" /> 
</g>
<g style="fill:#FFFFFF; fill-opacity:1.0; 
stroke:#FFFFFF; stroke-width:21200.000000; stroke-opacity:1; 
stroke-linecap:round; stroke-linejoin:round;">
</g>
<g style="fill:#FFFFFF; fill-opacity:1.0; 
stroke:#FFFFFF; stroke-width:1.000000; stroke-opacity:1; 
stroke-linecap:round; stroke-linejoin:round;">
<circle cx="2590000.000000" cy="7670000.000000" r="500000.000000" /> 
</g>
<g style="fill:#FFFFFF; fill-opacity:1.0; 
stroke:#FFFFFF; stroke-width:21200.000000; stroke-opacity:1; 
stroke-linecap:round; stroke-linejoin:round;">
</g>
<g style="fill:#FFFFFF; fill-opacity:1.0; 
stroke:#FFFFFF; stroke-width:1.000000; stroke-opacity:1; 
stroke-linecap:round; stroke-linejoin:round;">
<circle cx="2590000.000000" cy="10210000.000000" r="500000.000000" /> 
</g>
<g style="fill:#FFFFFF; fill-opacity:1.0; 
stroke:#FFFFFF; stroke-width:21200.000000; stroke-opacity:1; 
stroke-linecap:round; stroke-linejoin:round;">
</g>
<g style="fill:#FFFFFF; fill-opacity:1.0; 
stroke:#FFFFFF; stroke-width:1.000000; stroke-opacity:1; 
stroke-linecap:round; stroke-linejoin:round;">
<circle cx="2590000.000000" cy="12750000.000000" r="500000.000000" /> 
</g>
<g style="fill:#FFFFFF; fill-opacity:1.0; 
stroke:#FFFFFF; stroke-width:21200.000000; stroke-opacity:1; 
stroke-linecap:round; stroke-linejoin:round;">
</g>
<g style="fill:#FFFFFF; fill-opacity:1.0; 
stroke:#FFFFFF; stroke-width:1.000000; stroke-opacity:1; 
stroke-linecap:round; stroke-linejoin:round;">
<circle cx="2590000.000000" cy="15290000.000000" r="500000.000000" /> 
</g>
<g style="fill:#FFFFFF; fill-opacity:1.0; 
stroke:#FFFFFF; stroke-width:21200.000000; stroke-opacity:1; 
stroke-linecap:round; stroke-linejoin:round;">
</g>
<g style="fill:#FFFFFF; fill-opacity:1.0; 
stroke:#FFFFFF; stroke-width:1.000000; stroke-opacity:1; 
stroke-linecap:round; stroke-linejoin:round;">
<circle cx="14020000.000000" cy="2590000.000000" r="500000.000000" /> 
</g>
<g style="fill:#FFFFFF; fill-opacity:1.0; 
stroke:#FFFFFF; stroke-width:21200.000000; stroke-opacity:1; 
stroke-linecap:round; stroke-linejoin:round;">
</g>
<g style="fill:#FFFFFF; fill-opacity:1.0; 
stroke:#FFFFFF; stroke-width:1.000000; stroke-opacity:1; 
stroke-linecap:round; stroke-linejoin:round;">
<circle cx="11480000.000000" cy="2590000.000000" r="500000.000000" /> 
</g>
<g style="fill:#FFFFFF; fill-opacity:1.0; 
stroke:#FFFFFF; stroke-width:21200.000000; stroke-opacity:1; 
stroke-linecap:round; stroke-linejoin:round;">
</g>
<g style="fill:#FFFFFF; fill-opacity:1.0; 
stroke:#FFFFFF; stroke-width:1.000000; stroke-opacity:1; 
stroke-linecap:round; stroke-linejoin:round;">
<circle cx="8940000.000000" cy="2590000.000000" r="500000.000000" /> 
</g>
<g style="fill:#FFFFFF; fill-opacity:1.0; 
stroke:#FFFFFF; stroke-width:21200.000000; stroke-opacity:1; 
stroke-linecap:round; stroke-linejoin:round;">
</g>
<g style="fill:#FFFFFF; fill-opacity:1.0; 
stroke:#FFFFFF; stroke-width:1.000000; stroke-opacity:1; 
stroke-linecap:round; stroke-linejoin:round;">
<circle cx="6400000.000000" cy="2590000.000000" r="500000.000000" /> 
</g>
<g style="fill:#FFFFFF; fill-opacity:1.0; 
stroke:#FFFFFF; stroke-width:21200.000000; stroke-opacity:1; 
stroke-linecap:round; stroke-linejoin:round;">
</g>
<g style="fill:#FFFFFF; fill-opacity:1.0; 
stroke:#FFFFFF; stroke-width:1.000000; stroke-opacity:1; 
stroke-linecap:round; stroke-linejoin:round;">
<circle cx="17830000.000000" cy="20370000.000000" r="500000.000000" /> 
</g>
<g style="fill:#FFFFFF; fill-opacity:1.0; 
stroke:#FFFFFF; stroke-width:21200.000000; stroke-opacity:1; 
stroke-linecap:round; stroke-linejoin:round;">
</g>
<g style="fill:#FFFFFF; fill-opacity:1.0; 
stroke:#FFFFFF; stroke-width:1.000000; stroke-opacity:1; 
stroke-linecap:round; stroke-linejoin:round;">
<circle cx="15290000.000000" cy="20370000.000000" r="500000.000000" /> 
</g>
<g style="fill:#FFFFFF; fill-opacity:1.0; 
stroke:#FFFFFF; stroke-width:21200.000000; stroke-opacity:1; 
stroke-linecap:round; stroke-linejoin:round;">
</g>
<g style="fill:#000000; fill-opacity:1.0; 
stroke:#000000; stroke-width:21200.000000; stroke-opacity:1; 
stroke-linecap:round; stroke-linejoin:round;">
</g> 
</svg>
