M48
; DRILL file {KiCad 7.0.5} date Sun Jun 25 14:15:46 2023
; FORMAT={-:-/ absolute / metric / decimal}
; #@! TF.CreationDate,2023-06-25T14:15:46+02:00
; #@! TF.GenerationSoftware,Kicad,Pcbnew,7.0.5
; #@! TF.FileFunction,MixedPlating,1,2
FMAT,2
METRIC
; #@! TA.AperFunction,Plated,PTH,ComponentDrill
T1C0.800
; #@! TA.AperFunction,Plated,PTH,ComponentDrill
T2C1.000
; #@! TA.AperFunction,NonPlated,NPTH,ComponentDrill
T3C3.200
%
G90
G05
T1
X96.52Y-43.18
X96.52Y-55.88
X96.52Y-78.74
X96.52Y-91.44
X96.52Y-114.3
X96.52Y-127.0
X99.06Y-43.18
X99.06Y-55.88
X99.06Y-78.74
X99.06Y-91.44
X99.06Y-114.3
X99.06Y-127.0
X101.6Y-43.18
X101.6Y-55.88
X101.6Y-78.74
X101.6Y-91.44
X101.6Y-114.3
X101.6Y-127.0
X104.14Y-43.18
X104.14Y-55.88
X104.14Y-78.74
X104.14Y-91.44
X104.14Y-114.3
X104.14Y-127.0
X106.68Y-43.18
X106.68Y-55.88
X106.68Y-78.74
X106.68Y-91.44
X106.68Y-114.3
X106.68Y-127.0
X109.22Y-43.18
X109.22Y-55.88
X109.22Y-78.74
X109.22Y-91.44
X109.22Y-114.3
X109.22Y-127.0
X111.76Y-43.18
X111.76Y-55.88
X111.76Y-78.74
X111.76Y-91.44
X111.76Y-114.3
X111.76Y-127.0
X114.3Y-43.18
X114.3Y-55.88
X114.3Y-78.74
X114.3Y-91.44
X114.3Y-114.3
X114.3Y-127.0
X142.24Y-43.18
X142.24Y-55.88
X142.24Y-78.74
X142.24Y-91.44
X142.24Y-114.3
X142.24Y-127.0
X144.78Y-43.18
X144.78Y-55.88
X144.78Y-78.74
X144.78Y-91.44
X144.78Y-114.3
X144.78Y-127.0
X147.32Y-43.18
X147.32Y-55.88
X147.32Y-78.74
X147.32Y-91.44
X147.32Y-114.3
X147.32Y-127.0
X149.86Y-43.18
X149.86Y-55.88
X149.86Y-78.74
X149.86Y-91.44
X149.86Y-114.3
X149.86Y-127.0
X152.4Y-43.18
X152.4Y-55.88
X152.4Y-78.74
X152.4Y-91.44
X152.4Y-114.3
X152.4Y-127.0
X154.94Y-43.18
X154.94Y-55.88
X154.94Y-78.74
X154.94Y-91.44
X154.94Y-114.3
X154.94Y-127.0
X157.48Y-43.18
X157.48Y-55.88
X157.48Y-78.74
X157.48Y-91.44
X157.48Y-114.3
X157.48Y-127.0
X160.02Y-43.18
X160.02Y-55.88
X160.02Y-78.74
X160.02Y-91.44
X160.02Y-114.3
X160.02Y-127.0
X172.72Y-53.38
X172.72Y-55.88
T2
X88.9Y-35.56
X88.9Y-38.1
X88.9Y-40.64
X88.9Y-43.18
X88.9Y-48.26
X88.9Y-53.34
X88.9Y-55.88
X88.9Y-58.42
X88.9Y-60.96
X88.9Y-71.12
X88.9Y-73.66
X88.9Y-76.2
X88.9Y-78.74
X88.9Y-83.82
X88.9Y-88.9
X88.9Y-91.44
X88.9Y-93.98
X88.9Y-96.52
X88.9Y-106.68
X88.9Y-109.22
X88.9Y-111.76
X88.9Y-114.3
X88.9Y-119.38
X88.9Y-124.46
X88.9Y-127.0
X88.9Y-129.54
X88.9Y-132.08
X109.22Y-35.56
X109.22Y-71.12
X109.22Y-106.68
X111.76Y-35.56
X111.76Y-71.12
X111.76Y-106.68
X114.3Y-35.56
X114.3Y-71.12
X114.3Y-106.68
X134.62Y-35.56
X134.62Y-38.1
X134.62Y-40.64
X134.62Y-43.18
X134.62Y-48.26
X134.62Y-53.34
X134.62Y-55.88
X134.62Y-58.42
X134.62Y-60.96
X134.62Y-71.12
X134.62Y-73.66
X134.62Y-76.2
X134.62Y-78.74
X134.62Y-83.82
X134.62Y-88.9
X134.62Y-91.44
X134.62Y-93.98
X134.62Y-96.52
X134.62Y-106.68
X134.62Y-109.22
X134.62Y-111.76
X134.62Y-114.3
X134.62Y-119.38
X134.62Y-124.46
X134.62Y-127.0
X134.62Y-129.54
X134.62Y-132.08
X154.94Y-35.56
X154.94Y-71.12
X154.94Y-106.68
X157.48Y-35.56
X157.48Y-71.12
X157.48Y-106.68
X160.02Y-35.56
X160.02Y-71.12
X160.02Y-106.68
X180.34Y-53.34
X180.34Y-55.88
T3
X73.66Y-30.48
X73.66Y-137.16
X180.34Y-30.48
X180.34Y-137.16
T0
M30
