G04 #@! TF.GenerationSoftware,KiCad,Pcbnew,7.0.5*
G04 #@! TF.CreationDate,2023-06-25T15:25:37+02:00*
G04 #@! TF.ProjectId,pcb_6_muxes,7063625f-365f-46d7-9578-65732e6b6963,rev?*
G04 #@! TF.SameCoordinates,PX3efb0c0PY15cd0e0*
G04 #@! TF.FileFunction,Copper,L2,Bot*
G04 #@! TF.FilePolarity,Positive*
%FSLAX46Y46*%
G04 Gerber Fmt 4.6, Leading zero omitted, Abs format (unit mm)*
G04 Created by KiCad (PCBNEW 7.0.5) date 2023-06-25 15:25:37*
%MOMM*%
%LPD*%
G01*
G04 APERTURE LIST*
G04 #@! TA.AperFunction,ComponentPad*
%ADD10R,1.700000X1.700000*%
G04 #@! TD*
G04 #@! TA.AperFunction,ComponentPad*
%ADD11O,1.700000X1.700000*%
G04 #@! TD*
G04 #@! TA.AperFunction,ComponentPad*
%ADD12R,1.600000X2.400000*%
G04 #@! TD*
G04 #@! TA.AperFunction,ComponentPad*
%ADD13O,1.600000X2.400000*%
G04 #@! TD*
G04 #@! TA.AperFunction,ComponentPad*
%ADD14C,1.600000*%
G04 #@! TD*
G04 #@! TA.AperFunction,Conductor*
%ADD15C,1.000000*%
G04 #@! TD*
G04 APERTURE END LIST*
D10*
G04 #@! TO.P,JIn10,1,Pin_1*
G04 #@! TO.N,Net-(JIn10-Pin_1)*
X68580000Y-66040000D03*
D11*
G04 #@! TO.P,JIn10,2,Pin_2*
G04 #@! TO.N,Net-(JIn10-Pin_2)*
X68580000Y-68580000D03*
G04 #@! TO.P,JIn10,3,Pin_3*
G04 #@! TO.N,Net-(JIn10-Pin_3)*
X68580000Y-71120000D03*
G04 #@! TO.P,JIn10,4,Pin_4*
G04 #@! TO.N,Net-(JIn10-Pin_4)*
X68580000Y-73660000D03*
G04 #@! TD*
D10*
G04 #@! TO.P,JIn9,1,Pin_1*
G04 #@! TO.N,Net-(JIn9-Pin_1)*
X68580000Y-48260000D03*
D11*
G04 #@! TO.P,JIn9,2,Pin_2*
G04 #@! TO.N,Net-(JIn9-Pin_2)*
X68580000Y-50800000D03*
G04 #@! TO.P,JIn9,3,Pin_3*
G04 #@! TO.N,Net-(JIn9-Pin_3)*
X68580000Y-53340000D03*
G04 #@! TO.P,JIn9,4,Pin_4*
G04 #@! TO.N,Net-(JIn9-Pin_4)*
X68580000Y-55880000D03*
G04 #@! TD*
D10*
G04 #@! TO.P,JIn1,1,Pin_1*
G04 #@! TO.N,Net-(JIn1-Pin_1)*
X22860000Y-12700000D03*
D11*
G04 #@! TO.P,JIn1,2,Pin_2*
G04 #@! TO.N,Net-(JIn1-Pin_2)*
X22860000Y-15240000D03*
G04 #@! TO.P,JIn1,3,Pin_3*
G04 #@! TO.N,Net-(JIn1-Pin_3)*
X22860000Y-17780000D03*
G04 #@! TO.P,JIn1,4,Pin_4*
G04 #@! TO.N,Net-(JIn1-Pin_4)*
X22860000Y-20320000D03*
G04 #@! TD*
D10*
G04 #@! TO.P,JIn11,1,Pin_1*
G04 #@! TO.N,Net-(JIn11-Pin_1)*
X68580000Y-83820000D03*
D11*
G04 #@! TO.P,JIn11,2,Pin_2*
G04 #@! TO.N,Net-(JIn11-Pin_2)*
X68580000Y-86360000D03*
G04 #@! TO.P,JIn11,3,Pin_3*
G04 #@! TO.N,Net-(JIn11-Pin_3)*
X68580000Y-88900000D03*
G04 #@! TO.P,JIn11,4,Pin_4*
G04 #@! TO.N,Net-(JIn11-Pin_4)*
X68580000Y-91440000D03*
G04 #@! TD*
D12*
G04 #@! TO.P,U6,1,A4*
G04 #@! TO.N,Net-(JIn12-Pin_1)*
X76200000Y-104140000D03*
D13*
G04 #@! TO.P,U6,2,A6*
G04 #@! TO.N,Net-(JIn12-Pin_3)*
X78740000Y-104140000D03*
G04 #@! TO.P,U6,3,A*
G04 #@! TO.N,Net-(JOut6-Pin_1)*
X81280000Y-104140000D03*
G04 #@! TO.P,U6,4,A7*
G04 #@! TO.N,Net-(JIn12-Pin_4)*
X83820000Y-104140000D03*
G04 #@! TO.P,U6,5,A5*
G04 #@! TO.N,Net-(JIn12-Pin_2)*
X86360000Y-104140000D03*
G04 #@! TO.P,U6,6,~{E}*
G04 #@! TO.N,GND*
X88900000Y-104140000D03*
G04 #@! TO.P,U6,7,VEE*
X91440000Y-104140000D03*
G04 #@! TO.P,U6,8,GND*
X93980000Y-104140000D03*
G04 #@! TO.P,U6,9,S2*
G04 #@! TO.N,Net-(JSel6-Pin_3)*
X93980000Y-91440000D03*
G04 #@! TO.P,U6,10,S1*
G04 #@! TO.N,Net-(JSel6-Pin_2)*
X91440000Y-91440000D03*
G04 #@! TO.P,U6,11,S0*
G04 #@! TO.N,Net-(JSel6-Pin_1)*
X88900000Y-91440000D03*
G04 #@! TO.P,U6,12,A3*
G04 #@! TO.N,Net-(JIn11-Pin_4)*
X86360000Y-91440000D03*
G04 #@! TO.P,U6,13,A0*
G04 #@! TO.N,Net-(JIn11-Pin_1)*
X83820000Y-91440000D03*
G04 #@! TO.P,U6,14,A1*
G04 #@! TO.N,Net-(JIn11-Pin_2)*
X81280000Y-91440000D03*
G04 #@! TO.P,U6,15,A2*
G04 #@! TO.N,Net-(JIn11-Pin_3)*
X78740000Y-91440000D03*
G04 #@! TO.P,U6,16,VCC*
G04 #@! TO.N,VCC*
X76200000Y-91440000D03*
G04 #@! TD*
D12*
G04 #@! TO.P,U4,1,A4*
G04 #@! TO.N,Net-(JIn8-Pin_1)*
X76200000Y-33020000D03*
D13*
G04 #@! TO.P,U4,2,A6*
G04 #@! TO.N,Net-(JIn8-Pin_3)*
X78740000Y-33020000D03*
G04 #@! TO.P,U4,3,A*
G04 #@! TO.N,Net-(JOut4-Pin_1)*
X81280000Y-33020000D03*
G04 #@! TO.P,U4,4,A7*
G04 #@! TO.N,Net-(JIn8-Pin_4)*
X83820000Y-33020000D03*
G04 #@! TO.P,U4,5,A5*
G04 #@! TO.N,Net-(JIn8-Pin_2)*
X86360000Y-33020000D03*
G04 #@! TO.P,U4,6,~{E}*
G04 #@! TO.N,GND*
X88900000Y-33020000D03*
G04 #@! TO.P,U4,7,VEE*
X91440000Y-33020000D03*
G04 #@! TO.P,U4,8,GND*
X93980000Y-33020000D03*
G04 #@! TO.P,U4,9,S2*
G04 #@! TO.N,Net-(JSel4-Pin_3)*
X93980000Y-20320000D03*
G04 #@! TO.P,U4,10,S1*
G04 #@! TO.N,Net-(JSel4-Pin_2)*
X91440000Y-20320000D03*
G04 #@! TO.P,U4,11,S0*
G04 #@! TO.N,Net-(JSel4-Pin_1)*
X88900000Y-20320000D03*
G04 #@! TO.P,U4,12,A3*
G04 #@! TO.N,Net-(JIn7-Pin_4)*
X86360000Y-20320000D03*
G04 #@! TO.P,U4,13,A0*
G04 #@! TO.N,Net-(JIn7-Pin_1)*
X83820000Y-20320000D03*
G04 #@! TO.P,U4,14,A1*
G04 #@! TO.N,Net-(JIn7-Pin_2)*
X81280000Y-20320000D03*
G04 #@! TO.P,U4,15,A2*
G04 #@! TO.N,Net-(JIn7-Pin_3)*
X78740000Y-20320000D03*
G04 #@! TO.P,U4,16,VCC*
G04 #@! TO.N,VCC*
X76200000Y-20320000D03*
G04 #@! TD*
D10*
G04 #@! TO.P,JIn6,1,Pin_1*
G04 #@! TO.N,Net-(JIn6-Pin_1)*
X22860000Y-101600000D03*
D11*
G04 #@! TO.P,JIn6,2,Pin_2*
G04 #@! TO.N,Net-(JIn6-Pin_2)*
X22860000Y-104140000D03*
G04 #@! TO.P,JIn6,3,Pin_3*
G04 #@! TO.N,Net-(JIn6-Pin_3)*
X22860000Y-106680000D03*
G04 #@! TO.P,JIn6,4,Pin_4*
G04 #@! TO.N,Net-(JIn6-Pin_4)*
X22860000Y-109220000D03*
G04 #@! TD*
D12*
G04 #@! TO.P,U1,1,A4*
G04 #@! TO.N,Net-(JIn2-Pin_1)*
X30480000Y-33020000D03*
D13*
G04 #@! TO.P,U1,2,A6*
G04 #@! TO.N,Net-(JIn2-Pin_3)*
X33020000Y-33020000D03*
G04 #@! TO.P,U1,3,A*
G04 #@! TO.N,Net-(JOut1-Pin_1)*
X35560000Y-33020000D03*
G04 #@! TO.P,U1,4,A7*
G04 #@! TO.N,Net-(JIn2-Pin_4)*
X38100000Y-33020000D03*
G04 #@! TO.P,U1,5,A5*
G04 #@! TO.N,Net-(JIn2-Pin_2)*
X40640000Y-33020000D03*
G04 #@! TO.P,U1,6,~{E}*
G04 #@! TO.N,GND*
X43180000Y-33020000D03*
G04 #@! TO.P,U1,7,VEE*
X45720000Y-33020000D03*
G04 #@! TO.P,U1,8,GND*
X48260000Y-33020000D03*
G04 #@! TO.P,U1,9,S2*
G04 #@! TO.N,Net-(JSel1-Pin_3)*
X48260000Y-20320000D03*
G04 #@! TO.P,U1,10,S1*
G04 #@! TO.N,Net-(JSel1-Pin_2)*
X45720000Y-20320000D03*
G04 #@! TO.P,U1,11,S0*
G04 #@! TO.N,Net-(JSel1-Pin_1)*
X43180000Y-20320000D03*
G04 #@! TO.P,U1,12,A3*
G04 #@! TO.N,Net-(JIn1-Pin_4)*
X40640000Y-20320000D03*
G04 #@! TO.P,U1,13,A0*
G04 #@! TO.N,Net-(JIn1-Pin_1)*
X38100000Y-20320000D03*
G04 #@! TO.P,U1,14,A1*
G04 #@! TO.N,Net-(JIn1-Pin_2)*
X35560000Y-20320000D03*
G04 #@! TO.P,U1,15,A2*
G04 #@! TO.N,Net-(JIn1-Pin_3)*
X33020000Y-20320000D03*
G04 #@! TO.P,U1,16,VCC*
G04 #@! TO.N,VCC*
X30480000Y-20320000D03*
G04 #@! TD*
D10*
G04 #@! TO.P,JPow1,1,Pin_1*
G04 #@! TO.N,VCC*
X114300000Y-30480000D03*
D11*
G04 #@! TO.P,JPow1,2,Pin_2*
G04 #@! TO.N,GND*
X114300000Y-33020000D03*
G04 #@! TD*
D10*
G04 #@! TO.P,JIn7,1,Pin_1*
G04 #@! TO.N,Net-(JIn7-Pin_1)*
X68580000Y-12700000D03*
D11*
G04 #@! TO.P,JIn7,2,Pin_2*
G04 #@! TO.N,Net-(JIn7-Pin_2)*
X68580000Y-15240000D03*
G04 #@! TO.P,JIn7,3,Pin_3*
G04 #@! TO.N,Net-(JIn7-Pin_3)*
X68580000Y-17780000D03*
G04 #@! TO.P,JIn7,4,Pin_4*
G04 #@! TO.N,Net-(JIn7-Pin_4)*
X68580000Y-20320000D03*
G04 #@! TD*
D10*
G04 #@! TO.P,JOut4,1,Pin_1*
G04 #@! TO.N,Net-(JOut4-Pin_1)*
X68580000Y-25400000D03*
G04 #@! TD*
D12*
G04 #@! TO.P,U3,1,A4*
G04 #@! TO.N,Net-(JIn6-Pin_1)*
X30480000Y-104140000D03*
D13*
G04 #@! TO.P,U3,2,A6*
G04 #@! TO.N,Net-(JIn6-Pin_3)*
X33020000Y-104140000D03*
G04 #@! TO.P,U3,3,A*
G04 #@! TO.N,Net-(JOut3-Pin_1)*
X35560000Y-104140000D03*
G04 #@! TO.P,U3,4,A7*
G04 #@! TO.N,Net-(JIn6-Pin_4)*
X38100000Y-104140000D03*
G04 #@! TO.P,U3,5,A5*
G04 #@! TO.N,Net-(JIn6-Pin_2)*
X40640000Y-104140000D03*
G04 #@! TO.P,U3,6,~{E}*
G04 #@! TO.N,GND*
X43180000Y-104140000D03*
G04 #@! TO.P,U3,7,VEE*
X45720000Y-104140000D03*
G04 #@! TO.P,U3,8,GND*
X48260000Y-104140000D03*
G04 #@! TO.P,U3,9,S2*
G04 #@! TO.N,Net-(JSel3-Pin_3)*
X48260000Y-91440000D03*
G04 #@! TO.P,U3,10,S1*
G04 #@! TO.N,Net-(JSel3-Pin_2)*
X45720000Y-91440000D03*
G04 #@! TO.P,U3,11,S0*
G04 #@! TO.N,Net-(JSel3-Pin_1)*
X43180000Y-91440000D03*
G04 #@! TO.P,U3,12,A3*
G04 #@! TO.N,Net-(JIn5-Pin_4)*
X40640000Y-91440000D03*
G04 #@! TO.P,U3,13,A0*
G04 #@! TO.N,Net-(JIn5-Pin_1)*
X38100000Y-91440000D03*
G04 #@! TO.P,U3,14,A1*
G04 #@! TO.N,Net-(JIn5-Pin_2)*
X35560000Y-91440000D03*
G04 #@! TO.P,U3,15,A2*
G04 #@! TO.N,Net-(JIn5-Pin_3)*
X33020000Y-91440000D03*
G04 #@! TO.P,U3,16,VCC*
G04 #@! TO.N,VCC*
X30480000Y-91440000D03*
G04 #@! TD*
D10*
G04 #@! TO.P,JIn12,1,Pin_1*
G04 #@! TO.N,Net-(JIn12-Pin_1)*
X68580000Y-101600000D03*
D11*
G04 #@! TO.P,JIn12,2,Pin_2*
G04 #@! TO.N,Net-(JIn12-Pin_2)*
X68580000Y-104140000D03*
G04 #@! TO.P,JIn12,3,Pin_3*
G04 #@! TO.N,Net-(JIn12-Pin_3)*
X68580000Y-106680000D03*
G04 #@! TO.P,JIn12,4,Pin_4*
G04 #@! TO.N,Net-(JIn12-Pin_4)*
X68580000Y-109220000D03*
G04 #@! TD*
D10*
G04 #@! TO.P,JSel5,1,Pin_1*
G04 #@! TO.N,Net-(JSel5-Pin_1)*
X88900000Y-48260000D03*
D11*
G04 #@! TO.P,JSel5,2,Pin_2*
G04 #@! TO.N,Net-(JSel5-Pin_2)*
X91440000Y-48260000D03*
G04 #@! TO.P,JSel5,3,Pin_3*
G04 #@! TO.N,Net-(JSel5-Pin_3)*
X93980000Y-48260000D03*
G04 #@! TD*
D10*
G04 #@! TO.P,JIn3,1,Pin_1*
G04 #@! TO.N,Net-(JIn3-Pin_1)*
X22860000Y-48260000D03*
D11*
G04 #@! TO.P,JIn3,2,Pin_2*
G04 #@! TO.N,Net-(JIn3-Pin_2)*
X22860000Y-50800000D03*
G04 #@! TO.P,JIn3,3,Pin_3*
G04 #@! TO.N,Net-(JIn3-Pin_3)*
X22860000Y-53340000D03*
G04 #@! TO.P,JIn3,4,Pin_4*
G04 #@! TO.N,Net-(JIn3-Pin_4)*
X22860000Y-55880000D03*
G04 #@! TD*
D10*
G04 #@! TO.P,JSel2,1,Pin_1*
G04 #@! TO.N,Net-(JSel2-Pin_1)*
X43180000Y-48260000D03*
D11*
G04 #@! TO.P,JSel2,2,Pin_2*
G04 #@! TO.N,Net-(JSel2-Pin_2)*
X45720000Y-48260000D03*
G04 #@! TO.P,JSel2,3,Pin_3*
G04 #@! TO.N,Net-(JSel2-Pin_3)*
X48260000Y-48260000D03*
G04 #@! TD*
D12*
G04 #@! TO.P,U2,1,A4*
G04 #@! TO.N,Net-(JIn4-Pin_1)*
X30480000Y-68580000D03*
D13*
G04 #@! TO.P,U2,2,A6*
G04 #@! TO.N,Net-(JIn4-Pin_3)*
X33020000Y-68580000D03*
G04 #@! TO.P,U2,3,A*
G04 #@! TO.N,Net-(JOut2-Pin_1)*
X35560000Y-68580000D03*
G04 #@! TO.P,U2,4,A7*
G04 #@! TO.N,Net-(JIn4-Pin_4)*
X38100000Y-68580000D03*
G04 #@! TO.P,U2,5,A5*
G04 #@! TO.N,Net-(JIn4-Pin_2)*
X40640000Y-68580000D03*
G04 #@! TO.P,U2,6,~{E}*
G04 #@! TO.N,GND*
X43180000Y-68580000D03*
G04 #@! TO.P,U2,7,VEE*
X45720000Y-68580000D03*
G04 #@! TO.P,U2,8,GND*
X48260000Y-68580000D03*
G04 #@! TO.P,U2,9,S2*
G04 #@! TO.N,Net-(JSel2-Pin_3)*
X48260000Y-55880000D03*
G04 #@! TO.P,U2,10,S1*
G04 #@! TO.N,Net-(JSel2-Pin_2)*
X45720000Y-55880000D03*
G04 #@! TO.P,U2,11,S0*
G04 #@! TO.N,Net-(JSel2-Pin_1)*
X43180000Y-55880000D03*
G04 #@! TO.P,U2,12,A3*
G04 #@! TO.N,Net-(JIn3-Pin_4)*
X40640000Y-55880000D03*
G04 #@! TO.P,U2,13,A0*
G04 #@! TO.N,Net-(JIn3-Pin_1)*
X38100000Y-55880000D03*
G04 #@! TO.P,U2,14,A1*
G04 #@! TO.N,Net-(JIn3-Pin_2)*
X35560000Y-55880000D03*
G04 #@! TO.P,U2,15,A2*
G04 #@! TO.N,Net-(JIn3-Pin_3)*
X33020000Y-55880000D03*
G04 #@! TO.P,U2,16,VCC*
G04 #@! TO.N,VCC*
X30480000Y-55880000D03*
G04 #@! TD*
D14*
G04 #@! TO.P,C1,1*
G04 #@! TO.N,VCC*
X106680000Y-30520000D03*
G04 #@! TO.P,C1,2*
G04 #@! TO.N,GND*
X106680000Y-33020000D03*
G04 #@! TD*
D10*
G04 #@! TO.P,JIn8,1,Pin_1*
G04 #@! TO.N,Net-(JIn8-Pin_1)*
X68580000Y-30480000D03*
D11*
G04 #@! TO.P,JIn8,2,Pin_2*
G04 #@! TO.N,Net-(JIn8-Pin_2)*
X68580000Y-33020000D03*
G04 #@! TO.P,JIn8,3,Pin_3*
G04 #@! TO.N,Net-(JIn8-Pin_3)*
X68580000Y-35560000D03*
G04 #@! TO.P,JIn8,4,Pin_4*
G04 #@! TO.N,Net-(JIn8-Pin_4)*
X68580000Y-38100000D03*
G04 #@! TD*
D10*
G04 #@! TO.P,JOut3,1,Pin_1*
G04 #@! TO.N,Net-(JOut3-Pin_1)*
X22860000Y-96520000D03*
G04 #@! TD*
G04 #@! TO.P,JSel6,1,Pin_1*
G04 #@! TO.N,Net-(JSel6-Pin_1)*
X88900000Y-83820000D03*
D11*
G04 #@! TO.P,JSel6,2,Pin_2*
G04 #@! TO.N,Net-(JSel6-Pin_2)*
X91440000Y-83820000D03*
G04 #@! TO.P,JSel6,3,Pin_3*
G04 #@! TO.N,Net-(JSel6-Pin_3)*
X93980000Y-83820000D03*
G04 #@! TD*
D10*
G04 #@! TO.P,JSel4,1,Pin_1*
G04 #@! TO.N,Net-(JSel4-Pin_1)*
X88900000Y-12700000D03*
D11*
G04 #@! TO.P,JSel4,2,Pin_2*
G04 #@! TO.N,Net-(JSel4-Pin_2)*
X91440000Y-12700000D03*
G04 #@! TO.P,JSel4,3,Pin_3*
G04 #@! TO.N,Net-(JSel4-Pin_3)*
X93980000Y-12700000D03*
G04 #@! TD*
D10*
G04 #@! TO.P,JSel1,1,Pin_1*
G04 #@! TO.N,Net-(JSel1-Pin_1)*
X43180000Y-12700000D03*
D11*
G04 #@! TO.P,JSel1,2,Pin_2*
G04 #@! TO.N,Net-(JSel1-Pin_2)*
X45720000Y-12700000D03*
G04 #@! TO.P,JSel1,3,Pin_3*
G04 #@! TO.N,Net-(JSel1-Pin_3)*
X48260000Y-12700000D03*
G04 #@! TD*
D10*
G04 #@! TO.P,JOut2,1,Pin_1*
G04 #@! TO.N,Net-(JOut2-Pin_1)*
X22860000Y-60960000D03*
G04 #@! TD*
G04 #@! TO.P,JIn5,1,Pin_1*
G04 #@! TO.N,Net-(JIn5-Pin_1)*
X22860000Y-83820000D03*
D11*
G04 #@! TO.P,JIn5,2,Pin_2*
G04 #@! TO.N,Net-(JIn5-Pin_2)*
X22860000Y-86360000D03*
G04 #@! TO.P,JIn5,3,Pin_3*
G04 #@! TO.N,Net-(JIn5-Pin_3)*
X22860000Y-88900000D03*
G04 #@! TO.P,JIn5,4,Pin_4*
G04 #@! TO.N,Net-(JIn5-Pin_4)*
X22860000Y-91440000D03*
G04 #@! TD*
D12*
G04 #@! TO.P,U5,1,A4*
G04 #@! TO.N,Net-(JIn10-Pin_1)*
X76200000Y-68580000D03*
D13*
G04 #@! TO.P,U5,2,A6*
G04 #@! TO.N,Net-(JIn10-Pin_3)*
X78740000Y-68580000D03*
G04 #@! TO.P,U5,3,A*
G04 #@! TO.N,Net-(JOut5-Pin_1)*
X81280000Y-68580000D03*
G04 #@! TO.P,U5,4,A7*
G04 #@! TO.N,Net-(JIn10-Pin_4)*
X83820000Y-68580000D03*
G04 #@! TO.P,U5,5,A5*
G04 #@! TO.N,Net-(JIn10-Pin_2)*
X86360000Y-68580000D03*
G04 #@! TO.P,U5,6,~{E}*
G04 #@! TO.N,GND*
X88900000Y-68580000D03*
G04 #@! TO.P,U5,7,VEE*
X91440000Y-68580000D03*
G04 #@! TO.P,U5,8,GND*
X93980000Y-68580000D03*
G04 #@! TO.P,U5,9,S2*
G04 #@! TO.N,Net-(JSel5-Pin_3)*
X93980000Y-55880000D03*
G04 #@! TO.P,U5,10,S1*
G04 #@! TO.N,Net-(JSel5-Pin_2)*
X91440000Y-55880000D03*
G04 #@! TO.P,U5,11,S0*
G04 #@! TO.N,Net-(JSel5-Pin_1)*
X88900000Y-55880000D03*
G04 #@! TO.P,U5,12,A3*
G04 #@! TO.N,Net-(JIn9-Pin_4)*
X86360000Y-55880000D03*
G04 #@! TO.P,U5,13,A0*
G04 #@! TO.N,Net-(JIn9-Pin_1)*
X83820000Y-55880000D03*
G04 #@! TO.P,U5,14,A1*
G04 #@! TO.N,Net-(JIn9-Pin_2)*
X81280000Y-55880000D03*
G04 #@! TO.P,U5,15,A2*
G04 #@! TO.N,Net-(JIn9-Pin_3)*
X78740000Y-55880000D03*
G04 #@! TO.P,U5,16,VCC*
G04 #@! TO.N,VCC*
X76200000Y-55880000D03*
G04 #@! TD*
D10*
G04 #@! TO.P,JIn4,1,Pin_1*
G04 #@! TO.N,Net-(JIn4-Pin_1)*
X22860000Y-66040000D03*
D11*
G04 #@! TO.P,JIn4,2,Pin_2*
G04 #@! TO.N,Net-(JIn4-Pin_2)*
X22860000Y-68580000D03*
G04 #@! TO.P,JIn4,3,Pin_3*
G04 #@! TO.N,Net-(JIn4-Pin_3)*
X22860000Y-71120000D03*
G04 #@! TO.P,JIn4,4,Pin_4*
G04 #@! TO.N,Net-(JIn4-Pin_4)*
X22860000Y-73660000D03*
G04 #@! TD*
D10*
G04 #@! TO.P,JOut5,1,Pin_1*
G04 #@! TO.N,Net-(JOut5-Pin_1)*
X68580000Y-60960000D03*
G04 #@! TD*
G04 #@! TO.P,JSel3,1,Pin_1*
G04 #@! TO.N,Net-(JSel3-Pin_1)*
X43180000Y-83820000D03*
D11*
G04 #@! TO.P,JSel3,2,Pin_2*
G04 #@! TO.N,Net-(JSel3-Pin_2)*
X45720000Y-83820000D03*
G04 #@! TO.P,JSel3,3,Pin_3*
G04 #@! TO.N,Net-(JSel3-Pin_3)*
X48260000Y-83820000D03*
G04 #@! TD*
D10*
G04 #@! TO.P,JOut1,1,Pin_1*
G04 #@! TO.N,Net-(JOut1-Pin_1)*
X22860000Y-25400000D03*
G04 #@! TD*
G04 #@! TO.P,JIn2,1,Pin_1*
G04 #@! TO.N,Net-(JIn2-Pin_1)*
X22860000Y-30480000D03*
D11*
G04 #@! TO.P,JIn2,2,Pin_2*
G04 #@! TO.N,Net-(JIn2-Pin_2)*
X22860000Y-33020000D03*
G04 #@! TO.P,JIn2,3,Pin_3*
G04 #@! TO.N,Net-(JIn2-Pin_3)*
X22860000Y-35560000D03*
G04 #@! TO.P,JIn2,4,Pin_4*
G04 #@! TO.N,Net-(JIn2-Pin_4)*
X22860000Y-38100000D03*
G04 #@! TD*
D10*
G04 #@! TO.P,JOut6,1,Pin_1*
G04 #@! TO.N,Net-(JOut6-Pin_1)*
X68580000Y-96520000D03*
G04 #@! TD*
D15*
G04 #@! TO.N,GND*
X88900000Y-68580000D02*
X91440000Y-68580000D01*
X99060000Y-99060000D02*
X93980000Y-104140000D01*
X93980000Y-68580000D02*
X99060000Y-63500000D01*
X99060000Y-63500000D02*
X99060000Y-99060000D01*
X91440000Y-33020000D02*
X93980000Y-33020000D01*
X43180000Y-68580000D02*
X45720000Y-68580000D01*
X45720000Y-33020000D02*
X48260000Y-33020000D01*
X57290000Y-42050000D02*
X84950000Y-42050000D01*
X45720000Y-104140000D02*
X48260000Y-104140000D01*
X114300000Y-33020000D02*
X106680000Y-33020000D01*
X88900000Y-104140000D02*
X91440000Y-104140000D01*
X45720000Y-68580000D02*
X48260000Y-68580000D01*
X84950000Y-77610000D02*
X93980000Y-68580000D01*
X106680000Y-33020000D02*
X99060000Y-33020000D01*
X84950000Y-113170000D02*
X93980000Y-104140000D01*
X91440000Y-104140000D02*
X93980000Y-104140000D01*
X84950000Y-42050000D02*
X93980000Y-33020000D01*
X99060000Y-63500000D02*
X99060000Y-33020000D01*
X43180000Y-104140000D02*
X45720000Y-104140000D01*
X48260000Y-33020000D02*
X57290000Y-42050000D01*
X48260000Y-104140000D02*
X57290000Y-113170000D01*
X57290000Y-113170000D02*
X84950000Y-113170000D01*
X57290000Y-77610000D02*
X84950000Y-77610000D01*
X43180000Y-33020000D02*
X45720000Y-33020000D01*
X48260000Y-68580000D02*
X57290000Y-77610000D01*
X88900000Y-33020000D02*
X91440000Y-33020000D01*
X91440000Y-68580000D02*
X93980000Y-68580000D01*
X99060000Y-33020000D02*
X93980000Y-33020000D01*
G04 #@! TO.N,Net-(JSel1-Pin_3)*
X48260000Y-20320000D02*
X48260000Y-12700000D01*
G04 #@! TO.N,Net-(JSel1-Pin_2)*
X45720000Y-20320000D02*
X45720000Y-12700000D01*
G04 #@! TO.N,Net-(JSel1-Pin_1)*
X43180000Y-20320000D02*
X43180000Y-12700000D01*
G04 #@! TO.N,Net-(JIn1-Pin_4)*
X22359440Y-20320000D02*
X22860000Y-20320000D01*
X20710000Y-10550000D02*
X20710000Y-18670560D01*
X32286752Y-10550000D02*
X20710000Y-10550000D01*
X40640000Y-20320000D02*
X40640000Y-18903248D01*
X20710000Y-18670560D02*
X22359440Y-20320000D01*
X40640000Y-18903248D02*
X32286752Y-10550000D01*
G04 #@! TO.N,Net-(JIn1-Pin_1)*
X31891168Y-12700000D02*
X22860000Y-12700000D01*
X38100000Y-18908832D02*
X31891168Y-12700000D01*
X38100000Y-20320000D02*
X38100000Y-18908832D01*
G04 #@! TO.N,Net-(JIn1-Pin_2)*
X35560000Y-18914416D02*
X31885584Y-15240000D01*
X35560000Y-20320000D02*
X35560000Y-18914416D01*
X31885584Y-15240000D02*
X22860000Y-15240000D01*
G04 #@! TO.N,Net-(JIn1-Pin_3)*
X33020000Y-18920000D02*
X31880000Y-17780000D01*
X33020000Y-20320000D02*
X33020000Y-18920000D01*
X31880000Y-17780000D02*
X22860000Y-17780000D01*
G04 #@! TO.N,Net-(JSel2-Pin_3)*
X48260000Y-55880000D02*
X48260000Y-48260000D01*
G04 #@! TO.N,Net-(JSel2-Pin_2)*
X45720000Y-55880000D02*
X45720000Y-48260000D01*
G04 #@! TO.N,Net-(JSel2-Pin_1)*
X43180000Y-55880000D02*
X43180000Y-48260000D01*
G04 #@! TO.N,Net-(JIn2-Pin_4)*
X38100000Y-34420000D02*
X34420000Y-38100000D01*
X38100000Y-33020000D02*
X38100000Y-34420000D01*
X34420000Y-38100000D02*
X22860000Y-38100000D01*
G04 #@! TO.N,Net-(JIn2-Pin_1)*
X27940000Y-30480000D02*
X22860000Y-30480000D01*
X30480000Y-33020000D02*
X27940000Y-30480000D01*
G04 #@! TO.N,Net-(JIn2-Pin_2)*
X40640000Y-33020000D02*
X40640000Y-34425584D01*
X34815584Y-40250000D02*
X21969440Y-40250000D01*
X40640000Y-34425584D02*
X34815584Y-40250000D01*
X20710000Y-38990560D02*
X20710000Y-33967919D01*
X21657919Y-33020000D02*
X22860000Y-33020000D01*
X21969440Y-40250000D02*
X20710000Y-38990560D01*
X20710000Y-33967919D02*
X21657919Y-33020000D01*
G04 #@! TO.N,Net-(JIn2-Pin_3)*
X33020000Y-33020000D02*
X33020000Y-35080000D01*
X33020000Y-35080000D02*
X32540000Y-35560000D01*
X32540000Y-35560000D02*
X22860000Y-35560000D01*
G04 #@! TO.N,Net-(JSel3-Pin_3)*
X48260000Y-91440000D02*
X48260000Y-83820000D01*
G04 #@! TO.N,Net-(JSel3-Pin_2)*
X45720000Y-91440000D02*
X45720000Y-83820000D01*
G04 #@! TO.N,Net-(JSel3-Pin_1)*
X43180000Y-91440000D02*
X43180000Y-83820000D01*
G04 #@! TO.N,Net-(JIn3-Pin_4)*
X20710000Y-46110000D02*
X20710000Y-54230560D01*
X40640000Y-54463248D02*
X32286752Y-46110000D01*
X32286752Y-46110000D02*
X20710000Y-46110000D01*
X40640000Y-55880000D02*
X40640000Y-54463248D01*
X22359440Y-55880000D02*
X22860000Y-55880000D01*
X20710000Y-54230560D02*
X22359440Y-55880000D01*
G04 #@! TO.N,Net-(JIn3-Pin_1)*
X38100000Y-54468832D02*
X31891168Y-48260000D01*
X31891168Y-48260000D02*
X22860000Y-48260000D01*
X38100000Y-55880000D02*
X38100000Y-54468832D01*
G04 #@! TO.N,Net-(JIn3-Pin_2)*
X35560000Y-55880000D02*
X35560000Y-54474416D01*
X35560000Y-54474416D02*
X31885584Y-50800000D01*
X31885584Y-50800000D02*
X22860000Y-50800000D01*
G04 #@! TO.N,Net-(JIn3-Pin_3)*
X31880000Y-53340000D02*
X22860000Y-53340000D01*
X33020000Y-55880000D02*
X33020000Y-54480000D01*
X33020000Y-54480000D02*
X31880000Y-53340000D01*
G04 #@! TO.N,VCC*
X114300000Y-30480000D02*
X106720000Y-30480000D01*
X28330000Y-93590000D02*
X30480000Y-91440000D01*
X73700000Y-22820000D02*
X31580000Y-22820000D01*
X31580000Y-93940000D02*
X73700000Y-93940000D01*
X31580000Y-93940000D02*
X30480000Y-92840000D01*
X20710000Y-23250000D02*
X18910000Y-25050000D01*
X28330000Y-58030000D02*
X30480000Y-55880000D01*
X30480000Y-57280000D02*
X30480000Y-55880000D01*
X18910000Y-54976144D02*
X18910000Y-90536144D01*
X31580000Y-58380000D02*
X73700000Y-58380000D01*
X76200000Y-91440000D02*
X73700000Y-93940000D01*
X76200000Y-21720000D02*
X76200000Y-20320000D01*
X18910000Y-90536144D02*
X21963856Y-93590000D01*
X30480000Y-20320000D02*
X27550000Y-23250000D01*
X30480000Y-92840000D02*
X30480000Y-91440000D01*
X76200000Y-55880000D02*
X73700000Y-58380000D01*
X106720000Y-30480000D02*
X106680000Y-30520000D01*
X85000000Y-30520000D02*
X76200000Y-21720000D01*
X30480000Y-21720000D02*
X30480000Y-20320000D01*
X21963856Y-93590000D02*
X28330000Y-93590000D01*
X27550000Y-23250000D02*
X20710000Y-23250000D01*
X76200000Y-20320000D02*
X73700000Y-22820000D01*
X21963856Y-58030000D02*
X28330000Y-58030000D01*
X106680000Y-30520000D02*
X85000000Y-30520000D01*
X31580000Y-22820000D02*
X30480000Y-21720000D01*
X18910000Y-25050000D02*
X18910000Y-54976144D01*
X31580000Y-58380000D02*
X30480000Y-57280000D01*
X18910000Y-54976144D02*
X21963856Y-58030000D01*
G04 #@! TO.N,Net-(JSel4-Pin_3)*
X93980000Y-20320000D02*
X93980000Y-12700000D01*
G04 #@! TO.N,Net-(JSel4-Pin_2)*
X91440000Y-20320000D02*
X91440000Y-12700000D01*
G04 #@! TO.N,Net-(JSel4-Pin_1)*
X88900000Y-20320000D02*
X88900000Y-12700000D01*
G04 #@! TO.N,Net-(JIn4-Pin_4)*
X34420000Y-73660000D02*
X22860000Y-73660000D01*
X38100000Y-68580000D02*
X38100000Y-69980000D01*
X38100000Y-69980000D02*
X34420000Y-73660000D01*
G04 #@! TO.N,Net-(JIn4-Pin_1)*
X30480000Y-68580000D02*
X27940000Y-66040000D01*
X27940000Y-66040000D02*
X22860000Y-66040000D01*
G04 #@! TO.N,Net-(JIn4-Pin_2)*
X21969440Y-75810000D02*
X20710000Y-74550560D01*
X40640000Y-69985584D02*
X34815584Y-75810000D01*
X20710000Y-69527919D02*
X21657919Y-68580000D01*
X40640000Y-68580000D02*
X40640000Y-69985584D01*
X21657919Y-68580000D02*
X22860000Y-68580000D01*
X34815584Y-75810000D02*
X21969440Y-75810000D01*
X20710000Y-74550560D02*
X20710000Y-69527919D01*
G04 #@! TO.N,Net-(JIn4-Pin_3)*
X32540000Y-71120000D02*
X22860000Y-71120000D01*
X33020000Y-70640000D02*
X32540000Y-71120000D01*
X33020000Y-68580000D02*
X33020000Y-70640000D01*
G04 #@! TO.N,Net-(JSel5-Pin_3)*
X93980000Y-55880000D02*
X93980000Y-48260000D01*
G04 #@! TO.N,Net-(JSel5-Pin_2)*
X91440000Y-55880000D02*
X91440000Y-48260000D01*
G04 #@! TO.N,Net-(JSel5-Pin_1)*
X88900000Y-55880000D02*
X88900000Y-48260000D01*
G04 #@! TO.N,Net-(JIn5-Pin_4)*
X20710000Y-89790560D02*
X22359440Y-91440000D01*
X20710000Y-81670000D02*
X20710000Y-89790560D01*
X40640000Y-91440000D02*
X40640000Y-90023248D01*
X40640000Y-90023248D02*
X32286752Y-81670000D01*
X22359440Y-91440000D02*
X22860000Y-91440000D01*
X32286752Y-81670000D02*
X20710000Y-81670000D01*
G04 #@! TO.N,Net-(JIn5-Pin_1)*
X31891168Y-83820000D02*
X22860000Y-83820000D01*
X38100000Y-90028832D02*
X31891168Y-83820000D01*
X38100000Y-91440000D02*
X38100000Y-90028832D01*
G04 #@! TO.N,Net-(JIn5-Pin_2)*
X35560000Y-90034416D02*
X31885584Y-86360000D01*
X35560000Y-91440000D02*
X35560000Y-90034416D01*
X31885584Y-86360000D02*
X22860000Y-86360000D01*
G04 #@! TO.N,Net-(JIn5-Pin_3)*
X33020000Y-91440000D02*
X33020000Y-90040000D01*
X33020000Y-90040000D02*
X31880000Y-88900000D01*
X31880000Y-88900000D02*
X22860000Y-88900000D01*
G04 #@! TO.N,Net-(JSel6-Pin_3)*
X93980000Y-91440000D02*
X93980000Y-83820000D01*
G04 #@! TO.N,Net-(JSel6-Pin_2)*
X91440000Y-91440000D02*
X91440000Y-83820000D01*
G04 #@! TO.N,Net-(JSel6-Pin_1)*
X88900000Y-91440000D02*
X88900000Y-83820000D01*
G04 #@! TO.N,Net-(JIn6-Pin_4)*
X38100000Y-105540000D02*
X34420000Y-109220000D01*
X34420000Y-109220000D02*
X22860000Y-109220000D01*
X38100000Y-104140000D02*
X38100000Y-105540000D01*
G04 #@! TO.N,Net-(JIn6-Pin_1)*
X30480000Y-104140000D02*
X27940000Y-101600000D01*
X27940000Y-101600000D02*
X22860000Y-101600000D01*
G04 #@! TO.N,Net-(JIn6-Pin_2)*
X21657919Y-104140000D02*
X22860000Y-104140000D01*
X20710000Y-110110560D02*
X20710000Y-105087919D01*
X34815584Y-111370000D02*
X21969440Y-111370000D01*
X21969440Y-111370000D02*
X20710000Y-110110560D01*
X40640000Y-104140000D02*
X40640000Y-105545584D01*
X20710000Y-105087919D02*
X21657919Y-104140000D01*
X40640000Y-105545584D02*
X34815584Y-111370000D01*
G04 #@! TO.N,Net-(JIn6-Pin_3)*
X33020000Y-106200000D02*
X32540000Y-106680000D01*
X33020000Y-104140000D02*
X33020000Y-106200000D01*
X32540000Y-106680000D02*
X22860000Y-106680000D01*
G04 #@! TO.N,Net-(JIn7-Pin_1)*
X77611168Y-12700000D02*
X68580000Y-12700000D01*
X83820000Y-20320000D02*
X83820000Y-18908832D01*
X83820000Y-18908832D02*
X77611168Y-12700000D01*
G04 #@! TO.N,Net-(JIn7-Pin_2)*
X81280000Y-20320000D02*
X81280000Y-18914416D01*
X81280000Y-18914416D02*
X77605584Y-15240000D01*
X77605584Y-15240000D02*
X68580000Y-15240000D01*
G04 #@! TO.N,Net-(JIn7-Pin_3)*
X77600000Y-17780000D02*
X68580000Y-17780000D01*
X78740000Y-20320000D02*
X78740000Y-18920000D01*
X78740000Y-18920000D02*
X77600000Y-17780000D01*
G04 #@! TO.N,Net-(JIn7-Pin_4)*
X78006752Y-10550000D02*
X66430000Y-10550000D01*
X66430000Y-18670560D02*
X68079440Y-20320000D01*
X86360000Y-18903248D02*
X78006752Y-10550000D01*
X86360000Y-20320000D02*
X86360000Y-18903248D01*
X66430000Y-10550000D02*
X66430000Y-18670560D01*
X68079440Y-20320000D02*
X68580000Y-20320000D01*
G04 #@! TO.N,Net-(JIn8-Pin_1)*
X73660000Y-30480000D02*
X68580000Y-30480000D01*
X76200000Y-33020000D02*
X73660000Y-30480000D01*
G04 #@! TO.N,Net-(JIn8-Pin_2)*
X67689440Y-40250000D02*
X66430000Y-38990560D01*
X67377919Y-33020000D02*
X68580000Y-33020000D01*
X86360000Y-33020000D02*
X86360000Y-34425584D01*
X80535584Y-40250000D02*
X67689440Y-40250000D01*
X86360000Y-34425584D02*
X80535584Y-40250000D01*
X66430000Y-38990560D02*
X66430000Y-33967919D01*
X66430000Y-33967919D02*
X67377919Y-33020000D01*
G04 #@! TO.N,Net-(JIn8-Pin_3)*
X78740000Y-33020000D02*
X78740000Y-35080000D01*
X78260000Y-35560000D02*
X68580000Y-35560000D01*
X78740000Y-35080000D02*
X78260000Y-35560000D01*
G04 #@! TO.N,Net-(JIn8-Pin_4)*
X83820000Y-33020000D02*
X83820000Y-34420000D01*
X83820000Y-34420000D02*
X80140000Y-38100000D01*
X80140000Y-38100000D02*
X68580000Y-38100000D01*
G04 #@! TO.N,Net-(JIn9-Pin_1)*
X83820000Y-55880000D02*
X83820000Y-54468832D01*
X83820000Y-54468832D02*
X77611168Y-48260000D01*
X77611168Y-48260000D02*
X68580000Y-48260000D01*
G04 #@! TO.N,Net-(JIn9-Pin_2)*
X81280000Y-55880000D02*
X81280000Y-54474416D01*
X77605584Y-50800000D02*
X68580000Y-50800000D01*
X81280000Y-54474416D02*
X77605584Y-50800000D01*
G04 #@! TO.N,Net-(JIn9-Pin_3)*
X78740000Y-54480000D02*
X77600000Y-53340000D01*
X78740000Y-55880000D02*
X78740000Y-54480000D01*
X77600000Y-53340000D02*
X68580000Y-53340000D01*
G04 #@! TO.N,Net-(JIn9-Pin_4)*
X86360000Y-54463248D02*
X78006752Y-46110000D01*
X66430000Y-54230560D02*
X68079440Y-55880000D01*
X78006752Y-46110000D02*
X66430000Y-46110000D01*
X86360000Y-55880000D02*
X86360000Y-54463248D01*
X68079440Y-55880000D02*
X68580000Y-55880000D01*
X66430000Y-46110000D02*
X66430000Y-54230560D01*
G04 #@! TO.N,Net-(JIn10-Pin_1)*
X76200000Y-68580000D02*
X73660000Y-66040000D01*
X73660000Y-66040000D02*
X68580000Y-66040000D01*
G04 #@! TO.N,Net-(JIn10-Pin_2)*
X66430000Y-74550560D02*
X66430000Y-69527919D01*
X86360000Y-68580000D02*
X86360000Y-69985584D01*
X67689440Y-75810000D02*
X66430000Y-74550560D01*
X67377919Y-68580000D02*
X68580000Y-68580000D01*
X80535584Y-75810000D02*
X67689440Y-75810000D01*
X66430000Y-69527919D02*
X67377919Y-68580000D01*
X86360000Y-69985584D02*
X80535584Y-75810000D01*
G04 #@! TO.N,Net-(JIn10-Pin_3)*
X78260000Y-71120000D02*
X68580000Y-71120000D01*
X78740000Y-70640000D02*
X78260000Y-71120000D01*
X78740000Y-68580000D02*
X78740000Y-70640000D01*
G04 #@! TO.N,Net-(JIn10-Pin_4)*
X80140000Y-73660000D02*
X68580000Y-73660000D01*
X83820000Y-68580000D02*
X83820000Y-69980000D01*
X83820000Y-69980000D02*
X80140000Y-73660000D01*
G04 #@! TO.N,Net-(JIn11-Pin_1)*
X83820000Y-90028832D02*
X77611168Y-83820000D01*
X77611168Y-83820000D02*
X68580000Y-83820000D01*
X83820000Y-91440000D02*
X83820000Y-90028832D01*
G04 #@! TO.N,Net-(JIn11-Pin_2)*
X81280000Y-90034416D02*
X77605584Y-86360000D01*
X77605584Y-86360000D02*
X68580000Y-86360000D01*
X81280000Y-91440000D02*
X81280000Y-90034416D01*
G04 #@! TO.N,Net-(JIn11-Pin_3)*
X78740000Y-90040000D02*
X77600000Y-88900000D01*
X78740000Y-91440000D02*
X78740000Y-90040000D01*
X77600000Y-88900000D02*
X68580000Y-88900000D01*
G04 #@! TO.N,Net-(JIn11-Pin_4)*
X86360000Y-90023248D02*
X78006752Y-81670000D01*
X86360000Y-91440000D02*
X86360000Y-90023248D01*
X68079440Y-91440000D02*
X68580000Y-91440000D01*
X78006752Y-81670000D02*
X66430000Y-81670000D01*
X66430000Y-89790560D02*
X68079440Y-91440000D01*
X66430000Y-81670000D02*
X66430000Y-89790560D01*
G04 #@! TO.N,Net-(JIn12-Pin_1)*
X76200000Y-104140000D02*
X73660000Y-101600000D01*
X73660000Y-101600000D02*
X68580000Y-101600000D01*
G04 #@! TO.N,Net-(JIn12-Pin_2)*
X66430000Y-110110560D02*
X66430000Y-105087919D01*
X67689440Y-111370000D02*
X66430000Y-110110560D01*
X67377919Y-104140000D02*
X68580000Y-104140000D01*
X86360000Y-104140000D02*
X86360000Y-105545584D01*
X66430000Y-105087919D02*
X67377919Y-104140000D01*
X80535584Y-111370000D02*
X67689440Y-111370000D01*
X86360000Y-105545584D02*
X80535584Y-111370000D01*
G04 #@! TO.N,Net-(JIn12-Pin_3)*
X78260000Y-106680000D02*
X68580000Y-106680000D01*
X78740000Y-104140000D02*
X78740000Y-106200000D01*
X78740000Y-106200000D02*
X78260000Y-106680000D01*
G04 #@! TO.N,Net-(JIn12-Pin_4)*
X83820000Y-104140000D02*
X83820000Y-105540000D01*
X83820000Y-105540000D02*
X80140000Y-109220000D01*
X80140000Y-109220000D02*
X68580000Y-109220000D01*
G04 #@! TO.N,Net-(JOut1-Pin_1)*
X35560000Y-31620000D02*
X29340000Y-25400000D01*
X29340000Y-25400000D02*
X22860000Y-25400000D01*
X35560000Y-33020000D02*
X35560000Y-31620000D01*
G04 #@! TO.N,Net-(JOut2-Pin_1)*
X35560000Y-67180000D02*
X29340000Y-60960000D01*
X35560000Y-68580000D02*
X35560000Y-67180000D01*
X29340000Y-60960000D02*
X22860000Y-60960000D01*
G04 #@! TO.N,Net-(JOut3-Pin_1)*
X35560000Y-104140000D02*
X35560000Y-102740000D01*
X35560000Y-102740000D02*
X29340000Y-96520000D01*
X29340000Y-96520000D02*
X22860000Y-96520000D01*
G04 #@! TO.N,Net-(JOut4-Pin_1)*
X75060000Y-25400000D02*
X68580000Y-25400000D01*
X81280000Y-31620000D02*
X75060000Y-25400000D01*
X81280000Y-33020000D02*
X81280000Y-31620000D01*
G04 #@! TO.N,Net-(JOut5-Pin_1)*
X81280000Y-67180000D02*
X75060000Y-60960000D01*
X75060000Y-60960000D02*
X68580000Y-60960000D01*
X81280000Y-68580000D02*
X81280000Y-67180000D01*
G04 #@! TO.N,Net-(JOut6-Pin_1)*
X81280000Y-104140000D02*
X81280000Y-102740000D01*
X75060000Y-96520000D02*
X68580000Y-96520000D01*
X81280000Y-102740000D02*
X75060000Y-96520000D01*
G04 #@! TD*
G04 #@! TA.AperFunction,Conductor*
G04 #@! TO.N,GND*
G36*
X121561085Y-20713D02*
G01*
X121690280Y-79714D01*
X121797619Y-172724D01*
X121874406Y-292208D01*
X121914421Y-428485D01*
X121919500Y-499500D01*
X121919500Y-121420500D01*
X121899287Y-121561085D01*
X121840286Y-121690280D01*
X121747276Y-121797619D01*
X121627792Y-121874406D01*
X121491515Y-121914421D01*
X121420500Y-121919500D01*
X499500Y-121919500D01*
X358915Y-121899287D01*
X229720Y-121840286D01*
X122381Y-121747276D01*
X45594Y-121627792D01*
X5579Y-121491515D01*
X500Y-121420500D01*
X500Y-114367761D01*
X5765788Y-114367761D01*
X5795415Y-114637024D01*
X5863924Y-114899076D01*
X5863927Y-114899085D01*
X5969869Y-115148388D01*
X6110985Y-115379615D01*
X6284249Y-115587813D01*
X6284251Y-115587816D01*
X6284253Y-115587818D01*
X6284255Y-115587820D01*
X6485998Y-115768582D01*
X6711910Y-115918044D01*
X6957176Y-116033020D01*
X7216569Y-116111060D01*
X7305899Y-116124206D01*
X7484557Y-116150500D01*
X7484561Y-116150500D01*
X7687627Y-116150500D01*
X7687631Y-116150500D01*
X7890156Y-116135677D01*
X8154553Y-116076780D01*
X8407558Y-115980014D01*
X8643777Y-115847441D01*
X8858177Y-115681888D01*
X9046186Y-115486881D01*
X9203799Y-115266579D01*
X9327656Y-115025675D01*
X9415118Y-114769305D01*
X9464319Y-114502933D01*
X9469259Y-114367761D01*
X112445788Y-114367761D01*
X112475415Y-114637024D01*
X112543924Y-114899076D01*
X112543927Y-114899085D01*
X112649869Y-115148388D01*
X112790985Y-115379615D01*
X112964249Y-115587813D01*
X112964251Y-115587816D01*
X112964253Y-115587818D01*
X112964255Y-115587820D01*
X113165998Y-115768582D01*
X113391910Y-115918044D01*
X113637176Y-116033020D01*
X113896569Y-116111060D01*
X113985899Y-116124206D01*
X114164557Y-116150500D01*
X114164561Y-116150500D01*
X114367627Y-116150500D01*
X114367631Y-116150500D01*
X114570156Y-116135677D01*
X114834553Y-116076780D01*
X115087558Y-115980014D01*
X115323777Y-115847441D01*
X115538177Y-115681888D01*
X115726186Y-115486881D01*
X115883799Y-115266579D01*
X116007656Y-115025675D01*
X116095118Y-114769305D01*
X116144319Y-114502933D01*
X116154212Y-114232235D01*
X116124586Y-113962982D01*
X116056072Y-113700912D01*
X115950130Y-113451610D01*
X115809018Y-113220390D01*
X115809016Y-113220388D01*
X115809014Y-113220384D01*
X115635750Y-113012186D01*
X115635748Y-113012183D01*
X115635745Y-113012180D01*
X115434002Y-112831418D01*
X115208090Y-112681956D01*
X114962824Y-112566980D01*
X114916869Y-112553154D01*
X114703428Y-112488939D01*
X114435443Y-112449500D01*
X114435439Y-112449500D01*
X114232369Y-112449500D01*
X114190935Y-112452532D01*
X114029846Y-112464322D01*
X113765452Y-112523218D01*
X113765445Y-112523220D01*
X113512437Y-112619988D01*
X113512436Y-112619988D01*
X113276223Y-112752559D01*
X113276217Y-112752563D01*
X113061827Y-112918107D01*
X112971125Y-113012186D01*
X112873814Y-113113119D01*
X112716201Y-113333421D01*
X112592344Y-113574325D01*
X112592342Y-113574329D01*
X112504883Y-113830690D01*
X112455681Y-114097066D01*
X112455680Y-114097073D01*
X112445788Y-114367761D01*
X9469259Y-114367761D01*
X9474212Y-114232235D01*
X9444586Y-113962982D01*
X9376072Y-113700912D01*
X9270130Y-113451610D01*
X9129018Y-113220390D01*
X9129016Y-113220388D01*
X9129014Y-113220384D01*
X8955750Y-113012186D01*
X8955748Y-113012183D01*
X8955745Y-113012180D01*
X8754002Y-112831418D01*
X8528090Y-112681956D01*
X8282824Y-112566980D01*
X8236869Y-112553154D01*
X8023428Y-112488939D01*
X7755443Y-112449500D01*
X7755439Y-112449500D01*
X7552369Y-112449500D01*
X7510935Y-112452532D01*
X7349846Y-112464322D01*
X7085452Y-112523218D01*
X7085445Y-112523220D01*
X6832437Y-112619988D01*
X6832436Y-112619988D01*
X6596223Y-112752559D01*
X6596217Y-112752563D01*
X6381827Y-112918107D01*
X6291125Y-113012186D01*
X6193814Y-113113119D01*
X6036201Y-113333421D01*
X5912344Y-113574325D01*
X5912342Y-113574329D01*
X5824883Y-113830690D01*
X5775681Y-114097066D01*
X5775680Y-114097073D01*
X5765788Y-114367761D01*
X500Y-114367761D01*
X500Y-90649930D01*
X17609499Y-90649930D01*
X17617504Y-90695327D01*
X17620345Y-90716909D01*
X17624363Y-90762828D01*
X17624365Y-90762841D01*
X17636296Y-90807365D01*
X17641010Y-90828625D01*
X17649013Y-90874018D01*
X17649016Y-90874028D01*
X17664780Y-90917340D01*
X17671328Y-90938106D01*
X17681781Y-90977120D01*
X17683261Y-90982640D01*
X17702744Y-91024421D01*
X17711073Y-91044530D01*
X17726844Y-91087860D01*
X17749896Y-91127787D01*
X17759949Y-91147098D01*
X17779432Y-91188879D01*
X17805872Y-91226640D01*
X17817570Y-91245001D01*
X17840623Y-91284930D01*
X17870268Y-91320260D01*
X17883503Y-91337508D01*
X17909953Y-91375283D01*
X17909954Y-91375284D01*
X18079473Y-91544804D01*
X18079494Y-91544823D01*
X20957167Y-94422496D01*
X20957182Y-94422512D01*
X21124712Y-94590042D01*
X21124714Y-94590045D01*
X21162481Y-94616490D01*
X21179759Y-94629747D01*
X21199207Y-94646067D01*
X21293908Y-94751918D01*
X21354951Y-94880161D01*
X21377391Y-95020407D01*
X21359410Y-95161294D01*
X21302465Y-95291409D01*
X21300973Y-95293799D01*
X21284216Y-95320467D01*
X21284212Y-95320476D01*
X21284211Y-95320478D01*
X21270418Y-95359896D01*
X21224630Y-95490750D01*
X21209500Y-95625035D01*
X21209500Y-97414964D01*
X21224630Y-97549249D01*
X21224631Y-97549254D01*
X21224632Y-97549255D01*
X21284211Y-97719522D01*
X21284212Y-97719523D01*
X21284213Y-97719526D01*
X21339882Y-97808122D01*
X21360360Y-97840713D01*
X21380185Y-97872263D01*
X21380187Y-97872266D01*
X21507733Y-97999812D01*
X21507736Y-97999814D01*
X21507738Y-97999816D01*
X21660478Y-98095789D01*
X21830745Y-98155368D01*
X21830748Y-98155368D01*
X21830750Y-98155369D01*
X21965035Y-98170499D01*
X21965043Y-98170499D01*
X21965046Y-98170500D01*
X21965047Y-98170500D01*
X23754953Y-98170500D01*
X23754954Y-98170500D01*
X23754958Y-98170499D01*
X23754964Y-98170499D01*
X23889249Y-98155369D01*
X23889250Y-98155368D01*
X23889255Y-98155368D01*
X24059522Y-98095789D01*
X24212262Y-97999816D01*
X24212266Y-97999812D01*
X24245425Y-97966654D01*
X24359126Y-97881538D01*
X24492201Y-97831904D01*
X24598271Y-97820500D01*
X28594623Y-97820500D01*
X28735208Y-97840713D01*
X28864403Y-97899714D01*
X28947469Y-97966654D01*
X32469616Y-101488801D01*
X32554732Y-101602502D01*
X32604366Y-101735577D01*
X32614499Y-101877245D01*
X32584308Y-102016030D01*
X32516240Y-102140687D01*
X32415810Y-102241117D01*
X32307733Y-102302661D01*
X32291143Y-102309532D01*
X32273674Y-102318434D01*
X32272656Y-102316436D01*
X32166557Y-102362163D01*
X32025571Y-102379353D01*
X31885453Y-102356126D01*
X31770803Y-102302984D01*
X31629522Y-102214211D01*
X31459255Y-102154632D01*
X31459254Y-102154631D01*
X31459249Y-102154630D01*
X31324964Y-102139500D01*
X31324954Y-102139500D01*
X30525376Y-102139500D01*
X30384791Y-102119287D01*
X30255596Y-102060286D01*
X30172530Y-101993346D01*
X28948689Y-100769504D01*
X28948670Y-100769483D01*
X28779140Y-100599954D01*
X28779139Y-100599953D01*
X28741364Y-100573503D01*
X28724116Y-100560268D01*
X28688786Y-100530623D01*
X28648857Y-100507570D01*
X28630496Y-100495872D01*
X28592734Y-100469432D01*
X28592735Y-100469432D01*
X28550954Y-100449949D01*
X28531643Y-100439896D01*
X28491716Y-100416844D01*
X28448386Y-100401073D01*
X28428277Y-100392744D01*
X28386496Y-100373261D01*
X28386494Y-100373260D01*
X28341962Y-100361328D01*
X28321196Y-100354780D01*
X28277884Y-100339016D01*
X28277874Y-100339013D01*
X28246090Y-100333409D01*
X28232472Y-100331008D01*
X28211221Y-100326296D01*
X28166697Y-100314365D01*
X28166684Y-100314363D01*
X28120765Y-100310345D01*
X28099183Y-100307504D01*
X28053786Y-100299499D01*
X28053779Y-100299499D01*
X27826221Y-100299499D01*
X27815992Y-100299499D01*
X27815968Y-100299500D01*
X24598271Y-100299500D01*
X24457686Y-100279287D01*
X24328491Y-100220286D01*
X24245425Y-100153346D01*
X24212266Y-100120187D01*
X24212263Y-100120185D01*
X24212262Y-100120184D01*
X24148122Y-100079882D01*
X24059526Y-100024213D01*
X24059524Y-100024212D01*
X24059522Y-100024211D01*
X23889255Y-99964632D01*
X23889254Y-99964631D01*
X23889249Y-99964630D01*
X23754964Y-99949500D01*
X23754954Y-99949500D01*
X21965046Y-99949500D01*
X21965035Y-99949500D01*
X21830750Y-99964630D01*
X21753305Y-99991729D01*
X21660478Y-100024211D01*
X21660476Y-100024211D01*
X21660476Y-100024212D01*
X21660473Y-100024213D01*
X21507736Y-100120185D01*
X21507733Y-100120187D01*
X21380187Y-100247733D01*
X21380185Y-100247736D01*
X21284213Y-100400473D01*
X21284211Y-100400476D01*
X21284211Y-100400478D01*
X21270418Y-100439896D01*
X21224630Y-100570750D01*
X21209500Y-100705035D01*
X21209500Y-102494956D01*
X21215096Y-102544625D01*
X21210749Y-102686588D01*
X21166583Y-102821577D01*
X21086174Y-102938654D01*
X21005443Y-103009250D01*
X20967425Y-103035870D01*
X20949066Y-103047566D01*
X20909138Y-103070618D01*
X20909127Y-103070626D01*
X20873811Y-103100259D01*
X20856546Y-103113507D01*
X20818786Y-103139948D01*
X20818776Y-103139956D01*
X19709956Y-104248776D01*
X19709948Y-104248786D01*
X19683507Y-104286546D01*
X19670259Y-104303811D01*
X19640626Y-104339127D01*
X19640618Y-104339139D01*
X19617567Y-104379064D01*
X19605873Y-104397420D01*
X19579433Y-104435181D01*
X19579429Y-104435188D01*
X19559951Y-104476960D01*
X19549899Y-104496270D01*
X19526846Y-104536199D01*
X19526844Y-104536202D01*
X19511073Y-104579531D01*
X19502743Y-104599640D01*
X19483260Y-104641421D01*
X19471329Y-104685952D01*
X19464782Y-104706718D01*
X19449016Y-104750034D01*
X19449015Y-104750035D01*
X19441010Y-104795436D01*
X19436298Y-104816690D01*
X19424364Y-104861230D01*
X19424363Y-104861233D01*
X19420345Y-104907154D01*
X19417504Y-104928736D01*
X19409500Y-104974130D01*
X19409499Y-104974144D01*
X19409499Y-105213896D01*
X19409500Y-105213917D01*
X19409500Y-109985732D01*
X19409499Y-109985758D01*
X19409499Y-110224346D01*
X19417504Y-110269743D01*
X19420345Y-110291325D01*
X19424363Y-110337244D01*
X19424365Y-110337257D01*
X19436296Y-110381781D01*
X19441010Y-110403041D01*
X19449013Y-110448434D01*
X19449016Y-110448444D01*
X19464780Y-110491756D01*
X19471328Y-110512522D01*
X19483261Y-110557056D01*
X19502744Y-110598837D01*
X19511073Y-110618946D01*
X19526844Y-110662276D01*
X19549896Y-110702203D01*
X19559949Y-110721514D01*
X19579432Y-110763295D01*
X19605872Y-110801056D01*
X19617570Y-110819417D01*
X19640623Y-110859346D01*
X19670268Y-110894676D01*
X19683503Y-110911924D01*
X19709953Y-110949699D01*
X19709954Y-110949700D01*
X19879473Y-111119220D01*
X19879494Y-111119239D01*
X20962751Y-112202496D01*
X20962766Y-112202512D01*
X21130297Y-112370044D01*
X21130298Y-112370045D01*
X21168068Y-112396491D01*
X21185334Y-112409740D01*
X21220654Y-112439377D01*
X21260601Y-112462440D01*
X21278926Y-112474114D01*
X21316706Y-112500568D01*
X21358494Y-112520054D01*
X21377791Y-112530100D01*
X21417725Y-112553156D01*
X21461048Y-112568923D01*
X21481159Y-112577253D01*
X21522944Y-112596739D01*
X21567490Y-112608674D01*
X21588236Y-112615216D01*
X21631560Y-112630985D01*
X21676965Y-112638990D01*
X21698212Y-112643701D01*
X21742748Y-112655635D01*
X21788685Y-112659653D01*
X21810238Y-112662491D01*
X21855661Y-112670501D01*
X21855662Y-112670501D01*
X22093448Y-112670501D01*
X22093472Y-112670500D01*
X34691552Y-112670500D01*
X34691576Y-112670501D01*
X34701805Y-112670501D01*
X34929360Y-112670501D01*
X34929363Y-112670501D01*
X34974792Y-112662490D01*
X34996328Y-112659654D01*
X35042276Y-112655635D01*
X35086832Y-112643695D01*
X35108044Y-112638993D01*
X35153464Y-112630985D01*
X35196797Y-112615212D01*
X35217534Y-112608674D01*
X35262080Y-112596739D01*
X35303871Y-112577250D01*
X35323964Y-112568927D01*
X35367299Y-112553156D01*
X35407243Y-112530093D01*
X35426538Y-112520049D01*
X35468318Y-112500568D01*
X35506096Y-112474114D01*
X35524418Y-112462442D01*
X35564370Y-112439377D01*
X35599697Y-112409733D01*
X35616955Y-112396491D01*
X35654723Y-112370047D01*
X35815631Y-112209139D01*
X35844065Y-112180705D01*
X35844076Y-112180691D01*
X41450691Y-106574076D01*
X41450705Y-106574065D01*
X41640038Y-106384732D01*
X41640047Y-106384723D01*
X41666493Y-106346952D01*
X41679733Y-106329697D01*
X41709377Y-106294370D01*
X41732442Y-106254418D01*
X41744114Y-106236096D01*
X41770568Y-106198318D01*
X41790049Y-106156538D01*
X41800093Y-106137243D01*
X41823156Y-106097299D01*
X41838927Y-106053964D01*
X41847250Y-106033871D01*
X41866739Y-105992080D01*
X41866742Y-105992068D01*
X41874190Y-105971608D01*
X41877319Y-105972747D01*
X41918765Y-105875919D01*
X42009176Y-105766382D01*
X42126784Y-105686753D01*
X42262063Y-105643484D01*
X42404053Y-105640080D01*
X42541249Y-105676817D01*
X42555779Y-105683312D01*
X42680000Y-105741236D01*
X42680000Y-104640000D01*
X43680000Y-104640000D01*
X43680000Y-105741236D01*
X43832481Y-105670134D01*
X43832482Y-105670133D01*
X44018819Y-105539659D01*
X44018821Y-105539657D01*
X44097154Y-105461325D01*
X44210855Y-105376209D01*
X44343930Y-105326575D01*
X44485598Y-105316442D01*
X44624383Y-105346633D01*
X44749040Y-105414701D01*
X44802846Y-105461325D01*
X44881180Y-105539659D01*
X45067517Y-105670133D01*
X45067518Y-105670134D01*
X45220000Y-105741236D01*
X45220000Y-104640000D01*
X46220000Y-104640000D01*
X46220000Y-105741235D01*
X46372481Y-105670134D01*
X46372482Y-105670133D01*
X46558819Y-105539659D01*
X46558821Y-105539657D01*
X46637154Y-105461325D01*
X46750855Y-105376209D01*
X46883930Y-105326575D01*
X47025598Y-105316442D01*
X47164383Y-105346633D01*
X47289040Y-105414701D01*
X47342846Y-105461325D01*
X47421180Y-105539659D01*
X47607517Y-105670133D01*
X47607518Y-105670134D01*
X47760000Y-105741236D01*
X47760000Y-104640000D01*
X48760000Y-104640000D01*
X48760000Y-105741235D01*
X48912481Y-105670134D01*
X48912482Y-105670133D01*
X49098819Y-105539659D01*
X49259659Y-105378819D01*
X49390134Y-105192481D01*
X49486266Y-104986326D01*
X49545140Y-104766604D01*
X49545142Y-104766592D01*
X49556217Y-104640000D01*
X48760000Y-104640000D01*
X47760000Y-104640000D01*
X46220000Y-104640000D01*
X45220000Y-104640000D01*
X43680000Y-104640000D01*
X42680000Y-104640000D01*
X42680000Y-104140000D01*
X42775014Y-104140000D01*
X42794835Y-104265148D01*
X42852359Y-104378045D01*
X42941955Y-104467641D01*
X43054852Y-104525165D01*
X43148519Y-104540000D01*
X43211481Y-104540000D01*
X43305148Y-104525165D01*
X43418045Y-104467641D01*
X43507641Y-104378045D01*
X43565165Y-104265148D01*
X43584986Y-104140000D01*
X45315014Y-104140000D01*
X45334835Y-104265148D01*
X45392359Y-104378045D01*
X45481955Y-104467641D01*
X45594852Y-104525165D01*
X45688519Y-104540000D01*
X45751481Y-104540000D01*
X45845148Y-104525165D01*
X45958045Y-104467641D01*
X46047641Y-104378045D01*
X46105165Y-104265148D01*
X46124986Y-104140000D01*
X47855014Y-104140000D01*
X47874835Y-104265148D01*
X47932359Y-104378045D01*
X48021955Y-104467641D01*
X48134852Y-104525165D01*
X48228519Y-104540000D01*
X48291481Y-104540000D01*
X48385148Y-104525165D01*
X48498045Y-104467641D01*
X48587641Y-104378045D01*
X48645165Y-104265148D01*
X48664986Y-104140000D01*
X48645165Y-104014852D01*
X48587641Y-103901955D01*
X48498045Y-103812359D01*
X48385148Y-103754835D01*
X48291481Y-103740000D01*
X48228519Y-103740000D01*
X48134852Y-103754835D01*
X48021955Y-103812359D01*
X47932359Y-103901955D01*
X47874835Y-104014852D01*
X47855014Y-104140000D01*
X46124986Y-104140000D01*
X46105165Y-104014852D01*
X46047641Y-103901955D01*
X45958045Y-103812359D01*
X45845148Y-103754835D01*
X45751481Y-103740000D01*
X45688519Y-103740000D01*
X45594852Y-103754835D01*
X45481955Y-103812359D01*
X45392359Y-103901955D01*
X45334835Y-104014852D01*
X45315014Y-104140000D01*
X43584986Y-104140000D01*
X43565165Y-104014852D01*
X43507641Y-103901955D01*
X43418045Y-103812359D01*
X43305148Y-103754835D01*
X43211481Y-103740000D01*
X43148519Y-103740000D01*
X43054852Y-103754835D01*
X42941955Y-103812359D01*
X42852359Y-103901955D01*
X42794835Y-104014852D01*
X42775014Y-104140000D01*
X42680000Y-104140000D01*
X42680000Y-103640000D01*
X43680000Y-103640000D01*
X45220000Y-103640000D01*
X46220000Y-103640000D01*
X47760000Y-103640000D01*
X47759999Y-102538761D01*
X48760000Y-102538761D01*
X48760000Y-103640000D01*
X49556217Y-103640000D01*
X49556217Y-103639999D01*
X49545142Y-103513407D01*
X49545140Y-103513395D01*
X49486266Y-103293673D01*
X49390134Y-103087518D01*
X49259659Y-102901180D01*
X49098819Y-102740340D01*
X48912479Y-102609864D01*
X48760000Y-102538761D01*
X47759999Y-102538761D01*
X47607520Y-102609864D01*
X47421180Y-102740340D01*
X47421178Y-102740342D01*
X47342846Y-102818675D01*
X47229145Y-102903791D01*
X47096070Y-102953425D01*
X46954402Y-102963558D01*
X46815617Y-102933367D01*
X46690960Y-102865299D01*
X46637154Y-102818675D01*
X46558819Y-102740340D01*
X46372479Y-102609864D01*
X46220000Y-102538761D01*
X46220000Y-103640000D01*
X45220000Y-103640000D01*
X45219999Y-102538761D01*
X45067520Y-102609864D01*
X44881180Y-102740340D01*
X44881178Y-102740342D01*
X44802846Y-102818675D01*
X44689145Y-102903791D01*
X44556070Y-102953425D01*
X44414402Y-102963558D01*
X44275617Y-102933367D01*
X44150960Y-102865299D01*
X44097154Y-102818675D01*
X44018819Y-102740340D01*
X43832479Y-102609864D01*
X43680000Y-102538761D01*
X43680000Y-103640000D01*
X42680000Y-103640000D01*
X42680000Y-102538761D01*
X42527520Y-102609864D01*
X42527515Y-102609866D01*
X42430764Y-102677613D01*
X42304011Y-102741691D01*
X42164338Y-102767463D01*
X42023063Y-102752841D01*
X41891629Y-102699010D01*
X41789973Y-102617753D01*
X41789088Y-102618639D01*
X41781144Y-102610695D01*
X41780686Y-102610329D01*
X41779898Y-102609449D01*
X41775222Y-102604773D01*
X41583666Y-102441169D01*
X41583660Y-102441165D01*
X41583659Y-102441164D01*
X41454741Y-102362163D01*
X41368859Y-102309534D01*
X41136111Y-102213127D01*
X40891153Y-102154318D01*
X40891151Y-102154317D01*
X40891148Y-102154317D01*
X40640000Y-102134551D01*
X40639999Y-102134551D01*
X40607407Y-102137116D01*
X40388852Y-102154317D01*
X40388848Y-102154317D01*
X40388846Y-102154318D01*
X40143889Y-102213127D01*
X40143887Y-102213127D01*
X39911140Y-102309534D01*
X39696348Y-102441159D01*
X39696338Y-102441166D01*
X39694064Y-102443109D01*
X39690978Y-102445060D01*
X39680485Y-102452685D01*
X39679994Y-102452009D01*
X39574033Y-102519038D01*
X39437473Y-102558074D01*
X39295446Y-102557056D01*
X39159460Y-102516066D01*
X39059935Y-102452105D01*
X39059515Y-102452685D01*
X39049392Y-102445330D01*
X39045936Y-102443109D01*
X39043661Y-102441166D01*
X39043659Y-102441164D01*
X38914741Y-102362163D01*
X38828859Y-102309534D01*
X38596111Y-102213127D01*
X38351153Y-102154318D01*
X38351151Y-102154317D01*
X38351148Y-102154317D01*
X38100000Y-102134551D01*
X38099999Y-102134551D01*
X38067407Y-102137116D01*
X37848852Y-102154317D01*
X37848848Y-102154317D01*
X37848846Y-102154318D01*
X37603889Y-102213127D01*
X37603887Y-102213127D01*
X37371133Y-102309537D01*
X37365378Y-102312470D01*
X37357908Y-102315015D01*
X37353028Y-102317037D01*
X37352897Y-102316722D01*
X37230940Y-102358283D01*
X37089040Y-102364365D01*
X36951174Y-102330222D01*
X36828513Y-102258621D01*
X36730992Y-102155363D01*
X36702216Y-102105701D01*
X36701463Y-102106136D01*
X36690570Y-102087269D01*
X36664128Y-102049506D01*
X36652427Y-102031140D01*
X36643703Y-102016030D01*
X36629376Y-101991214D01*
X36629375Y-101991212D01*
X36629374Y-101991211D01*
X36616719Y-101976131D01*
X36599741Y-101955897D01*
X36586491Y-101938628D01*
X36560043Y-101900856D01*
X36391731Y-101732544D01*
X36391692Y-101732508D01*
X30664156Y-96004971D01*
X30579040Y-95891270D01*
X30529406Y-95758195D01*
X30519273Y-95616527D01*
X30549464Y-95477742D01*
X30617532Y-95353085D01*
X30717962Y-95252655D01*
X30842619Y-95184587D01*
X30981404Y-95154396D01*
X31123072Y-95164529D01*
X31146113Y-95170117D01*
X31178053Y-95178675D01*
X31198789Y-95185213D01*
X31242120Y-95200985D01*
X31287525Y-95208990D01*
X31308772Y-95213701D01*
X31353308Y-95225635D01*
X31399245Y-95229653D01*
X31420798Y-95232491D01*
X31466221Y-95240501D01*
X31466222Y-95240501D01*
X31704008Y-95240501D01*
X31704032Y-95240500D01*
X66430500Y-95240500D01*
X66571085Y-95260713D01*
X66700280Y-95319714D01*
X66807619Y-95412724D01*
X66884406Y-95532208D01*
X66924421Y-95668485D01*
X66929500Y-95739500D01*
X66929500Y-97414964D01*
X66944630Y-97549249D01*
X66944631Y-97549254D01*
X66944632Y-97549255D01*
X67004211Y-97719522D01*
X67004212Y-97719523D01*
X67004213Y-97719526D01*
X67059882Y-97808122D01*
X67080360Y-97840713D01*
X67100185Y-97872263D01*
X67100187Y-97872266D01*
X67227733Y-97999812D01*
X67227736Y-97999814D01*
X67227738Y-97999816D01*
X67380478Y-98095789D01*
X67550745Y-98155368D01*
X67550748Y-98155368D01*
X67550750Y-98155369D01*
X67685035Y-98170499D01*
X67685043Y-98170499D01*
X67685046Y-98170500D01*
X67685047Y-98170500D01*
X69474953Y-98170500D01*
X69474954Y-98170500D01*
X69474958Y-98170499D01*
X69474964Y-98170499D01*
X69609249Y-98155369D01*
X69609250Y-98155368D01*
X69609255Y-98155368D01*
X69779522Y-98095789D01*
X69932262Y-97999816D01*
X69932266Y-97999812D01*
X69965425Y-97966654D01*
X70079126Y-97881538D01*
X70212201Y-97831904D01*
X70318271Y-97820500D01*
X74314623Y-97820500D01*
X74455208Y-97840713D01*
X74584403Y-97899714D01*
X74667469Y-97966654D01*
X78189616Y-101488801D01*
X78274732Y-101602502D01*
X78324366Y-101735577D01*
X78334499Y-101877245D01*
X78304308Y-102016030D01*
X78236240Y-102140687D01*
X78135810Y-102241117D01*
X78027733Y-102302661D01*
X78011143Y-102309532D01*
X77993674Y-102318434D01*
X77992656Y-102316436D01*
X77886557Y-102362163D01*
X77745571Y-102379353D01*
X77605453Y-102356126D01*
X77490803Y-102302984D01*
X77349522Y-102214211D01*
X77179255Y-102154632D01*
X77179254Y-102154631D01*
X77179249Y-102154630D01*
X77044964Y-102139500D01*
X77044954Y-102139500D01*
X76245376Y-102139500D01*
X76104791Y-102119287D01*
X75975596Y-102060286D01*
X75892530Y-101993346D01*
X74668689Y-100769504D01*
X74668670Y-100769483D01*
X74499140Y-100599954D01*
X74499139Y-100599953D01*
X74461364Y-100573503D01*
X74444116Y-100560268D01*
X74408786Y-100530623D01*
X74368857Y-100507570D01*
X74350496Y-100495872D01*
X74312734Y-100469432D01*
X74312735Y-100469432D01*
X74270954Y-100449949D01*
X74251643Y-100439896D01*
X74211716Y-100416844D01*
X74168386Y-100401073D01*
X74148277Y-100392744D01*
X74106496Y-100373261D01*
X74106494Y-100373260D01*
X74061962Y-100361328D01*
X74041196Y-100354780D01*
X73997884Y-100339016D01*
X73997874Y-100339013D01*
X73966090Y-100333409D01*
X73952472Y-100331008D01*
X73931221Y-100326296D01*
X73886697Y-100314365D01*
X73886684Y-100314363D01*
X73840765Y-100310345D01*
X73819183Y-100307504D01*
X73773786Y-100299499D01*
X73773779Y-100299499D01*
X73546221Y-100299499D01*
X73535992Y-100299499D01*
X73535968Y-100299500D01*
X70318271Y-100299500D01*
X70177686Y-100279287D01*
X70048491Y-100220286D01*
X69965425Y-100153346D01*
X69932266Y-100120187D01*
X69932263Y-100120185D01*
X69932262Y-100120184D01*
X69868122Y-100079882D01*
X69779526Y-100024213D01*
X69779524Y-100024212D01*
X69779522Y-100024211D01*
X69609255Y-99964632D01*
X69609254Y-99964631D01*
X69609249Y-99964630D01*
X69474964Y-99949500D01*
X69474954Y-99949500D01*
X67685046Y-99949500D01*
X67685035Y-99949500D01*
X67550750Y-99964630D01*
X67473304Y-99991729D01*
X67380478Y-100024211D01*
X67380476Y-100024211D01*
X67380476Y-100024212D01*
X67380473Y-100024213D01*
X67227736Y-100120185D01*
X67227733Y-100120187D01*
X67100187Y-100247733D01*
X67100185Y-100247736D01*
X67004213Y-100400473D01*
X67004211Y-100400476D01*
X67004211Y-100400478D01*
X66990418Y-100439896D01*
X66944630Y-100570750D01*
X66929500Y-100705035D01*
X66929500Y-102494956D01*
X66935096Y-102544625D01*
X66930749Y-102686588D01*
X66886583Y-102821577D01*
X66806174Y-102938654D01*
X66725443Y-103009250D01*
X66687425Y-103035870D01*
X66669066Y-103047566D01*
X66629138Y-103070618D01*
X66629127Y-103070626D01*
X66593811Y-103100259D01*
X66576546Y-103113507D01*
X66538786Y-103139948D01*
X66538776Y-103139956D01*
X65429956Y-104248776D01*
X65429948Y-104248786D01*
X65403507Y-104286546D01*
X65390259Y-104303811D01*
X65360626Y-104339127D01*
X65360618Y-104339139D01*
X65337567Y-104379064D01*
X65325873Y-104397420D01*
X65299433Y-104435181D01*
X65299429Y-104435188D01*
X65279951Y-104476960D01*
X65269899Y-104496270D01*
X65246846Y-104536199D01*
X65246844Y-104536202D01*
X65231073Y-104579531D01*
X65222743Y-104599640D01*
X65203260Y-104641421D01*
X65191329Y-104685952D01*
X65184782Y-104706718D01*
X65169016Y-104750034D01*
X65169015Y-104750035D01*
X65161010Y-104795436D01*
X65156298Y-104816690D01*
X65144364Y-104861230D01*
X65144363Y-104861233D01*
X65140345Y-104907154D01*
X65137504Y-104928736D01*
X65129500Y-104974130D01*
X65129499Y-104974144D01*
X65129498Y-105213896D01*
X65129500Y-105213917D01*
X65129500Y-109985732D01*
X65129499Y-109985758D01*
X65129499Y-110224346D01*
X65137504Y-110269743D01*
X65140345Y-110291325D01*
X65144363Y-110337244D01*
X65144365Y-110337257D01*
X65156296Y-110381781D01*
X65161010Y-110403041D01*
X65169013Y-110448434D01*
X65169016Y-110448444D01*
X65184780Y-110491756D01*
X65191328Y-110512522D01*
X65203261Y-110557056D01*
X65222744Y-110598837D01*
X65231073Y-110618946D01*
X65246844Y-110662276D01*
X65269896Y-110702203D01*
X65279949Y-110721514D01*
X65299432Y-110763295D01*
X65325872Y-110801056D01*
X65337570Y-110819417D01*
X65360623Y-110859346D01*
X65390268Y-110894676D01*
X65403503Y-110911924D01*
X65429953Y-110949699D01*
X65429954Y-110949700D01*
X65599473Y-111119220D01*
X65599494Y-111119239D01*
X66682751Y-112202496D01*
X66682766Y-112202512D01*
X66850297Y-112370044D01*
X66850298Y-112370045D01*
X66888068Y-112396491D01*
X66905334Y-112409740D01*
X66940654Y-112439377D01*
X66980601Y-112462440D01*
X66998926Y-112474114D01*
X67036706Y-112500568D01*
X67078494Y-112520054D01*
X67097791Y-112530100D01*
X67137725Y-112553156D01*
X67181048Y-112568923D01*
X67201159Y-112577253D01*
X67242944Y-112596739D01*
X67287490Y-112608674D01*
X67308236Y-112615216D01*
X67351560Y-112630985D01*
X67396965Y-112638990D01*
X67418212Y-112643701D01*
X67462748Y-112655635D01*
X67508685Y-112659653D01*
X67530238Y-112662491D01*
X67575661Y-112670501D01*
X67575662Y-112670501D01*
X67813448Y-112670501D01*
X67813472Y-112670500D01*
X80411552Y-112670500D01*
X80411576Y-112670501D01*
X80421805Y-112670501D01*
X80649360Y-112670501D01*
X80649363Y-112670501D01*
X80694792Y-112662490D01*
X80716328Y-112659654D01*
X80762276Y-112655635D01*
X80806832Y-112643695D01*
X80828044Y-112638993D01*
X80873464Y-112630985D01*
X80916797Y-112615212D01*
X80937534Y-112608674D01*
X80982080Y-112596739D01*
X81023871Y-112577250D01*
X81043964Y-112568927D01*
X81087299Y-112553156D01*
X81127243Y-112530093D01*
X81146538Y-112520049D01*
X81188318Y-112500568D01*
X81226096Y-112474114D01*
X81244418Y-112462442D01*
X81284370Y-112439377D01*
X81319697Y-112409733D01*
X81336955Y-112396491D01*
X81374723Y-112370047D01*
X81535631Y-112209139D01*
X81564065Y-112180705D01*
X81564076Y-112180691D01*
X87170691Y-106574076D01*
X87170705Y-106574065D01*
X87360038Y-106384732D01*
X87360047Y-106384723D01*
X87386493Y-106346952D01*
X87399733Y-106329697D01*
X87429377Y-106294370D01*
X87452442Y-106254418D01*
X87464114Y-106236096D01*
X87490568Y-106198318D01*
X87510049Y-106156538D01*
X87520093Y-106137243D01*
X87543156Y-106097299D01*
X87558927Y-106053964D01*
X87567250Y-106033871D01*
X87586739Y-105992080D01*
X87586742Y-105992068D01*
X87594190Y-105971608D01*
X87597319Y-105972747D01*
X87638765Y-105875919D01*
X87729176Y-105766382D01*
X87846784Y-105686753D01*
X87982063Y-105643484D01*
X88124053Y-105640080D01*
X88261249Y-105676817D01*
X88275779Y-105683312D01*
X88400000Y-105741236D01*
X88400000Y-104640000D01*
X89400000Y-104640000D01*
X89400000Y-105741235D01*
X89552481Y-105670134D01*
X89552482Y-105670133D01*
X89738819Y-105539659D01*
X89817152Y-105461326D01*
X89930852Y-105376209D01*
X90063927Y-105326574D01*
X90205596Y-105316441D01*
X90344380Y-105346631D01*
X90469037Y-105414698D01*
X90522848Y-105461326D01*
X90601179Y-105539658D01*
X90601180Y-105539659D01*
X90787517Y-105670133D01*
X90787518Y-105670134D01*
X90940000Y-105741236D01*
X90940000Y-104640000D01*
X91940000Y-104640000D01*
X91940000Y-105741235D01*
X92092481Y-105670134D01*
X92092482Y-105670133D01*
X92278819Y-105539659D01*
X92357152Y-105461326D01*
X92470852Y-105376209D01*
X92603927Y-105326574D01*
X92745596Y-105316441D01*
X92884380Y-105346631D01*
X93009037Y-105414698D01*
X93062848Y-105461326D01*
X93141179Y-105539658D01*
X93141180Y-105539659D01*
X93327517Y-105670133D01*
X93327518Y-105670134D01*
X93480000Y-105741236D01*
X93480000Y-104640000D01*
X94480000Y-104640000D01*
X94480000Y-105741235D01*
X94632481Y-105670134D01*
X94632482Y-105670133D01*
X94818819Y-105539659D01*
X94979659Y-105378819D01*
X95110134Y-105192481D01*
X95206266Y-104986326D01*
X95265140Y-104766604D01*
X95265142Y-104766592D01*
X95276217Y-104640000D01*
X94480000Y-104640000D01*
X93480000Y-104640000D01*
X91940000Y-104640000D01*
X90940000Y-104640000D01*
X89400000Y-104640000D01*
X88400000Y-104640000D01*
X88400000Y-104140000D01*
X88495014Y-104140000D01*
X88514835Y-104265148D01*
X88572359Y-104378045D01*
X88661955Y-104467641D01*
X88774852Y-104525165D01*
X88868519Y-104540000D01*
X88931481Y-104540000D01*
X89025148Y-104525165D01*
X89138045Y-104467641D01*
X89227641Y-104378045D01*
X89285165Y-104265148D01*
X89304986Y-104140000D01*
X91035014Y-104140000D01*
X91054835Y-104265148D01*
X91112359Y-104378045D01*
X91201955Y-104467641D01*
X91314852Y-104525165D01*
X91408519Y-104540000D01*
X91471481Y-104540000D01*
X91565148Y-104525165D01*
X91678045Y-104467641D01*
X91767641Y-104378045D01*
X91825165Y-104265148D01*
X91844986Y-104140000D01*
X93575014Y-104140000D01*
X93594835Y-104265148D01*
X93652359Y-104378045D01*
X93741955Y-104467641D01*
X93854852Y-104525165D01*
X93948519Y-104540000D01*
X94011481Y-104540000D01*
X94105148Y-104525165D01*
X94218045Y-104467641D01*
X94307641Y-104378045D01*
X94365165Y-104265148D01*
X94384986Y-104140000D01*
X94365165Y-104014852D01*
X94307641Y-103901955D01*
X94218045Y-103812359D01*
X94105148Y-103754835D01*
X94011481Y-103740000D01*
X93948519Y-103740000D01*
X93854852Y-103754835D01*
X93741955Y-103812359D01*
X93652359Y-103901955D01*
X93594835Y-104014852D01*
X93575014Y-104140000D01*
X91844986Y-104140000D01*
X91825165Y-104014852D01*
X91767641Y-103901955D01*
X91678045Y-103812359D01*
X91565148Y-103754835D01*
X91471481Y-103740000D01*
X91408519Y-103740000D01*
X91314852Y-103754835D01*
X91201955Y-103812359D01*
X91112359Y-103901955D01*
X91054835Y-104014852D01*
X91035014Y-104140000D01*
X89304986Y-104140000D01*
X89285165Y-104014852D01*
X89227641Y-103901955D01*
X89138045Y-103812359D01*
X89025148Y-103754835D01*
X88931481Y-103740000D01*
X88868519Y-103740000D01*
X88774852Y-103754835D01*
X88661955Y-103812359D01*
X88572359Y-103901955D01*
X88514835Y-104014852D01*
X88495014Y-104140000D01*
X88400000Y-104140000D01*
X88400000Y-103640000D01*
X89400000Y-103640000D01*
X90940000Y-103640000D01*
X91940000Y-103640000D01*
X93480000Y-103640000D01*
X93480000Y-102538761D01*
X94480000Y-102538761D01*
X94480000Y-103640000D01*
X95276217Y-103640000D01*
X95276217Y-103639999D01*
X95265142Y-103513407D01*
X95265140Y-103513395D01*
X95206266Y-103293673D01*
X95110134Y-103087518D01*
X94979659Y-102901180D01*
X94818819Y-102740340D01*
X94632479Y-102609864D01*
X94480000Y-102538761D01*
X93480000Y-102538761D01*
X93327520Y-102609864D01*
X93141180Y-102740340D01*
X93141178Y-102740342D01*
X93062846Y-102818675D01*
X92949145Y-102903791D01*
X92816070Y-102953425D01*
X92674402Y-102963558D01*
X92535617Y-102933367D01*
X92410960Y-102865299D01*
X92357154Y-102818675D01*
X92278819Y-102740340D01*
X92092479Y-102609864D01*
X91940000Y-102538761D01*
X91940000Y-103640000D01*
X90940000Y-103640000D01*
X90940000Y-102538761D01*
X90787520Y-102609864D01*
X90601180Y-102740340D01*
X90601178Y-102740342D01*
X90522846Y-102818675D01*
X90409145Y-102903791D01*
X90276070Y-102953425D01*
X90134402Y-102963558D01*
X89995617Y-102933367D01*
X89870960Y-102865299D01*
X89817154Y-102818675D01*
X89738819Y-102740340D01*
X89552479Y-102609864D01*
X89400000Y-102538761D01*
X89400000Y-103640000D01*
X88400000Y-103640000D01*
X88400000Y-102538761D01*
X88247520Y-102609864D01*
X88247515Y-102609866D01*
X88150764Y-102677613D01*
X88024011Y-102741691D01*
X87884338Y-102767463D01*
X87743063Y-102752841D01*
X87611629Y-102699010D01*
X87509973Y-102617753D01*
X87509088Y-102618639D01*
X87501144Y-102610695D01*
X87500686Y-102610329D01*
X87499898Y-102609449D01*
X87495222Y-102604773D01*
X87303666Y-102441169D01*
X87303660Y-102441165D01*
X87303659Y-102441164D01*
X87174741Y-102362163D01*
X87088859Y-102309534D01*
X86856111Y-102213127D01*
X86611153Y-102154318D01*
X86611151Y-102154317D01*
X86611148Y-102154317D01*
X86360000Y-102134551D01*
X86108852Y-102154317D01*
X86108848Y-102154317D01*
X86108846Y-102154318D01*
X85863889Y-102213127D01*
X85863887Y-102213127D01*
X85631140Y-102309534D01*
X85416348Y-102441159D01*
X85416338Y-102441166D01*
X85414064Y-102443109D01*
X85410978Y-102445060D01*
X85400485Y-102452685D01*
X85399994Y-102452009D01*
X85294033Y-102519038D01*
X85157473Y-102558074D01*
X85015446Y-102557056D01*
X84879460Y-102516066D01*
X84779935Y-102452105D01*
X84779515Y-102452685D01*
X84769392Y-102445330D01*
X84765936Y-102443109D01*
X84763661Y-102441166D01*
X84763659Y-102441164D01*
X84634741Y-102362163D01*
X84548859Y-102309534D01*
X84316111Y-102213127D01*
X84071153Y-102154318D01*
X84071151Y-102154317D01*
X84071148Y-102154317D01*
X83820000Y-102134551D01*
X83819999Y-102134551D01*
X83787407Y-102137116D01*
X83568852Y-102154317D01*
X83568848Y-102154317D01*
X83568846Y-102154318D01*
X83323889Y-102213127D01*
X83323887Y-102213127D01*
X83091133Y-102309537D01*
X83085378Y-102312470D01*
X83077908Y-102315015D01*
X83073028Y-102317037D01*
X83072897Y-102316722D01*
X82950940Y-102358283D01*
X82809040Y-102364365D01*
X82671174Y-102330222D01*
X82548513Y-102258621D01*
X82450992Y-102155363D01*
X82422216Y-102105701D01*
X82421463Y-102106136D01*
X82410570Y-102087269D01*
X82384128Y-102049506D01*
X82372427Y-102031140D01*
X82363703Y-102016030D01*
X82349376Y-101991214D01*
X82349375Y-101991212D01*
X82349374Y-101991211D01*
X82336719Y-101976131D01*
X82319741Y-101955897D01*
X82306491Y-101938628D01*
X82280043Y-101900856D01*
X82111731Y-101732544D01*
X82111692Y-101732508D01*
X76068679Y-95689494D01*
X76068660Y-95689473D01*
X75899140Y-95519954D01*
X75899139Y-95519953D01*
X75861364Y-95493503D01*
X75844116Y-95480268D01*
X75808786Y-95450623D01*
X75768857Y-95427570D01*
X75750496Y-95415872D01*
X75712734Y-95389432D01*
X75712735Y-95389432D01*
X75670954Y-95369949D01*
X75651643Y-95359896D01*
X75611716Y-95336844D01*
X75568386Y-95321073D01*
X75548277Y-95312744D01*
X75506496Y-95293261D01*
X75506494Y-95293260D01*
X75461962Y-95281328D01*
X75441196Y-95274780D01*
X75397884Y-95259016D01*
X75397872Y-95259013D01*
X75352478Y-95251009D01*
X75331212Y-95246294D01*
X75299822Y-95237882D01*
X75169261Y-95181968D01*
X75059741Y-95091536D01*
X74980135Y-94973912D01*
X74936893Y-94838624D01*
X74933517Y-94696634D01*
X74970281Y-94559445D01*
X75044206Y-94438170D01*
X75076129Y-94403054D01*
X75889362Y-93589821D01*
X76003060Y-93504708D01*
X76136135Y-93455074D01*
X76203042Y-93445209D01*
X76451148Y-93425683D01*
X76696111Y-93366873D01*
X76928859Y-93270466D01*
X77143659Y-93138836D01*
X77145929Y-93136897D01*
X77149004Y-93134951D01*
X77159515Y-93127315D01*
X77160006Y-93127991D01*
X77265952Y-93060968D01*
X77402511Y-93021927D01*
X77544537Y-93022940D01*
X77680525Y-93063926D01*
X77780063Y-93127895D01*
X77780485Y-93127315D01*
X77790627Y-93134684D01*
X77794070Y-93136896D01*
X77796341Y-93138836D01*
X78011141Y-93270466D01*
X78243889Y-93366873D01*
X78488852Y-93425683D01*
X78740000Y-93445449D01*
X78991148Y-93425683D01*
X79236111Y-93366873D01*
X79468859Y-93270466D01*
X79683659Y-93138836D01*
X79685918Y-93136906D01*
X79688979Y-93134969D01*
X79699515Y-93127315D01*
X79700007Y-93127992D01*
X79805937Y-93060974D01*
X79942495Y-93021929D01*
X80084522Y-93022938D01*
X80220511Y-93063920D01*
X80320063Y-93127894D01*
X80320485Y-93127315D01*
X80330613Y-93134674D01*
X80334064Y-93136891D01*
X80336341Y-93138836D01*
X80551141Y-93270466D01*
X80783889Y-93366873D01*
X81028852Y-93425683D01*
X81280000Y-93445449D01*
X81531148Y-93425683D01*
X81776111Y-93366873D01*
X82008859Y-93270466D01*
X82223659Y-93138836D01*
X82225918Y-93136906D01*
X82228979Y-93134969D01*
X82239515Y-93127315D01*
X82240007Y-93127992D01*
X82345937Y-93060974D01*
X82482495Y-93021929D01*
X82624522Y-93022938D01*
X82760511Y-93063920D01*
X82860063Y-93127894D01*
X82860485Y-93127315D01*
X82870613Y-93134674D01*
X82874064Y-93136891D01*
X82876341Y-93138836D01*
X83091141Y-93270466D01*
X83323889Y-93366873D01*
X83568852Y-93425683D01*
X83820000Y-93445449D01*
X84071148Y-93425683D01*
X84316111Y-93366873D01*
X84548859Y-93270466D01*
X84763659Y-93138836D01*
X84765929Y-93136897D01*
X84769004Y-93134951D01*
X84779515Y-93127315D01*
X84780006Y-93127991D01*
X84885952Y-93060968D01*
X85022511Y-93021927D01*
X85164537Y-93022940D01*
X85300525Y-93063926D01*
X85400063Y-93127895D01*
X85400485Y-93127315D01*
X85410627Y-93134684D01*
X85414070Y-93136896D01*
X85416341Y-93138836D01*
X85631141Y-93270466D01*
X85863889Y-93366873D01*
X86108852Y-93425683D01*
X86360000Y-93445449D01*
X86611148Y-93425683D01*
X86856111Y-93366873D01*
X87088859Y-93270466D01*
X87303659Y-93138836D01*
X87305929Y-93136897D01*
X87309004Y-93134951D01*
X87319515Y-93127315D01*
X87320006Y-93127991D01*
X87425952Y-93060968D01*
X87562511Y-93021927D01*
X87704537Y-93022940D01*
X87840525Y-93063926D01*
X87940063Y-93127895D01*
X87940485Y-93127315D01*
X87950627Y-93134684D01*
X87954070Y-93136896D01*
X87956341Y-93138836D01*
X88171141Y-93270466D01*
X88403889Y-93366873D01*
X88648852Y-93425683D01*
X88900000Y-93445449D01*
X89151148Y-93425683D01*
X89396111Y-93366873D01*
X89628859Y-93270466D01*
X89843659Y-93138836D01*
X89845929Y-93136897D01*
X89849004Y-93134951D01*
X89859515Y-93127315D01*
X89860006Y-93127991D01*
X89965952Y-93060968D01*
X90102511Y-93021927D01*
X90244537Y-93022940D01*
X90380525Y-93063926D01*
X90480063Y-93127895D01*
X90480485Y-93127315D01*
X90490627Y-93134684D01*
X90494070Y-93136896D01*
X90496341Y-93138836D01*
X90711141Y-93270466D01*
X90943889Y-93366873D01*
X91188852Y-93425683D01*
X91440000Y-93445449D01*
X91691148Y-93425683D01*
X91936111Y-93366873D01*
X92168859Y-93270466D01*
X92383659Y-93138836D01*
X92385929Y-93136897D01*
X92389004Y-93134951D01*
X92399515Y-93127315D01*
X92400006Y-93127991D01*
X92505952Y-93060968D01*
X92642511Y-93021927D01*
X92784537Y-93022940D01*
X92920525Y-93063926D01*
X93020063Y-93127895D01*
X93020485Y-93127315D01*
X93030627Y-93134684D01*
X93034070Y-93136896D01*
X93036341Y-93138836D01*
X93251141Y-93270466D01*
X93483889Y-93366873D01*
X93728852Y-93425683D01*
X93980000Y-93445449D01*
X94231148Y-93425683D01*
X94476111Y-93366873D01*
X94708859Y-93270466D01*
X94923659Y-93138836D01*
X95059358Y-93022938D01*
X95115222Y-92975226D01*
X95115226Y-92975222D01*
X95278830Y-92783666D01*
X95278829Y-92783666D01*
X95278836Y-92783659D01*
X95410466Y-92568859D01*
X95506873Y-92336111D01*
X95565683Y-92091148D01*
X95580500Y-91902882D01*
X95580500Y-90977118D01*
X95565683Y-90788852D01*
X95506873Y-90543889D01*
X95410466Y-90311141D01*
X95354030Y-90219046D01*
X95297811Y-90088618D01*
X95280500Y-89958323D01*
X95280500Y-84997371D01*
X95300713Y-84856786D01*
X95354032Y-84736645D01*
X95455153Y-84571629D01*
X95455154Y-84571628D01*
X95554573Y-84331610D01*
X95615221Y-84078994D01*
X95635604Y-83820000D01*
X95615221Y-83561006D01*
X95554573Y-83308390D01*
X95455154Y-83068372D01*
X95367317Y-82925035D01*
X95319415Y-82846865D01*
X95319412Y-82846860D01*
X95150689Y-82649311D01*
X94953140Y-82480588D01*
X94953135Y-82480585D01*
X94953134Y-82480584D01*
X94731634Y-82344849D01*
X94731622Y-82344843D01*
X94491617Y-82245429D01*
X94491608Y-82245426D01*
X94354859Y-82212596D01*
X94238994Y-82184779D01*
X94238991Y-82184778D01*
X94238988Y-82184778D01*
X93980000Y-82164396D01*
X93721013Y-82184778D01*
X93721009Y-82184778D01*
X93468391Y-82245426D01*
X93468382Y-82245429D01*
X93228377Y-82344843D01*
X93228365Y-82344849D01*
X93006860Y-82480587D01*
X93003301Y-82483173D01*
X92998547Y-82485680D01*
X92990142Y-82490832D01*
X92989810Y-82490291D01*
X92877684Y-82549453D01*
X92738483Y-82577657D01*
X92596974Y-82565502D01*
X92464621Y-82513971D01*
X92416699Y-82483173D01*
X92413139Y-82480587D01*
X92191634Y-82344849D01*
X92191622Y-82344843D01*
X91951617Y-82245429D01*
X91951608Y-82245426D01*
X91814859Y-82212596D01*
X91698994Y-82184779D01*
X91698991Y-82184778D01*
X91698988Y-82184778D01*
X91440000Y-82164396D01*
X91181013Y-82184778D01*
X91181009Y-82184778D01*
X90928391Y-82245426D01*
X90928382Y-82245429D01*
X90670260Y-82352348D01*
X90668828Y-82348892D01*
X90569337Y-82382763D01*
X90427436Y-82388802D01*
X90289580Y-82354618D01*
X90211900Y-82314823D01*
X90099526Y-82244213D01*
X90099524Y-82244212D01*
X90099522Y-82244211D01*
X89929255Y-82184632D01*
X89929254Y-82184631D01*
X89929249Y-82184630D01*
X89794964Y-82169500D01*
X89794954Y-82169500D01*
X88005046Y-82169500D01*
X88005035Y-82169500D01*
X87870750Y-82184630D01*
X87793305Y-82211729D01*
X87700478Y-82244211D01*
X87700476Y-82244211D01*
X87700476Y-82244212D01*
X87700473Y-82244213D01*
X87547736Y-82340185D01*
X87547733Y-82340187D01*
X87420187Y-82467733D01*
X87420185Y-82467736D01*
X87324213Y-82620473D01*
X87324212Y-82620476D01*
X87264630Y-82790750D01*
X87249500Y-82925035D01*
X87249500Y-84714964D01*
X87264630Y-84849249D01*
X87264631Y-84849254D01*
X87264632Y-84849255D01*
X87324211Y-85019522D01*
X87324212Y-85019523D01*
X87324213Y-85019526D01*
X87420185Y-85172263D01*
X87420187Y-85172266D01*
X87453346Y-85205425D01*
X87538462Y-85319126D01*
X87588096Y-85452201D01*
X87599500Y-85558271D01*
X87599500Y-88218870D01*
X87579287Y-88359455D01*
X87520286Y-88488650D01*
X87427276Y-88595989D01*
X87307792Y-88672776D01*
X87171515Y-88712791D01*
X87029485Y-88712791D01*
X86893208Y-88672776D01*
X86773724Y-88595989D01*
X86747654Y-88571716D01*
X80966682Y-82790745D01*
X79015431Y-80839494D01*
X79015412Y-80839473D01*
X78845892Y-80669954D01*
X78845888Y-80669951D01*
X78808116Y-80643503D01*
X78790868Y-80630268D01*
X78755538Y-80600623D01*
X78715609Y-80577570D01*
X78697248Y-80565872D01*
X78659486Y-80539432D01*
X78659487Y-80539432D01*
X78617706Y-80519949D01*
X78598395Y-80509896D01*
X78558468Y-80486844D01*
X78515138Y-80471073D01*
X78495029Y-80462744D01*
X78453248Y-80443261D01*
X78453246Y-80443260D01*
X78408714Y-80431328D01*
X78387948Y-80424780D01*
X78344636Y-80409016D01*
X78344626Y-80409013D01*
X78312842Y-80403409D01*
X78299224Y-80401008D01*
X78277973Y-80396296D01*
X78233449Y-80384365D01*
X78233436Y-80384363D01*
X78187517Y-80380345D01*
X78165935Y-80377504D01*
X78120538Y-80369499D01*
X78120531Y-80369499D01*
X77892973Y-80369499D01*
X77882744Y-80369499D01*
X77882720Y-80369500D01*
X66497681Y-80369500D01*
X66475926Y-80368550D01*
X66430000Y-80364532D01*
X66373216Y-80369500D01*
X66316579Y-80374455D01*
X66203306Y-80384365D01*
X65983501Y-80443261D01*
X65777263Y-80539433D01*
X65590863Y-80669951D01*
X65590857Y-80669956D01*
X65429956Y-80830857D01*
X65429951Y-80830863D01*
X65299433Y-81017263D01*
X65203261Y-81223501D01*
X65144365Y-81443306D01*
X65124531Y-81669998D01*
X65124532Y-81669999D01*
X65128550Y-81715924D01*
X65129500Y-81737680D01*
X65129499Y-89656154D01*
X65129499Y-89904346D01*
X65137504Y-89949743D01*
X65140345Y-89971325D01*
X65144363Y-90017244D01*
X65144365Y-90017257D01*
X65156296Y-90061781D01*
X65161010Y-90083041D01*
X65169013Y-90128434D01*
X65169016Y-90128444D01*
X65184780Y-90171756D01*
X65191328Y-90192522D01*
X65198435Y-90219048D01*
X65203261Y-90237056D01*
X65222744Y-90278837D01*
X65231073Y-90298946D01*
X65246844Y-90342276D01*
X65269896Y-90382203D01*
X65279949Y-90401514D01*
X65299432Y-90443295D01*
X65325872Y-90481056D01*
X65337570Y-90499417D01*
X65360623Y-90539346D01*
X65390268Y-90574676D01*
X65403503Y-90591924D01*
X65429103Y-90628485D01*
X65429954Y-90629700D01*
X65599483Y-90799230D01*
X65599504Y-90799249D01*
X66240255Y-91440000D01*
X66587910Y-91787654D01*
X66673026Y-91901355D01*
X66722660Y-92034430D01*
X66732793Y-92176098D01*
X66702602Y-92314882D01*
X66634534Y-92439539D01*
X66534104Y-92539970D01*
X66409447Y-92608038D01*
X66270663Y-92638229D01*
X66235064Y-92639500D01*
X50342341Y-92639500D01*
X50201756Y-92619287D01*
X50072561Y-92560286D01*
X49965222Y-92467276D01*
X49888435Y-92347792D01*
X49848420Y-92211515D01*
X49844880Y-92101345D01*
X49860499Y-91902903D01*
X49860498Y-91902894D01*
X49860500Y-91902882D01*
X49860500Y-90977118D01*
X49845683Y-90788852D01*
X49786873Y-90543889D01*
X49690466Y-90311141D01*
X49634030Y-90219046D01*
X49577811Y-90088618D01*
X49560500Y-89958323D01*
X49560500Y-84997371D01*
X49580713Y-84856786D01*
X49634032Y-84736645D01*
X49735153Y-84571629D01*
X49735154Y-84571628D01*
X49834573Y-84331610D01*
X49895221Y-84078994D01*
X49915604Y-83820000D01*
X49895221Y-83561006D01*
X49834573Y-83308390D01*
X49735154Y-83068372D01*
X49647317Y-82925035D01*
X49599415Y-82846865D01*
X49599412Y-82846860D01*
X49430689Y-82649311D01*
X49233140Y-82480588D01*
X49233135Y-82480585D01*
X49233134Y-82480584D01*
X49011634Y-82344849D01*
X49011622Y-82344843D01*
X48771617Y-82245429D01*
X48771608Y-82245426D01*
X48634859Y-82212596D01*
X48518994Y-82184779D01*
X48518991Y-82184778D01*
X48518988Y-82184778D01*
X48293606Y-82167040D01*
X48260000Y-82164396D01*
X48259999Y-82164396D01*
X48001013Y-82184778D01*
X48001009Y-82184778D01*
X47748391Y-82245426D01*
X47748382Y-82245429D01*
X47508377Y-82344843D01*
X47508365Y-82344849D01*
X47286860Y-82480587D01*
X47283301Y-82483173D01*
X47278547Y-82485680D01*
X47270142Y-82490832D01*
X47269810Y-82490291D01*
X47157684Y-82549453D01*
X47018483Y-82577657D01*
X46876974Y-82565502D01*
X46744621Y-82513971D01*
X46696699Y-82483173D01*
X46693139Y-82480587D01*
X46471634Y-82344849D01*
X46471622Y-82344843D01*
X46231617Y-82245429D01*
X46231608Y-82245426D01*
X46094859Y-82212596D01*
X45978994Y-82184779D01*
X45978991Y-82184778D01*
X45978988Y-82184778D01*
X45720000Y-82164396D01*
X45461013Y-82184778D01*
X45461009Y-82184778D01*
X45208391Y-82245426D01*
X45208382Y-82245429D01*
X44950260Y-82352348D01*
X44948828Y-82348892D01*
X44849337Y-82382763D01*
X44707436Y-82388802D01*
X44569580Y-82354618D01*
X44491900Y-82314823D01*
X44379526Y-82244213D01*
X44379524Y-82244212D01*
X44379522Y-82244211D01*
X44209255Y-82184632D01*
X44209254Y-82184631D01*
X44209249Y-82184630D01*
X44074964Y-82169500D01*
X44074954Y-82169500D01*
X42285046Y-82169500D01*
X42285035Y-82169500D01*
X42150750Y-82184630D01*
X42073305Y-82211729D01*
X41980478Y-82244211D01*
X41980476Y-82244211D01*
X41980476Y-82244212D01*
X41980473Y-82244213D01*
X41827736Y-82340185D01*
X41827733Y-82340187D01*
X41700187Y-82467733D01*
X41700185Y-82467736D01*
X41604213Y-82620473D01*
X41604212Y-82620476D01*
X41544630Y-82790750D01*
X41529500Y-82925035D01*
X41529500Y-84714964D01*
X41544630Y-84849249D01*
X41544631Y-84849254D01*
X41544632Y-84849255D01*
X41604211Y-85019522D01*
X41604212Y-85019523D01*
X41604213Y-85019526D01*
X41700185Y-85172263D01*
X41700187Y-85172266D01*
X41733346Y-85205425D01*
X41818462Y-85319126D01*
X41868096Y-85452201D01*
X41879500Y-85558271D01*
X41879500Y-88218871D01*
X41859287Y-88359456D01*
X41800286Y-88488651D01*
X41707276Y-88595990D01*
X41587792Y-88672777D01*
X41451515Y-88712792D01*
X41309485Y-88712792D01*
X41173208Y-88672777D01*
X41053724Y-88595990D01*
X41027654Y-88571717D01*
X37170891Y-84714954D01*
X33295431Y-80839494D01*
X33295412Y-80839473D01*
X33125892Y-80669954D01*
X33125888Y-80669951D01*
X33088116Y-80643503D01*
X33070868Y-80630268D01*
X33035538Y-80600623D01*
X32995609Y-80577570D01*
X32977248Y-80565872D01*
X32939486Y-80539432D01*
X32939487Y-80539432D01*
X32897706Y-80519949D01*
X32878395Y-80509896D01*
X32838468Y-80486844D01*
X32795138Y-80471073D01*
X32775029Y-80462744D01*
X32733248Y-80443261D01*
X32733246Y-80443260D01*
X32688714Y-80431328D01*
X32667948Y-80424780D01*
X32624636Y-80409016D01*
X32624626Y-80409013D01*
X32592842Y-80403409D01*
X32579224Y-80401008D01*
X32557973Y-80396296D01*
X32513449Y-80384365D01*
X32513436Y-80384363D01*
X32467517Y-80380345D01*
X32445935Y-80377504D01*
X32400538Y-80369499D01*
X32400531Y-80369499D01*
X32172973Y-80369499D01*
X32162744Y-80369499D01*
X32162720Y-80369500D01*
X20777681Y-80369500D01*
X20755926Y-80368550D01*
X20710000Y-80364532D01*
X20709500Y-80364532D01*
X20708722Y-80364420D01*
X20688295Y-80362633D01*
X20688394Y-80361497D01*
X20568915Y-80344319D01*
X20439720Y-80285318D01*
X20332381Y-80192308D01*
X20255594Y-80072824D01*
X20215579Y-79936547D01*
X20210500Y-79865532D01*
X20210500Y-79865531D01*
X20210500Y-77094931D01*
X20230712Y-76954354D01*
X20289713Y-76825158D01*
X20382723Y-76717819D01*
X20502207Y-76641032D01*
X20638484Y-76601017D01*
X20780514Y-76601017D01*
X20916791Y-76641032D01*
X21036274Y-76717819D01*
X21062345Y-76742092D01*
X21130298Y-76810045D01*
X21168068Y-76836491D01*
X21185334Y-76849740D01*
X21220654Y-76879377D01*
X21260601Y-76902440D01*
X21278926Y-76914114D01*
X21316706Y-76940568D01*
X21358494Y-76960054D01*
X21377791Y-76970100D01*
X21417725Y-76993156D01*
X21461048Y-77008923D01*
X21481159Y-77017253D01*
X21522944Y-77036739D01*
X21567490Y-77048674D01*
X21588236Y-77055216D01*
X21631560Y-77070985D01*
X21676965Y-77078990D01*
X21698212Y-77083701D01*
X21742748Y-77095635D01*
X21788685Y-77099653D01*
X21810238Y-77102491D01*
X21855661Y-77110501D01*
X21855662Y-77110501D01*
X22093448Y-77110501D01*
X22093472Y-77110500D01*
X34691552Y-77110500D01*
X34691576Y-77110501D01*
X34701805Y-77110501D01*
X34929360Y-77110501D01*
X34929363Y-77110501D01*
X34974792Y-77102490D01*
X34996328Y-77099654D01*
X35042276Y-77095635D01*
X35086832Y-77083695D01*
X35108044Y-77078993D01*
X35153464Y-77070985D01*
X35196797Y-77055212D01*
X35217534Y-77048674D01*
X35262080Y-77036739D01*
X35303871Y-77017250D01*
X35323964Y-77008927D01*
X35367299Y-76993156D01*
X35407243Y-76970093D01*
X35426538Y-76960049D01*
X35468318Y-76940568D01*
X35506096Y-76914114D01*
X35524418Y-76902442D01*
X35564370Y-76879377D01*
X35599697Y-76849733D01*
X35616955Y-76836491D01*
X35654723Y-76810047D01*
X35815631Y-76649139D01*
X35844065Y-76620705D01*
X35844076Y-76620691D01*
X41450691Y-71014076D01*
X41450705Y-71014065D01*
X41640038Y-70824732D01*
X41640047Y-70824723D01*
X41666493Y-70786952D01*
X41679733Y-70769697D01*
X41709377Y-70734370D01*
X41732442Y-70694418D01*
X41744114Y-70676096D01*
X41770568Y-70638318D01*
X41790049Y-70596538D01*
X41800093Y-70577243D01*
X41823156Y-70537299D01*
X41838927Y-70493964D01*
X41847250Y-70473871D01*
X41866739Y-70432080D01*
X41866742Y-70432068D01*
X41874190Y-70411608D01*
X41877319Y-70412747D01*
X41918765Y-70315919D01*
X42009176Y-70206382D01*
X42126784Y-70126753D01*
X42262063Y-70083484D01*
X42404053Y-70080080D01*
X42541249Y-70116817D01*
X42555779Y-70123312D01*
X42680000Y-70181236D01*
X42680000Y-69080000D01*
X43680000Y-69080000D01*
X43680000Y-70181236D01*
X43832481Y-70110134D01*
X43832482Y-70110133D01*
X44018819Y-69979659D01*
X44018821Y-69979657D01*
X44097154Y-69901325D01*
X44210855Y-69816209D01*
X44343930Y-69766575D01*
X44485598Y-69756442D01*
X44624383Y-69786633D01*
X44749040Y-69854701D01*
X44802846Y-69901325D01*
X44881180Y-69979659D01*
X45067517Y-70110133D01*
X45067518Y-70110134D01*
X45220000Y-70181236D01*
X45220000Y-69080000D01*
X46220000Y-69080000D01*
X46220000Y-70181235D01*
X46372481Y-70110134D01*
X46372482Y-70110133D01*
X46558819Y-69979659D01*
X46558821Y-69979657D01*
X46637154Y-69901325D01*
X46750855Y-69816209D01*
X46883930Y-69766575D01*
X47025598Y-69756442D01*
X47164383Y-69786633D01*
X47289040Y-69854701D01*
X47342846Y-69901325D01*
X47421180Y-69979659D01*
X47607517Y-70110133D01*
X47607518Y-70110134D01*
X47760000Y-70181236D01*
X47760000Y-69080000D01*
X48760000Y-69080000D01*
X48760000Y-70181235D01*
X48912481Y-70110134D01*
X48912482Y-70110133D01*
X49098819Y-69979659D01*
X49259659Y-69818819D01*
X49390134Y-69632481D01*
X49486266Y-69426326D01*
X49545140Y-69206604D01*
X49545142Y-69206592D01*
X49556217Y-69080000D01*
X48760000Y-69080000D01*
X47760000Y-69080000D01*
X46220000Y-69080000D01*
X45220000Y-69080000D01*
X43680000Y-69080000D01*
X42680000Y-69080000D01*
X42680000Y-68580000D01*
X42775014Y-68580000D01*
X42794835Y-68705148D01*
X42852359Y-68818045D01*
X42941955Y-68907641D01*
X43054852Y-68965165D01*
X43148519Y-68980000D01*
X43211481Y-68980000D01*
X43305148Y-68965165D01*
X43418045Y-68907641D01*
X43507641Y-68818045D01*
X43565165Y-68705148D01*
X43584986Y-68580000D01*
X45315014Y-68580000D01*
X45334835Y-68705148D01*
X45392359Y-68818045D01*
X45481955Y-68907641D01*
X45594852Y-68965165D01*
X45688519Y-68980000D01*
X45751481Y-68980000D01*
X45845148Y-68965165D01*
X45958045Y-68907641D01*
X46047641Y-68818045D01*
X46105165Y-68705148D01*
X46124986Y-68580000D01*
X47855014Y-68580000D01*
X47874835Y-68705148D01*
X47932359Y-68818045D01*
X48021955Y-68907641D01*
X48134852Y-68965165D01*
X48228519Y-68980000D01*
X48291481Y-68980000D01*
X48385148Y-68965165D01*
X48498045Y-68907641D01*
X48587641Y-68818045D01*
X48645165Y-68705148D01*
X48664986Y-68580000D01*
X48645165Y-68454852D01*
X48587641Y-68341955D01*
X48498045Y-68252359D01*
X48385148Y-68194835D01*
X48291481Y-68180000D01*
X48228519Y-68180000D01*
X48134852Y-68194835D01*
X48021955Y-68252359D01*
X47932359Y-68341955D01*
X47874835Y-68454852D01*
X47855014Y-68580000D01*
X46124986Y-68580000D01*
X46105165Y-68454852D01*
X46047641Y-68341955D01*
X45958045Y-68252359D01*
X45845148Y-68194835D01*
X45751481Y-68180000D01*
X45688519Y-68180000D01*
X45594852Y-68194835D01*
X45481955Y-68252359D01*
X45392359Y-68341955D01*
X45334835Y-68454852D01*
X45315014Y-68580000D01*
X43584986Y-68580000D01*
X43565165Y-68454852D01*
X43507641Y-68341955D01*
X43418045Y-68252359D01*
X43305148Y-68194835D01*
X43211481Y-68180000D01*
X43148519Y-68180000D01*
X43054852Y-68194835D01*
X42941955Y-68252359D01*
X42852359Y-68341955D01*
X42794835Y-68454852D01*
X42775014Y-68580000D01*
X42680000Y-68580000D01*
X42680000Y-68080000D01*
X43680000Y-68080000D01*
X45220000Y-68080000D01*
X46220000Y-68080000D01*
X47760000Y-68080000D01*
X47759999Y-66978761D01*
X48760000Y-66978761D01*
X48760000Y-68080000D01*
X49556217Y-68080000D01*
X49556217Y-68079999D01*
X49545142Y-67953407D01*
X49545140Y-67953395D01*
X49486266Y-67733673D01*
X49390134Y-67527518D01*
X49259659Y-67341180D01*
X49098819Y-67180340D01*
X48912479Y-67049864D01*
X48760000Y-66978761D01*
X47759999Y-66978761D01*
X47607520Y-67049864D01*
X47421180Y-67180340D01*
X47421178Y-67180342D01*
X47342846Y-67258675D01*
X47229145Y-67343791D01*
X47096070Y-67393425D01*
X46954402Y-67403558D01*
X46815617Y-67373367D01*
X46690960Y-67305299D01*
X46637154Y-67258675D01*
X46558819Y-67180340D01*
X46372479Y-67049864D01*
X46220000Y-66978761D01*
X46220000Y-68080000D01*
X45220000Y-68080000D01*
X45219999Y-66978761D01*
X45067520Y-67049864D01*
X44881180Y-67180340D01*
X44881178Y-67180342D01*
X44802846Y-67258675D01*
X44689145Y-67343791D01*
X44556070Y-67393425D01*
X44414402Y-67403558D01*
X44275617Y-67373367D01*
X44150960Y-67305299D01*
X44097154Y-67258675D01*
X44018819Y-67180340D01*
X43832479Y-67049864D01*
X43680000Y-66978761D01*
X43680000Y-68080000D01*
X42680000Y-68080000D01*
X42680000Y-66978761D01*
X42527520Y-67049864D01*
X42527515Y-67049866D01*
X42430764Y-67117613D01*
X42304011Y-67181691D01*
X42164338Y-67207463D01*
X42023063Y-67192841D01*
X41891629Y-67139010D01*
X41789973Y-67057753D01*
X41789088Y-67058639D01*
X41781144Y-67050695D01*
X41780686Y-67050329D01*
X41779898Y-67049449D01*
X41775222Y-67044773D01*
X41583666Y-66881169D01*
X41583660Y-66881165D01*
X41583659Y-66881164D01*
X41454741Y-66802163D01*
X41368859Y-66749534D01*
X41136111Y-66653127D01*
X40891153Y-66594318D01*
X40891151Y-66594317D01*
X40891148Y-66594317D01*
X40640000Y-66574551D01*
X40639999Y-66574551D01*
X40607407Y-66577116D01*
X40388852Y-66594317D01*
X40388848Y-66594317D01*
X40388846Y-66594318D01*
X40143889Y-66653127D01*
X40143887Y-66653127D01*
X39911140Y-66749534D01*
X39696348Y-66881159D01*
X39696338Y-66881166D01*
X39694064Y-66883109D01*
X39690978Y-66885060D01*
X39680485Y-66892685D01*
X39679994Y-66892009D01*
X39574033Y-66959038D01*
X39437473Y-66998074D01*
X39295446Y-66997056D01*
X39159460Y-66956066D01*
X39059935Y-66892105D01*
X39059515Y-66892685D01*
X39049392Y-66885330D01*
X39045936Y-66883109D01*
X39043661Y-66881166D01*
X39043659Y-66881164D01*
X38914741Y-66802163D01*
X38828859Y-66749534D01*
X38596111Y-66653127D01*
X38351153Y-66594318D01*
X38351151Y-66594317D01*
X38351148Y-66594317D01*
X38100000Y-66574551D01*
X38099999Y-66574551D01*
X38067407Y-66577116D01*
X37848852Y-66594317D01*
X37848848Y-66594317D01*
X37848846Y-66594318D01*
X37603889Y-66653127D01*
X37603887Y-66653127D01*
X37371133Y-66749537D01*
X37365378Y-66752470D01*
X37357908Y-66755015D01*
X37353028Y-66757037D01*
X37352897Y-66756722D01*
X37230940Y-66798283D01*
X37089040Y-66804365D01*
X36951174Y-66770222D01*
X36828513Y-66698621D01*
X36730992Y-66595363D01*
X36702216Y-66545701D01*
X36701463Y-66546136D01*
X36690570Y-66527269D01*
X36664128Y-66489506D01*
X36652427Y-66471140D01*
X36643703Y-66456030D01*
X36629376Y-66431214D01*
X36629375Y-66431212D01*
X36629374Y-66431211D01*
X36616719Y-66416131D01*
X36599741Y-66395897D01*
X36586491Y-66378628D01*
X36560043Y-66340856D01*
X36391731Y-66172544D01*
X36391692Y-66172508D01*
X30664156Y-60444971D01*
X30579040Y-60331270D01*
X30529406Y-60198195D01*
X30519273Y-60056527D01*
X30549464Y-59917742D01*
X30617532Y-59793085D01*
X30717962Y-59692655D01*
X30842619Y-59624587D01*
X30981404Y-59594396D01*
X31123072Y-59604529D01*
X31146113Y-59610117D01*
X31178053Y-59618675D01*
X31198789Y-59625213D01*
X31242120Y-59640985D01*
X31287525Y-59648990D01*
X31308772Y-59653701D01*
X31353308Y-59665635D01*
X31399245Y-59669653D01*
X31420798Y-59672491D01*
X31466221Y-59680501D01*
X31466222Y-59680501D01*
X31704008Y-59680501D01*
X31704032Y-59680500D01*
X66430500Y-59680500D01*
X66571085Y-59700713D01*
X66700280Y-59759714D01*
X66807619Y-59852724D01*
X66884406Y-59972208D01*
X66924421Y-60108485D01*
X66929500Y-60179500D01*
X66929500Y-61854964D01*
X66944630Y-61989249D01*
X66944631Y-61989254D01*
X66944632Y-61989255D01*
X67004211Y-62159522D01*
X67004212Y-62159523D01*
X67004213Y-62159526D01*
X67059882Y-62248122D01*
X67080360Y-62280713D01*
X67100185Y-62312263D01*
X67100187Y-62312266D01*
X67227733Y-62439812D01*
X67227736Y-62439814D01*
X67227738Y-62439816D01*
X67380478Y-62535789D01*
X67550745Y-62595368D01*
X67550748Y-62595368D01*
X67550750Y-62595369D01*
X67685035Y-62610499D01*
X67685043Y-62610499D01*
X67685046Y-62610500D01*
X67685047Y-62610500D01*
X69474953Y-62610500D01*
X69474954Y-62610500D01*
X69474958Y-62610499D01*
X69474964Y-62610499D01*
X69609249Y-62595369D01*
X69609250Y-62595368D01*
X69609255Y-62595368D01*
X69779522Y-62535789D01*
X69932262Y-62439816D01*
X69932266Y-62439812D01*
X69965425Y-62406654D01*
X70079126Y-62321538D01*
X70212201Y-62271904D01*
X70318271Y-62260500D01*
X74314623Y-62260500D01*
X74455208Y-62280713D01*
X74584403Y-62339714D01*
X74667469Y-62406654D01*
X78189616Y-65928801D01*
X78274732Y-66042502D01*
X78324366Y-66175577D01*
X78334499Y-66317245D01*
X78304308Y-66456030D01*
X78236240Y-66580687D01*
X78135810Y-66681117D01*
X78027733Y-66742661D01*
X78011143Y-66749532D01*
X77993674Y-66758434D01*
X77992656Y-66756436D01*
X77886557Y-66802163D01*
X77745571Y-66819353D01*
X77605453Y-66796126D01*
X77490803Y-66742984D01*
X77349522Y-66654211D01*
X77179255Y-66594632D01*
X77179254Y-66594631D01*
X77179249Y-66594630D01*
X77044964Y-66579500D01*
X77044954Y-66579500D01*
X76245376Y-66579500D01*
X76104791Y-66559287D01*
X75975596Y-66500286D01*
X75892530Y-66433346D01*
X74668689Y-65209504D01*
X74668670Y-65209483D01*
X74499140Y-65039954D01*
X74499139Y-65039953D01*
X74461364Y-65013503D01*
X74444116Y-65000268D01*
X74408786Y-64970623D01*
X74368857Y-64947570D01*
X74350496Y-64935872D01*
X74312734Y-64909432D01*
X74312735Y-64909432D01*
X74270954Y-64889949D01*
X74251643Y-64879896D01*
X74211716Y-64856844D01*
X74168386Y-64841073D01*
X74148277Y-64832744D01*
X74106496Y-64813261D01*
X74106494Y-64813260D01*
X74061962Y-64801328D01*
X74041196Y-64794780D01*
X73997884Y-64779016D01*
X73997874Y-64779013D01*
X73966090Y-64773409D01*
X73952472Y-64771008D01*
X73931221Y-64766296D01*
X73886697Y-64754365D01*
X73886684Y-64754363D01*
X73840765Y-64750345D01*
X73819183Y-64747504D01*
X73773786Y-64739499D01*
X73773779Y-64739499D01*
X73546221Y-64739499D01*
X73535992Y-64739499D01*
X73535968Y-64739500D01*
X70318271Y-64739500D01*
X70177686Y-64719287D01*
X70048491Y-64660286D01*
X69965425Y-64593346D01*
X69932266Y-64560187D01*
X69932263Y-64560185D01*
X69932262Y-64560184D01*
X69868122Y-64519882D01*
X69779526Y-64464213D01*
X69779524Y-64464212D01*
X69779522Y-64464211D01*
X69609255Y-64404632D01*
X69609254Y-64404631D01*
X69609249Y-64404630D01*
X69474964Y-64389500D01*
X69474954Y-64389500D01*
X67685046Y-64389500D01*
X67685035Y-64389500D01*
X67550750Y-64404630D01*
X67473305Y-64431729D01*
X67380478Y-64464211D01*
X67380476Y-64464211D01*
X67380476Y-64464212D01*
X67380473Y-64464213D01*
X67227736Y-64560185D01*
X67227733Y-64560187D01*
X67100187Y-64687733D01*
X67100185Y-64687736D01*
X67004213Y-64840473D01*
X67004211Y-64840476D01*
X67004211Y-64840478D01*
X66990418Y-64879896D01*
X66944630Y-65010750D01*
X66929500Y-65145035D01*
X66929500Y-66934956D01*
X66935096Y-66984625D01*
X66930749Y-67126588D01*
X66886583Y-67261577D01*
X66806174Y-67378654D01*
X66725443Y-67449250D01*
X66687425Y-67475870D01*
X66669066Y-67487566D01*
X66629138Y-67510618D01*
X66629127Y-67510626D01*
X66593811Y-67540259D01*
X66576546Y-67553507D01*
X66538786Y-67579948D01*
X66538776Y-67579956D01*
X65429956Y-68688776D01*
X65429948Y-68688786D01*
X65403507Y-68726546D01*
X65390259Y-68743811D01*
X65360626Y-68779127D01*
X65360618Y-68779139D01*
X65337567Y-68819064D01*
X65325873Y-68837420D01*
X65299433Y-68875181D01*
X65299429Y-68875188D01*
X65279951Y-68916960D01*
X65269899Y-68936270D01*
X65246846Y-68976199D01*
X65246844Y-68976202D01*
X65231073Y-69019531D01*
X65222743Y-69039640D01*
X65203260Y-69081421D01*
X65191329Y-69125952D01*
X65184782Y-69146718D01*
X65169016Y-69190034D01*
X65169015Y-69190035D01*
X65161010Y-69235436D01*
X65156298Y-69256690D01*
X65144364Y-69301230D01*
X65144363Y-69301233D01*
X65140345Y-69347154D01*
X65137504Y-69368736D01*
X65129500Y-69414130D01*
X65129499Y-69414144D01*
X65129498Y-69653896D01*
X65129500Y-69653917D01*
X65129500Y-74425732D01*
X65129499Y-74425758D01*
X65129499Y-74664346D01*
X65137504Y-74709743D01*
X65140345Y-74731325D01*
X65144363Y-74777244D01*
X65144365Y-74777257D01*
X65156296Y-74821781D01*
X65161010Y-74843041D01*
X65169013Y-74888434D01*
X65169016Y-74888444D01*
X65184780Y-74931756D01*
X65191328Y-74952522D01*
X65203261Y-74997056D01*
X65222744Y-75038837D01*
X65231073Y-75058946D01*
X65246844Y-75102276D01*
X65269896Y-75142203D01*
X65279949Y-75161514D01*
X65299432Y-75203295D01*
X65325872Y-75241056D01*
X65337570Y-75259417D01*
X65360623Y-75299346D01*
X65390268Y-75334676D01*
X65403503Y-75351924D01*
X65429953Y-75389699D01*
X65429954Y-75389700D01*
X65599473Y-75559220D01*
X65599494Y-75559239D01*
X66682751Y-76642496D01*
X66682766Y-76642512D01*
X66850297Y-76810044D01*
X66850298Y-76810045D01*
X66888068Y-76836491D01*
X66905334Y-76849740D01*
X66940654Y-76879377D01*
X66980601Y-76902440D01*
X66998926Y-76914114D01*
X67036706Y-76940568D01*
X67078494Y-76960054D01*
X67097791Y-76970100D01*
X67137725Y-76993156D01*
X67181048Y-77008923D01*
X67201159Y-77017253D01*
X67242944Y-77036739D01*
X67287490Y-77048674D01*
X67308236Y-77055216D01*
X67351560Y-77070985D01*
X67396965Y-77078990D01*
X67418212Y-77083701D01*
X67462748Y-77095635D01*
X67508685Y-77099653D01*
X67530238Y-77102491D01*
X67575661Y-77110501D01*
X67575662Y-77110501D01*
X67813448Y-77110501D01*
X67813472Y-77110500D01*
X80411552Y-77110500D01*
X80411576Y-77110501D01*
X80421805Y-77110501D01*
X80649360Y-77110501D01*
X80649363Y-77110501D01*
X80694792Y-77102490D01*
X80716328Y-77099654D01*
X80762276Y-77095635D01*
X80806832Y-77083695D01*
X80828044Y-77078993D01*
X80873464Y-77070985D01*
X80916797Y-77055212D01*
X80937534Y-77048674D01*
X80982080Y-77036739D01*
X81023871Y-77017250D01*
X81043964Y-77008927D01*
X81087299Y-76993156D01*
X81127243Y-76970093D01*
X81146538Y-76960049D01*
X81188318Y-76940568D01*
X81226096Y-76914114D01*
X81244418Y-76902442D01*
X81284370Y-76879377D01*
X81319697Y-76849733D01*
X81336955Y-76836491D01*
X81374723Y-76810047D01*
X81535631Y-76649139D01*
X81564065Y-76620705D01*
X81564076Y-76620691D01*
X87170691Y-71014076D01*
X87170705Y-71014065D01*
X87360038Y-70824732D01*
X87360047Y-70824723D01*
X87386493Y-70786952D01*
X87399733Y-70769697D01*
X87429377Y-70734370D01*
X87452442Y-70694418D01*
X87464114Y-70676096D01*
X87490568Y-70638318D01*
X87510049Y-70596538D01*
X87520093Y-70577243D01*
X87543156Y-70537299D01*
X87558927Y-70493964D01*
X87567250Y-70473871D01*
X87586739Y-70432080D01*
X87586742Y-70432068D01*
X87594190Y-70411608D01*
X87597319Y-70412747D01*
X87638765Y-70315919D01*
X87729176Y-70206382D01*
X87846784Y-70126753D01*
X87982063Y-70083484D01*
X88124053Y-70080080D01*
X88261249Y-70116817D01*
X88275779Y-70123312D01*
X88400000Y-70181236D01*
X88400000Y-69080000D01*
X89400000Y-69080000D01*
X89400000Y-70181235D01*
X89552481Y-70110134D01*
X89552482Y-70110133D01*
X89738819Y-69979659D01*
X89817152Y-69901326D01*
X89930852Y-69816209D01*
X90063927Y-69766574D01*
X90205596Y-69756441D01*
X90344380Y-69786631D01*
X90469037Y-69854698D01*
X90522848Y-69901326D01*
X90601179Y-69979658D01*
X90601180Y-69979659D01*
X90787517Y-70110133D01*
X90787518Y-70110134D01*
X90940000Y-70181236D01*
X90940000Y-69080000D01*
X91940000Y-69080000D01*
X91940000Y-70181235D01*
X92092481Y-70110134D01*
X92092482Y-70110133D01*
X92278819Y-69979659D01*
X92278821Y-69979657D01*
X92357154Y-69901325D01*
X92470855Y-69816209D01*
X92603930Y-69766575D01*
X92745598Y-69756442D01*
X92884383Y-69786633D01*
X93009040Y-69854701D01*
X93062846Y-69901325D01*
X93141180Y-69979659D01*
X93327517Y-70110133D01*
X93327518Y-70110134D01*
X93480000Y-70181236D01*
X93480000Y-69080000D01*
X94480000Y-69080000D01*
X94480000Y-70181235D01*
X94632481Y-70110134D01*
X94632482Y-70110133D01*
X94818819Y-69979659D01*
X94979659Y-69818819D01*
X95110134Y-69632481D01*
X95206266Y-69426326D01*
X95265140Y-69206604D01*
X95265142Y-69206592D01*
X95276217Y-69080000D01*
X94480000Y-69080000D01*
X93480000Y-69080000D01*
X91940000Y-69080000D01*
X90940000Y-69080000D01*
X89400000Y-69080000D01*
X88400000Y-69080000D01*
X88400000Y-68580000D01*
X88495014Y-68580000D01*
X88514835Y-68705148D01*
X88572359Y-68818045D01*
X88661955Y-68907641D01*
X88774852Y-68965165D01*
X88868519Y-68980000D01*
X88931481Y-68980000D01*
X89025148Y-68965165D01*
X89138045Y-68907641D01*
X89227641Y-68818045D01*
X89285165Y-68705148D01*
X89304986Y-68580000D01*
X91035014Y-68580000D01*
X91054835Y-68705148D01*
X91112359Y-68818045D01*
X91201955Y-68907641D01*
X91314852Y-68965165D01*
X91408519Y-68980000D01*
X91471481Y-68980000D01*
X91565148Y-68965165D01*
X91678045Y-68907641D01*
X91767641Y-68818045D01*
X91825165Y-68705148D01*
X91844986Y-68580000D01*
X93575014Y-68580000D01*
X93594835Y-68705148D01*
X93652359Y-68818045D01*
X93741955Y-68907641D01*
X93854852Y-68965165D01*
X93948519Y-68980000D01*
X94011481Y-68980000D01*
X94105148Y-68965165D01*
X94218045Y-68907641D01*
X94307641Y-68818045D01*
X94365165Y-68705148D01*
X94384986Y-68580000D01*
X94365165Y-68454852D01*
X94307641Y-68341955D01*
X94218045Y-68252359D01*
X94105148Y-68194835D01*
X94011481Y-68180000D01*
X93948519Y-68180000D01*
X93854852Y-68194835D01*
X93741955Y-68252359D01*
X93652359Y-68341955D01*
X93594835Y-68454852D01*
X93575014Y-68580000D01*
X91844986Y-68580000D01*
X91825165Y-68454852D01*
X91767641Y-68341955D01*
X91678045Y-68252359D01*
X91565148Y-68194835D01*
X91471481Y-68180000D01*
X91408519Y-68180000D01*
X91314852Y-68194835D01*
X91201955Y-68252359D01*
X91112359Y-68341955D01*
X91054835Y-68454852D01*
X91035014Y-68580000D01*
X89304986Y-68580000D01*
X89285165Y-68454852D01*
X89227641Y-68341955D01*
X89138045Y-68252359D01*
X89025148Y-68194835D01*
X88931481Y-68180000D01*
X88868519Y-68180000D01*
X88774852Y-68194835D01*
X88661955Y-68252359D01*
X88572359Y-68341955D01*
X88514835Y-68454852D01*
X88495014Y-68580000D01*
X88400000Y-68580000D01*
X88400000Y-68080000D01*
X89400000Y-68080000D01*
X90940000Y-68080000D01*
X91940000Y-68080000D01*
X93480000Y-68080000D01*
X93480000Y-66978761D01*
X94480000Y-66978761D01*
X94480000Y-68080000D01*
X95276217Y-68080000D01*
X95276217Y-68079999D01*
X95265142Y-67953407D01*
X95265140Y-67953395D01*
X95206266Y-67733673D01*
X95110134Y-67527518D01*
X94979659Y-67341180D01*
X94818819Y-67180340D01*
X94632479Y-67049864D01*
X94480000Y-66978761D01*
X93480000Y-66978761D01*
X93327520Y-67049864D01*
X93141180Y-67180340D01*
X93062844Y-67258676D01*
X92949143Y-67343791D01*
X92816067Y-67393425D01*
X92674399Y-67403556D01*
X92535615Y-67373365D01*
X92410958Y-67305296D01*
X92357156Y-67258676D01*
X92278822Y-67180343D01*
X92278819Y-67180340D01*
X92092479Y-67049864D01*
X91940000Y-66978761D01*
X91940000Y-68080000D01*
X90940000Y-68080000D01*
X90940000Y-66978761D01*
X90787520Y-67049864D01*
X90601180Y-67180340D01*
X90522844Y-67258676D01*
X90409143Y-67343791D01*
X90276067Y-67393425D01*
X90134399Y-67403556D01*
X89995615Y-67373365D01*
X89870958Y-67305296D01*
X89817156Y-67258676D01*
X89738822Y-67180343D01*
X89738819Y-67180340D01*
X89552479Y-67049864D01*
X89400000Y-66978761D01*
X89400000Y-68080000D01*
X88400000Y-68080000D01*
X88400000Y-66978761D01*
X88247520Y-67049864D01*
X88247515Y-67049866D01*
X88150764Y-67117613D01*
X88024011Y-67181691D01*
X87884338Y-67207463D01*
X87743063Y-67192841D01*
X87611629Y-67139010D01*
X87509973Y-67057753D01*
X87509088Y-67058639D01*
X87501144Y-67050695D01*
X87500686Y-67050329D01*
X87499898Y-67049449D01*
X87495222Y-67044773D01*
X87303666Y-66881169D01*
X87303660Y-66881165D01*
X87303659Y-66881164D01*
X87174741Y-66802163D01*
X87088859Y-66749534D01*
X86856111Y-66653127D01*
X86611153Y-66594318D01*
X86611151Y-66594317D01*
X86611148Y-66594317D01*
X86360000Y-66574551D01*
X86108852Y-66594317D01*
X86108848Y-66594317D01*
X86108846Y-66594318D01*
X85863889Y-66653127D01*
X85863887Y-66653127D01*
X85631140Y-66749534D01*
X85416348Y-66881159D01*
X85416338Y-66881166D01*
X85414064Y-66883109D01*
X85410978Y-66885060D01*
X85400485Y-66892685D01*
X85399994Y-66892009D01*
X85294033Y-66959038D01*
X85157473Y-66998074D01*
X85015446Y-66997056D01*
X84879460Y-66956066D01*
X84779935Y-66892105D01*
X84779515Y-66892685D01*
X84769392Y-66885330D01*
X84765936Y-66883109D01*
X84763661Y-66881166D01*
X84763659Y-66881164D01*
X84634741Y-66802163D01*
X84548859Y-66749534D01*
X84316111Y-66653127D01*
X84071153Y-66594318D01*
X84071151Y-66594317D01*
X84071148Y-66594317D01*
X83820000Y-66574551D01*
X83819999Y-66574551D01*
X83787407Y-66577116D01*
X83568852Y-66594317D01*
X83568848Y-66594317D01*
X83568846Y-66594318D01*
X83323889Y-66653127D01*
X83323887Y-66653127D01*
X83091133Y-66749537D01*
X83085378Y-66752470D01*
X83077908Y-66755015D01*
X83073028Y-66757037D01*
X83072897Y-66756722D01*
X82950940Y-66798283D01*
X82809040Y-66804365D01*
X82671174Y-66770222D01*
X82548513Y-66698621D01*
X82450992Y-66595363D01*
X82422216Y-66545701D01*
X82421463Y-66546136D01*
X82410570Y-66527269D01*
X82384128Y-66489506D01*
X82372427Y-66471140D01*
X82363703Y-66456030D01*
X82349376Y-66431214D01*
X82349375Y-66431212D01*
X82349374Y-66431211D01*
X82336719Y-66416131D01*
X82319741Y-66395897D01*
X82306491Y-66378628D01*
X82280043Y-66340856D01*
X82111731Y-66172544D01*
X82111692Y-66172508D01*
X76068679Y-60129494D01*
X76068660Y-60129473D01*
X75899140Y-59959954D01*
X75899139Y-59959953D01*
X75861364Y-59933503D01*
X75844116Y-59920268D01*
X75808786Y-59890623D01*
X75768857Y-59867570D01*
X75750496Y-59855872D01*
X75712734Y-59829432D01*
X75712735Y-59829432D01*
X75670954Y-59809949D01*
X75651643Y-59799896D01*
X75611716Y-59776844D01*
X75568386Y-59761073D01*
X75548277Y-59752744D01*
X75506496Y-59733261D01*
X75506494Y-59733260D01*
X75461962Y-59721328D01*
X75441196Y-59714780D01*
X75397884Y-59699016D01*
X75397872Y-59699013D01*
X75352478Y-59691009D01*
X75331212Y-59686294D01*
X75299822Y-59677882D01*
X75169261Y-59621968D01*
X75059741Y-59531536D01*
X74980135Y-59413912D01*
X74936893Y-59278624D01*
X74933517Y-59136634D01*
X74970281Y-58999445D01*
X75044206Y-58878170D01*
X75076129Y-58843054D01*
X75889362Y-58029821D01*
X76003060Y-57944708D01*
X76136135Y-57895074D01*
X76203042Y-57885209D01*
X76451148Y-57865683D01*
X76696111Y-57806873D01*
X76928859Y-57710466D01*
X77143659Y-57578836D01*
X77145929Y-57576897D01*
X77149004Y-57574951D01*
X77159515Y-57567315D01*
X77160006Y-57567991D01*
X77265952Y-57500968D01*
X77402511Y-57461927D01*
X77544537Y-57462940D01*
X77680525Y-57503926D01*
X77780063Y-57567895D01*
X77780485Y-57567315D01*
X77790627Y-57574684D01*
X77794070Y-57576896D01*
X77796341Y-57578836D01*
X78011141Y-57710466D01*
X78243889Y-57806873D01*
X78488852Y-57865683D01*
X78740000Y-57885449D01*
X78991148Y-57865683D01*
X79236111Y-57806873D01*
X79468859Y-57710466D01*
X79683659Y-57578836D01*
X79685929Y-57576897D01*
X79689004Y-57574951D01*
X79699515Y-57567315D01*
X79700006Y-57567991D01*
X79805952Y-57500968D01*
X79942511Y-57461927D01*
X80084537Y-57462940D01*
X80220525Y-57503926D01*
X80320063Y-57567895D01*
X80320485Y-57567315D01*
X80330627Y-57574684D01*
X80334070Y-57576896D01*
X80336341Y-57578836D01*
X80551141Y-57710466D01*
X80783889Y-57806873D01*
X81028852Y-57865683D01*
X81280000Y-57885449D01*
X81531148Y-57865683D01*
X81776111Y-57806873D01*
X82008859Y-57710466D01*
X82223659Y-57578836D01*
X82225918Y-57576906D01*
X82228979Y-57574969D01*
X82239515Y-57567315D01*
X82240007Y-57567992D01*
X82345937Y-57500974D01*
X82482495Y-57461929D01*
X82624522Y-57462938D01*
X82760511Y-57503920D01*
X82860063Y-57567894D01*
X82860485Y-57567315D01*
X82870613Y-57574674D01*
X82874064Y-57576891D01*
X82876341Y-57578836D01*
X83091141Y-57710466D01*
X83323889Y-57806873D01*
X83568852Y-57865683D01*
X83820000Y-57885449D01*
X84071148Y-57865683D01*
X84316111Y-57806873D01*
X84548859Y-57710466D01*
X84763659Y-57578836D01*
X84765929Y-57576897D01*
X84769004Y-57574951D01*
X84779515Y-57567315D01*
X84780006Y-57567991D01*
X84885952Y-57500968D01*
X85022511Y-57461927D01*
X85164537Y-57462940D01*
X85300525Y-57503926D01*
X85400063Y-57567895D01*
X85400485Y-57567315D01*
X85410627Y-57574684D01*
X85414070Y-57576896D01*
X85416341Y-57578836D01*
X85631141Y-57710466D01*
X85863889Y-57806873D01*
X86108852Y-57865683D01*
X86360000Y-57885449D01*
X86611148Y-57865683D01*
X86856111Y-57806873D01*
X87088859Y-57710466D01*
X87303659Y-57578836D01*
X87305929Y-57576897D01*
X87309004Y-57574951D01*
X87319515Y-57567315D01*
X87320006Y-57567991D01*
X87425952Y-57500968D01*
X87562511Y-57461927D01*
X87704537Y-57462940D01*
X87840525Y-57503926D01*
X87940063Y-57567895D01*
X87940485Y-57567315D01*
X87950627Y-57574684D01*
X87954070Y-57576896D01*
X87956341Y-57578836D01*
X88171141Y-57710466D01*
X88403889Y-57806873D01*
X88648852Y-57865683D01*
X88900000Y-57885449D01*
X89151148Y-57865683D01*
X89396111Y-57806873D01*
X89628859Y-57710466D01*
X89843659Y-57578836D01*
X89845929Y-57576897D01*
X89849004Y-57574951D01*
X89859515Y-57567315D01*
X89860006Y-57567991D01*
X89965952Y-57500968D01*
X90102511Y-57461927D01*
X90244537Y-57462940D01*
X90380525Y-57503926D01*
X90480063Y-57567895D01*
X90480485Y-57567315D01*
X90490627Y-57574684D01*
X90494070Y-57576896D01*
X90496341Y-57578836D01*
X90711141Y-57710466D01*
X90943889Y-57806873D01*
X91188852Y-57865683D01*
X91440000Y-57885449D01*
X91691148Y-57865683D01*
X91936111Y-57806873D01*
X92168859Y-57710466D01*
X92383659Y-57578836D01*
X92385929Y-57576897D01*
X92389004Y-57574951D01*
X92399515Y-57567315D01*
X92400006Y-57567991D01*
X92505952Y-57500968D01*
X92642511Y-57461927D01*
X92784537Y-57462940D01*
X92920525Y-57503926D01*
X93020063Y-57567895D01*
X93020485Y-57567315D01*
X93030627Y-57574684D01*
X93034070Y-57576896D01*
X93036341Y-57578836D01*
X93251141Y-57710466D01*
X93483889Y-57806873D01*
X93728852Y-57865683D01*
X93980000Y-57885449D01*
X94231148Y-57865683D01*
X94476111Y-57806873D01*
X94708859Y-57710466D01*
X94923659Y-57578836D01*
X95059358Y-57462938D01*
X95115222Y-57415226D01*
X95115226Y-57415222D01*
X95278830Y-57223666D01*
X95278829Y-57223666D01*
X95278836Y-57223659D01*
X95410466Y-57008859D01*
X95506873Y-56776111D01*
X95565683Y-56531148D01*
X95580500Y-56342882D01*
X95580500Y-55417118D01*
X95565683Y-55228852D01*
X95506873Y-54983889D01*
X95410466Y-54751141D01*
X95354030Y-54659046D01*
X95297811Y-54528618D01*
X95280500Y-54398323D01*
X95280500Y-49437371D01*
X95300713Y-49296786D01*
X95354032Y-49176645D01*
X95455153Y-49011629D01*
X95455154Y-49011628D01*
X95554573Y-48771610D01*
X95615221Y-48518994D01*
X95635604Y-48260000D01*
X95615221Y-48001006D01*
X95554573Y-47748390D01*
X95455154Y-47508372D01*
X95367317Y-47365035D01*
X95319415Y-47286865D01*
X95319412Y-47286860D01*
X95150689Y-47089311D01*
X94953140Y-46920588D01*
X94953135Y-46920585D01*
X94953134Y-46920584D01*
X94731634Y-46784849D01*
X94731622Y-46784843D01*
X94491617Y-46685429D01*
X94491608Y-46685426D01*
X94354859Y-46652596D01*
X94238994Y-46624779D01*
X94238991Y-46624778D01*
X94238988Y-46624778D01*
X93980000Y-46604396D01*
X93721013Y-46624778D01*
X93721009Y-46624778D01*
X93468391Y-46685426D01*
X93468382Y-46685429D01*
X93228377Y-46784843D01*
X93228365Y-46784849D01*
X93006860Y-46920587D01*
X93003301Y-46923173D01*
X92998547Y-46925680D01*
X92990142Y-46930832D01*
X92989810Y-46930291D01*
X92877684Y-46989453D01*
X92738483Y-47017657D01*
X92596974Y-47005502D01*
X92464621Y-46953971D01*
X92416699Y-46923173D01*
X92413139Y-46920587D01*
X92191634Y-46784849D01*
X92191622Y-46784843D01*
X91951617Y-46685429D01*
X91951608Y-46685426D01*
X91814859Y-46652596D01*
X91698994Y-46624779D01*
X91698991Y-46624778D01*
X91698988Y-46624778D01*
X91473606Y-46607040D01*
X91440000Y-46604396D01*
X91439999Y-46604396D01*
X91181013Y-46624778D01*
X91181009Y-46624778D01*
X90928391Y-46685426D01*
X90928382Y-46685429D01*
X90670260Y-46792348D01*
X90668828Y-46788892D01*
X90569337Y-46822763D01*
X90427436Y-46828802D01*
X90289580Y-46794618D01*
X90211900Y-46754823D01*
X90099526Y-46684213D01*
X90099524Y-46684212D01*
X90099522Y-46684211D01*
X89929255Y-46624632D01*
X89929254Y-46624631D01*
X89929249Y-46624630D01*
X89794964Y-46609500D01*
X89794954Y-46609500D01*
X88005046Y-46609500D01*
X88005035Y-46609500D01*
X87870750Y-46624630D01*
X87793305Y-46651729D01*
X87700478Y-46684211D01*
X87700476Y-46684211D01*
X87700476Y-46684212D01*
X87700473Y-46684213D01*
X87547736Y-46780185D01*
X87547733Y-46780187D01*
X87420187Y-46907733D01*
X87420185Y-46907736D01*
X87324213Y-47060473D01*
X87324212Y-47060476D01*
X87264630Y-47230750D01*
X87249500Y-47365035D01*
X87249500Y-49154964D01*
X87264630Y-49289249D01*
X87264631Y-49289254D01*
X87264632Y-49289255D01*
X87324211Y-49459522D01*
X87324212Y-49459523D01*
X87324213Y-49459526D01*
X87379882Y-49548122D01*
X87420183Y-49612261D01*
X87420185Y-49612263D01*
X87420187Y-49612266D01*
X87453346Y-49645425D01*
X87538462Y-49759126D01*
X87588096Y-49892201D01*
X87599500Y-49998271D01*
X87599500Y-52658871D01*
X87579287Y-52799456D01*
X87520286Y-52928651D01*
X87427276Y-53035990D01*
X87307792Y-53112777D01*
X87171515Y-53152792D01*
X87029485Y-53152792D01*
X86893208Y-53112777D01*
X86773724Y-53035990D01*
X86747654Y-53011717D01*
X82890891Y-49154954D01*
X79015431Y-45279494D01*
X79015412Y-45279473D01*
X78845892Y-45109954D01*
X78845888Y-45109951D01*
X78808116Y-45083503D01*
X78790868Y-45070268D01*
X78755538Y-45040623D01*
X78715609Y-45017570D01*
X78697248Y-45005872D01*
X78659486Y-44979432D01*
X78659487Y-44979432D01*
X78617706Y-44959949D01*
X78598395Y-44949896D01*
X78558468Y-44926844D01*
X78515138Y-44911073D01*
X78495029Y-44902744D01*
X78453248Y-44883261D01*
X78453246Y-44883260D01*
X78408714Y-44871328D01*
X78387948Y-44864780D01*
X78344636Y-44849016D01*
X78344626Y-44849013D01*
X78312842Y-44843409D01*
X78299224Y-44841008D01*
X78277973Y-44836296D01*
X78233449Y-44824365D01*
X78233436Y-44824363D01*
X78187517Y-44820345D01*
X78165935Y-44817504D01*
X78120538Y-44809499D01*
X78120531Y-44809499D01*
X77892973Y-44809499D01*
X77882744Y-44809499D01*
X77882720Y-44809500D01*
X66497681Y-44809500D01*
X66475926Y-44808550D01*
X66430000Y-44804532D01*
X66373216Y-44809500D01*
X66316579Y-44814455D01*
X66203306Y-44824365D01*
X65983501Y-44883261D01*
X65777263Y-44979433D01*
X65590863Y-45109951D01*
X65590857Y-45109956D01*
X65429956Y-45270857D01*
X65429951Y-45270863D01*
X65299433Y-45457263D01*
X65203261Y-45663501D01*
X65144365Y-45883306D01*
X65124531Y-46109998D01*
X65124532Y-46109999D01*
X65128550Y-46155924D01*
X65129500Y-46177680D01*
X65129499Y-54096154D01*
X65129499Y-54344346D01*
X65137504Y-54389743D01*
X65140345Y-54411325D01*
X65144363Y-54457244D01*
X65144365Y-54457257D01*
X65156296Y-54501781D01*
X65161010Y-54523041D01*
X65169013Y-54568434D01*
X65169016Y-54568444D01*
X65184780Y-54611756D01*
X65191328Y-54632522D01*
X65198435Y-54659048D01*
X65203261Y-54677056D01*
X65222744Y-54718837D01*
X65231073Y-54738946D01*
X65246844Y-54782276D01*
X65269896Y-54822203D01*
X65279949Y-54841514D01*
X65299432Y-54883295D01*
X65325872Y-54921056D01*
X65337570Y-54939417D01*
X65360623Y-54979346D01*
X65390268Y-55014676D01*
X65403503Y-55031924D01*
X65429103Y-55068485D01*
X65429954Y-55069700D01*
X65599483Y-55239230D01*
X65599504Y-55239249D01*
X66240255Y-55880000D01*
X66587910Y-56227654D01*
X66673026Y-56341355D01*
X66722660Y-56474430D01*
X66732793Y-56616098D01*
X66702602Y-56754882D01*
X66634534Y-56879539D01*
X66534104Y-56979970D01*
X66409447Y-57048038D01*
X66270663Y-57078229D01*
X66235064Y-57079500D01*
X50342341Y-57079500D01*
X50201756Y-57059287D01*
X50072561Y-57000286D01*
X49965222Y-56907276D01*
X49888435Y-56787792D01*
X49848420Y-56651515D01*
X49844880Y-56541345D01*
X49860499Y-56342903D01*
X49860498Y-56342894D01*
X49860500Y-56342882D01*
X49860500Y-55417118D01*
X49845683Y-55228852D01*
X49786873Y-54983889D01*
X49690466Y-54751141D01*
X49634030Y-54659046D01*
X49577811Y-54528618D01*
X49560500Y-54398323D01*
X49560500Y-49437371D01*
X49580713Y-49296786D01*
X49634032Y-49176645D01*
X49735153Y-49011629D01*
X49735154Y-49011628D01*
X49834573Y-48771610D01*
X49895221Y-48518994D01*
X49915604Y-48260000D01*
X49895221Y-48001006D01*
X49834573Y-47748390D01*
X49735154Y-47508372D01*
X49647317Y-47365035D01*
X49599415Y-47286865D01*
X49599412Y-47286860D01*
X49430689Y-47089311D01*
X49233140Y-46920588D01*
X49233135Y-46920585D01*
X49233134Y-46920584D01*
X49011634Y-46784849D01*
X49011622Y-46784843D01*
X48771617Y-46685429D01*
X48771608Y-46685426D01*
X48634859Y-46652596D01*
X48518994Y-46624779D01*
X48518991Y-46624778D01*
X48518988Y-46624778D01*
X48260000Y-46604396D01*
X48001013Y-46624778D01*
X48001009Y-46624778D01*
X47748391Y-46685426D01*
X47748382Y-46685429D01*
X47508377Y-46784843D01*
X47508365Y-46784849D01*
X47286860Y-46920587D01*
X47283301Y-46923173D01*
X47278547Y-46925680D01*
X47270142Y-46930832D01*
X47269810Y-46930291D01*
X47157684Y-46989453D01*
X47018483Y-47017657D01*
X46876974Y-47005502D01*
X46744621Y-46953971D01*
X46696699Y-46923173D01*
X46693139Y-46920587D01*
X46471634Y-46784849D01*
X46471622Y-46784843D01*
X46231617Y-46685429D01*
X46231608Y-46685426D01*
X46094859Y-46652596D01*
X45978994Y-46624779D01*
X45978991Y-46624778D01*
X45978988Y-46624778D01*
X45720000Y-46604396D01*
X45461013Y-46624778D01*
X45461009Y-46624778D01*
X45208391Y-46685426D01*
X45208382Y-46685429D01*
X44950260Y-46792348D01*
X44948828Y-46788892D01*
X44849337Y-46822763D01*
X44707436Y-46828802D01*
X44569580Y-46794618D01*
X44491900Y-46754823D01*
X44379526Y-46684213D01*
X44379524Y-46684212D01*
X44379522Y-46684211D01*
X44209255Y-46624632D01*
X44209254Y-46624631D01*
X44209249Y-46624630D01*
X44074964Y-46609500D01*
X44074954Y-46609500D01*
X42285046Y-46609500D01*
X42285035Y-46609500D01*
X42150750Y-46624630D01*
X42073305Y-46651729D01*
X41980478Y-46684211D01*
X41980476Y-46684211D01*
X41980476Y-46684212D01*
X41980473Y-46684213D01*
X41827736Y-46780185D01*
X41827733Y-46780187D01*
X41700187Y-46907733D01*
X41700185Y-46907736D01*
X41604213Y-47060473D01*
X41604212Y-47060476D01*
X41544630Y-47230750D01*
X41529500Y-47365035D01*
X41529500Y-49154964D01*
X41544630Y-49289249D01*
X41544631Y-49289254D01*
X41544632Y-49289255D01*
X41604211Y-49459522D01*
X41604212Y-49459523D01*
X41604213Y-49459526D01*
X41647366Y-49528203D01*
X41700184Y-49612262D01*
X41733345Y-49645423D01*
X41818460Y-49759121D01*
X41868095Y-49892195D01*
X41879500Y-49998270D01*
X41879500Y-52658871D01*
X41859287Y-52799456D01*
X41800286Y-52928651D01*
X41707276Y-53035990D01*
X41587792Y-53112777D01*
X41451515Y-53152792D01*
X41309485Y-53152792D01*
X41173208Y-53112777D01*
X41053724Y-53035990D01*
X41027654Y-53011717D01*
X37170891Y-49154954D01*
X33295431Y-45279494D01*
X33295412Y-45279473D01*
X33125892Y-45109954D01*
X33125888Y-45109951D01*
X33088116Y-45083503D01*
X33070868Y-45070268D01*
X33035538Y-45040623D01*
X32995609Y-45017570D01*
X32977248Y-45005872D01*
X32939486Y-44979432D01*
X32939487Y-44979432D01*
X32897706Y-44959949D01*
X32878395Y-44949896D01*
X32838468Y-44926844D01*
X32795138Y-44911073D01*
X32775029Y-44902744D01*
X32733248Y-44883261D01*
X32733246Y-44883260D01*
X32688714Y-44871328D01*
X32667948Y-44864780D01*
X32624636Y-44849016D01*
X32624626Y-44849013D01*
X32592842Y-44843409D01*
X32579224Y-44841008D01*
X32557973Y-44836296D01*
X32513449Y-44824365D01*
X32513436Y-44824363D01*
X32467517Y-44820345D01*
X32445935Y-44817504D01*
X32400538Y-44809499D01*
X32400531Y-44809499D01*
X32172973Y-44809499D01*
X32162744Y-44809499D01*
X32162720Y-44809500D01*
X20777681Y-44809500D01*
X20755926Y-44808550D01*
X20710000Y-44804532D01*
X20709500Y-44804532D01*
X20708722Y-44804420D01*
X20688295Y-44802633D01*
X20688394Y-44801497D01*
X20568915Y-44784319D01*
X20439720Y-44725318D01*
X20332381Y-44632308D01*
X20255594Y-44512824D01*
X20215579Y-44376547D01*
X20210500Y-44305532D01*
X20210500Y-44305531D01*
X20210500Y-41534931D01*
X20230712Y-41394354D01*
X20289713Y-41265158D01*
X20382723Y-41157819D01*
X20502207Y-41081032D01*
X20638484Y-41041017D01*
X20780514Y-41041017D01*
X20916791Y-41081032D01*
X21036274Y-41157819D01*
X21062345Y-41182092D01*
X21130297Y-41250043D01*
X21130298Y-41250045D01*
X21168068Y-41276491D01*
X21185334Y-41289740D01*
X21220654Y-41319377D01*
X21260601Y-41342440D01*
X21278926Y-41354114D01*
X21316706Y-41380568D01*
X21358494Y-41400054D01*
X21377791Y-41410100D01*
X21417725Y-41433156D01*
X21461048Y-41448923D01*
X21481159Y-41457253D01*
X21522944Y-41476739D01*
X21567490Y-41488674D01*
X21588236Y-41495216D01*
X21631560Y-41510985D01*
X21676965Y-41518990D01*
X21698212Y-41523701D01*
X21742748Y-41535635D01*
X21788685Y-41539653D01*
X21810238Y-41542491D01*
X21855661Y-41550501D01*
X21855662Y-41550501D01*
X22093448Y-41550501D01*
X22093472Y-41550500D01*
X34691552Y-41550500D01*
X34691576Y-41550501D01*
X34701805Y-41550501D01*
X34929360Y-41550501D01*
X34929363Y-41550501D01*
X34974792Y-41542490D01*
X34996328Y-41539654D01*
X35042276Y-41535635D01*
X35086832Y-41523695D01*
X35108044Y-41518993D01*
X35153464Y-41510985D01*
X35196797Y-41495212D01*
X35217534Y-41488674D01*
X35262080Y-41476739D01*
X35303871Y-41457250D01*
X35323964Y-41448927D01*
X35367299Y-41433156D01*
X35407243Y-41410093D01*
X35426538Y-41400049D01*
X35468318Y-41380568D01*
X35506096Y-41354114D01*
X35524418Y-41342442D01*
X35564370Y-41319377D01*
X35599697Y-41289733D01*
X35616955Y-41276491D01*
X35654723Y-41250047D01*
X35815631Y-41089139D01*
X35844065Y-41060705D01*
X35844076Y-41060691D01*
X41450691Y-35454076D01*
X41450705Y-35454065D01*
X41640038Y-35264732D01*
X41640047Y-35264723D01*
X41666493Y-35226952D01*
X41679733Y-35209697D01*
X41709377Y-35174370D01*
X41732442Y-35134418D01*
X41744114Y-35116096D01*
X41770568Y-35078318D01*
X41790049Y-35036538D01*
X41800093Y-35017243D01*
X41823156Y-34977299D01*
X41838927Y-34933964D01*
X41847250Y-34913871D01*
X41866739Y-34872080D01*
X41866742Y-34872068D01*
X41874190Y-34851608D01*
X41877319Y-34852747D01*
X41918765Y-34755919D01*
X42009176Y-34646382D01*
X42126784Y-34566753D01*
X42262063Y-34523484D01*
X42404053Y-34520080D01*
X42541249Y-34556817D01*
X42555779Y-34563312D01*
X42680000Y-34621236D01*
X42680000Y-33520000D01*
X43680000Y-33520000D01*
X43680000Y-34621236D01*
X43832481Y-34550134D01*
X43832482Y-34550133D01*
X44018819Y-34419659D01*
X44097152Y-34341326D01*
X44210852Y-34256209D01*
X44343927Y-34206574D01*
X44485596Y-34196441D01*
X44624380Y-34226631D01*
X44749037Y-34294698D01*
X44802848Y-34341326D01*
X44881179Y-34419658D01*
X44881180Y-34419659D01*
X45067517Y-34550133D01*
X45067518Y-34550134D01*
X45220000Y-34621236D01*
X45220000Y-33520000D01*
X46220000Y-33520000D01*
X46220000Y-34621235D01*
X46372481Y-34550134D01*
X46372482Y-34550133D01*
X46558819Y-34419659D01*
X46637152Y-34341326D01*
X46750852Y-34256209D01*
X46883927Y-34206574D01*
X47025596Y-34196441D01*
X47164380Y-34226631D01*
X47289037Y-34294698D01*
X47342848Y-34341326D01*
X47421179Y-34419658D01*
X47421180Y-34419659D01*
X47607517Y-34550133D01*
X47607518Y-34550134D01*
X47760000Y-34621236D01*
X47760000Y-33520000D01*
X48760000Y-33520000D01*
X48760000Y-34621235D01*
X48912481Y-34550134D01*
X48912482Y-34550133D01*
X49098819Y-34419659D01*
X49259659Y-34258819D01*
X49390134Y-34072481D01*
X49486266Y-33866326D01*
X49545140Y-33646604D01*
X49545142Y-33646592D01*
X49556217Y-33520000D01*
X48760000Y-33520000D01*
X47760000Y-33520000D01*
X46220000Y-33520000D01*
X45220000Y-33520000D01*
X43680000Y-33520000D01*
X42680000Y-33520000D01*
X42680000Y-33020000D01*
X42775014Y-33020000D01*
X42794835Y-33145148D01*
X42852359Y-33258045D01*
X42941955Y-33347641D01*
X43054852Y-33405165D01*
X43148519Y-33420000D01*
X43211481Y-33420000D01*
X43305148Y-33405165D01*
X43418045Y-33347641D01*
X43507641Y-33258045D01*
X43565165Y-33145148D01*
X43584986Y-33020000D01*
X45315014Y-33020000D01*
X45334835Y-33145148D01*
X45392359Y-33258045D01*
X45481955Y-33347641D01*
X45594852Y-33405165D01*
X45688519Y-33420000D01*
X45751481Y-33420000D01*
X45845148Y-33405165D01*
X45958045Y-33347641D01*
X46047641Y-33258045D01*
X46105165Y-33145148D01*
X46124986Y-33020000D01*
X47855014Y-33020000D01*
X47874835Y-33145148D01*
X47932359Y-33258045D01*
X48021955Y-33347641D01*
X48134852Y-33405165D01*
X48228519Y-33420000D01*
X48291481Y-33420000D01*
X48385148Y-33405165D01*
X48498045Y-33347641D01*
X48587641Y-33258045D01*
X48645165Y-33145148D01*
X48664986Y-33020000D01*
X48645165Y-32894852D01*
X48587641Y-32781955D01*
X48498045Y-32692359D01*
X48385148Y-32634835D01*
X48291481Y-32620000D01*
X48228519Y-32620000D01*
X48134852Y-32634835D01*
X48021955Y-32692359D01*
X47932359Y-32781955D01*
X47874835Y-32894852D01*
X47855014Y-33020000D01*
X46124986Y-33020000D01*
X46105165Y-32894852D01*
X46047641Y-32781955D01*
X45958045Y-32692359D01*
X45845148Y-32634835D01*
X45751481Y-32620000D01*
X45688519Y-32620000D01*
X45594852Y-32634835D01*
X45481955Y-32692359D01*
X45392359Y-32781955D01*
X45334835Y-32894852D01*
X45315014Y-33020000D01*
X43584986Y-33020000D01*
X43565165Y-32894852D01*
X43507641Y-32781955D01*
X43418045Y-32692359D01*
X43305148Y-32634835D01*
X43211481Y-32620000D01*
X43148519Y-32620000D01*
X43054852Y-32634835D01*
X42941955Y-32692359D01*
X42852359Y-32781955D01*
X42794835Y-32894852D01*
X42775014Y-33020000D01*
X42680000Y-33020000D01*
X42680000Y-32520000D01*
X43680000Y-32520000D01*
X45220000Y-32520000D01*
X46220000Y-32520000D01*
X47760000Y-32520000D01*
X47759999Y-31418761D01*
X48760000Y-31418761D01*
X48760000Y-32520000D01*
X49556217Y-32520000D01*
X49556217Y-32519999D01*
X49545142Y-32393407D01*
X49545140Y-32393395D01*
X49486266Y-32173673D01*
X49390134Y-31967518D01*
X49259659Y-31781180D01*
X49098819Y-31620340D01*
X48912479Y-31489864D01*
X48760000Y-31418761D01*
X47759999Y-31418761D01*
X47607520Y-31489864D01*
X47421180Y-31620340D01*
X47342844Y-31698676D01*
X47229143Y-31783791D01*
X47096067Y-31833425D01*
X46954399Y-31843556D01*
X46815615Y-31813365D01*
X46690958Y-31745296D01*
X46637156Y-31698676D01*
X46558822Y-31620343D01*
X46558819Y-31620340D01*
X46372479Y-31489864D01*
X46220000Y-31418761D01*
X46220000Y-32520000D01*
X45220000Y-32520000D01*
X45219999Y-31418761D01*
X45067520Y-31489864D01*
X44881180Y-31620340D01*
X44802844Y-31698676D01*
X44689143Y-31783791D01*
X44556067Y-31833425D01*
X44414399Y-31843556D01*
X44275615Y-31813365D01*
X44150958Y-31745296D01*
X44097156Y-31698676D01*
X44018822Y-31620343D01*
X44018819Y-31620340D01*
X43832479Y-31489864D01*
X43680000Y-31418761D01*
X43680000Y-32520000D01*
X42680000Y-32520000D01*
X42680000Y-31418761D01*
X42527520Y-31489864D01*
X42527515Y-31489866D01*
X42430764Y-31557613D01*
X42304011Y-31621691D01*
X42164338Y-31647463D01*
X42023063Y-31632841D01*
X41891629Y-31579010D01*
X41789973Y-31497753D01*
X41789088Y-31498639D01*
X41781144Y-31490695D01*
X41780686Y-31490329D01*
X41779898Y-31489449D01*
X41775222Y-31484773D01*
X41583666Y-31321169D01*
X41583660Y-31321165D01*
X41583659Y-31321164D01*
X41454741Y-31242163D01*
X41368859Y-31189534D01*
X41136111Y-31093127D01*
X40891153Y-31034318D01*
X40891151Y-31034317D01*
X40891148Y-31034317D01*
X40640000Y-31014551D01*
X40388852Y-31034317D01*
X40388848Y-31034317D01*
X40388846Y-31034318D01*
X40143889Y-31093127D01*
X40143887Y-31093127D01*
X39911140Y-31189534D01*
X39696348Y-31321159D01*
X39696338Y-31321166D01*
X39694064Y-31323109D01*
X39690978Y-31325060D01*
X39680485Y-31332685D01*
X39679994Y-31332009D01*
X39574033Y-31399038D01*
X39437473Y-31438074D01*
X39295446Y-31437056D01*
X39159460Y-31396066D01*
X39059935Y-31332105D01*
X39059515Y-31332685D01*
X39049392Y-31325330D01*
X39045936Y-31323109D01*
X39043661Y-31321166D01*
X39043659Y-31321164D01*
X38914741Y-31242163D01*
X38828859Y-31189534D01*
X38596111Y-31093127D01*
X38351153Y-31034318D01*
X38351151Y-31034317D01*
X38351148Y-31034317D01*
X38100000Y-31014551D01*
X37848852Y-31034317D01*
X37848848Y-31034317D01*
X37848846Y-31034318D01*
X37603889Y-31093127D01*
X37603887Y-31093127D01*
X37371133Y-31189537D01*
X37365378Y-31192470D01*
X37357908Y-31195015D01*
X37353028Y-31197037D01*
X37352897Y-31196722D01*
X37230940Y-31238283D01*
X37089040Y-31244365D01*
X36951174Y-31210222D01*
X36828513Y-31138621D01*
X36730992Y-31035363D01*
X36702216Y-30985701D01*
X36701463Y-30986136D01*
X36690570Y-30967269D01*
X36664128Y-30929506D01*
X36652427Y-30911140D01*
X36643703Y-30896030D01*
X36629376Y-30871214D01*
X36629375Y-30871212D01*
X36629374Y-30871211D01*
X36616719Y-30856131D01*
X36599741Y-30835897D01*
X36586491Y-30818628D01*
X36560043Y-30780856D01*
X36391731Y-30612544D01*
X36391692Y-30612508D01*
X30664156Y-24884971D01*
X30579040Y-24771270D01*
X30529406Y-24638195D01*
X30519273Y-24496527D01*
X30549464Y-24357742D01*
X30617532Y-24233085D01*
X30717962Y-24132655D01*
X30842619Y-24064587D01*
X30981404Y-24034396D01*
X31123072Y-24044529D01*
X31146113Y-24050117D01*
X31178053Y-24058675D01*
X31198789Y-24065213D01*
X31242120Y-24080985D01*
X31287525Y-24088990D01*
X31308772Y-24093701D01*
X31353308Y-24105635D01*
X31399245Y-24109653D01*
X31420798Y-24112491D01*
X31466221Y-24120501D01*
X31466222Y-24120501D01*
X31704008Y-24120501D01*
X31704032Y-24120500D01*
X66430500Y-24120500D01*
X66571085Y-24140713D01*
X66700280Y-24199714D01*
X66807619Y-24292724D01*
X66884406Y-24412208D01*
X66924421Y-24548485D01*
X66929500Y-24619500D01*
X66929500Y-26294964D01*
X66944630Y-26429249D01*
X66944631Y-26429254D01*
X66944632Y-26429255D01*
X67004211Y-26599522D01*
X67004212Y-26599523D01*
X67004213Y-26599526D01*
X67059882Y-26688122D01*
X67080360Y-26720713D01*
X67100185Y-26752263D01*
X67100187Y-26752266D01*
X67227733Y-26879812D01*
X67227736Y-26879814D01*
X67227738Y-26879816D01*
X67380478Y-26975789D01*
X67550745Y-27035368D01*
X67550748Y-27035368D01*
X67550750Y-27035369D01*
X67685035Y-27050499D01*
X67685043Y-27050499D01*
X67685046Y-27050500D01*
X67685047Y-27050500D01*
X69474953Y-27050500D01*
X69474954Y-27050500D01*
X69474958Y-27050499D01*
X69474964Y-27050499D01*
X69609249Y-27035369D01*
X69609250Y-27035368D01*
X69609255Y-27035368D01*
X69779522Y-26975789D01*
X69932262Y-26879816D01*
X69932266Y-26879812D01*
X69965425Y-26846654D01*
X70079126Y-26761538D01*
X70212201Y-26711904D01*
X70318271Y-26700500D01*
X74314623Y-26700500D01*
X74455208Y-26720713D01*
X74584403Y-26779714D01*
X74667469Y-26846654D01*
X78189616Y-30368801D01*
X78274732Y-30482502D01*
X78324366Y-30615577D01*
X78334499Y-30757245D01*
X78304308Y-30896030D01*
X78236240Y-31020687D01*
X78135810Y-31121117D01*
X78027733Y-31182661D01*
X78011143Y-31189532D01*
X77993674Y-31198434D01*
X77992656Y-31196436D01*
X77886557Y-31242163D01*
X77745571Y-31259353D01*
X77605453Y-31236126D01*
X77490803Y-31182984D01*
X77349522Y-31094211D01*
X77179255Y-31034632D01*
X77179254Y-31034631D01*
X77179249Y-31034630D01*
X77044964Y-31019500D01*
X77044954Y-31019500D01*
X76245376Y-31019500D01*
X76104791Y-30999287D01*
X75975596Y-30940286D01*
X75892530Y-30873346D01*
X74668689Y-29649504D01*
X74668670Y-29649483D01*
X74499140Y-29479954D01*
X74499139Y-29479953D01*
X74461364Y-29453503D01*
X74444116Y-29440268D01*
X74408786Y-29410623D01*
X74368857Y-29387570D01*
X74350496Y-29375872D01*
X74312734Y-29349432D01*
X74312735Y-29349432D01*
X74270954Y-29329949D01*
X74251643Y-29319896D01*
X74211716Y-29296844D01*
X74168386Y-29281073D01*
X74148277Y-29272744D01*
X74106496Y-29253261D01*
X74106494Y-29253260D01*
X74061962Y-29241328D01*
X74041196Y-29234780D01*
X73997884Y-29219016D01*
X73997874Y-29219013D01*
X73966090Y-29213409D01*
X73952472Y-29211008D01*
X73931221Y-29206296D01*
X73886697Y-29194365D01*
X73886684Y-29194363D01*
X73840765Y-29190345D01*
X73819183Y-29187504D01*
X73773786Y-29179499D01*
X73773779Y-29179499D01*
X73546221Y-29179499D01*
X73535992Y-29179499D01*
X73535968Y-29179500D01*
X70318271Y-29179500D01*
X70177686Y-29159287D01*
X70048491Y-29100286D01*
X69965425Y-29033346D01*
X69932266Y-29000187D01*
X69932263Y-29000185D01*
X69932263Y-29000184D01*
X69932262Y-29000184D01*
X69827437Y-28934318D01*
X69779526Y-28904213D01*
X69779524Y-28904212D01*
X69779522Y-28904211D01*
X69609255Y-28844632D01*
X69609254Y-28844631D01*
X69609249Y-28844630D01*
X69474964Y-28829500D01*
X69474954Y-28829500D01*
X67685046Y-28829500D01*
X67685035Y-28829500D01*
X67550750Y-28844630D01*
X67473305Y-28871729D01*
X67380478Y-28904211D01*
X67380476Y-28904211D01*
X67380476Y-28904212D01*
X67380473Y-28904213D01*
X67227736Y-29000185D01*
X67227733Y-29000187D01*
X67100187Y-29127733D01*
X67100185Y-29127736D01*
X67004213Y-29280473D01*
X67004211Y-29280476D01*
X67004211Y-29280478D01*
X66990418Y-29319896D01*
X66944630Y-29450750D01*
X66929500Y-29585035D01*
X66929500Y-31374956D01*
X66935096Y-31424625D01*
X66930749Y-31566588D01*
X66886583Y-31701577D01*
X66806174Y-31818654D01*
X66725443Y-31889250D01*
X66687425Y-31915870D01*
X66669066Y-31927566D01*
X66629138Y-31950618D01*
X66629127Y-31950626D01*
X66593811Y-31980259D01*
X66576546Y-31993507D01*
X66538786Y-32019948D01*
X66538776Y-32019956D01*
X65429956Y-33128776D01*
X65429948Y-33128786D01*
X65403507Y-33166546D01*
X65390259Y-33183811D01*
X65360626Y-33219127D01*
X65360618Y-33219139D01*
X65337567Y-33259064D01*
X65325873Y-33277420D01*
X65299433Y-33315181D01*
X65299429Y-33315188D01*
X65279951Y-33356960D01*
X65269899Y-33376270D01*
X65246846Y-33416199D01*
X65246844Y-33416202D01*
X65231073Y-33459531D01*
X65222743Y-33479640D01*
X65203260Y-33521421D01*
X65191329Y-33565952D01*
X65184782Y-33586718D01*
X65169016Y-33630034D01*
X65169015Y-33630035D01*
X65161010Y-33675436D01*
X65156298Y-33696690D01*
X65144364Y-33741230D01*
X65144363Y-33741233D01*
X65140345Y-33787154D01*
X65137504Y-33808736D01*
X65129500Y-33854130D01*
X65129499Y-33854144D01*
X65129498Y-34093896D01*
X65129500Y-34093917D01*
X65129500Y-38865732D01*
X65129499Y-38865758D01*
X65129499Y-39104346D01*
X65137504Y-39149743D01*
X65140345Y-39171325D01*
X65144363Y-39217244D01*
X65144365Y-39217257D01*
X65156296Y-39261781D01*
X65161010Y-39283041D01*
X65169013Y-39328434D01*
X65169016Y-39328444D01*
X65184780Y-39371756D01*
X65191328Y-39392522D01*
X65203261Y-39437056D01*
X65222744Y-39478837D01*
X65231073Y-39498946D01*
X65246844Y-39542276D01*
X65269896Y-39582203D01*
X65279949Y-39601514D01*
X65299432Y-39643295D01*
X65325872Y-39681056D01*
X65337570Y-39699417D01*
X65360623Y-39739346D01*
X65390268Y-39774676D01*
X65403503Y-39791924D01*
X65429953Y-39829699D01*
X65429954Y-39829700D01*
X65599473Y-39999220D01*
X65599494Y-39999239D01*
X66682751Y-41082496D01*
X66682766Y-41082512D01*
X66850297Y-41250044D01*
X66850298Y-41250045D01*
X66888068Y-41276491D01*
X66905334Y-41289740D01*
X66940654Y-41319377D01*
X66980601Y-41342440D01*
X66998926Y-41354114D01*
X67036706Y-41380568D01*
X67078494Y-41400054D01*
X67097791Y-41410100D01*
X67137725Y-41433156D01*
X67181048Y-41448923D01*
X67201159Y-41457253D01*
X67242944Y-41476739D01*
X67287490Y-41488674D01*
X67308236Y-41495216D01*
X67351560Y-41510985D01*
X67396965Y-41518990D01*
X67418212Y-41523701D01*
X67462748Y-41535635D01*
X67508685Y-41539653D01*
X67530238Y-41542491D01*
X67575661Y-41550501D01*
X67575662Y-41550501D01*
X67813448Y-41550501D01*
X67813472Y-41550500D01*
X80411552Y-41550500D01*
X80411576Y-41550501D01*
X80421805Y-41550501D01*
X80649360Y-41550501D01*
X80649363Y-41550501D01*
X80694792Y-41542490D01*
X80716328Y-41539654D01*
X80762276Y-41535635D01*
X80806832Y-41523695D01*
X80828044Y-41518993D01*
X80873464Y-41510985D01*
X80916797Y-41495212D01*
X80937534Y-41488674D01*
X80982080Y-41476739D01*
X81023871Y-41457250D01*
X81043964Y-41448927D01*
X81087299Y-41433156D01*
X81127243Y-41410093D01*
X81146538Y-41400049D01*
X81188318Y-41380568D01*
X81226096Y-41354114D01*
X81244418Y-41342442D01*
X81284370Y-41319377D01*
X81319697Y-41289733D01*
X81336955Y-41276491D01*
X81374723Y-41250047D01*
X81535631Y-41089139D01*
X81564065Y-41060705D01*
X81564076Y-41060691D01*
X87170691Y-35454076D01*
X87170705Y-35454065D01*
X87360038Y-35264732D01*
X87360047Y-35264723D01*
X87386493Y-35226952D01*
X87399733Y-35209697D01*
X87429377Y-35174370D01*
X87452442Y-35134418D01*
X87464114Y-35116096D01*
X87490568Y-35078318D01*
X87510049Y-35036538D01*
X87520093Y-35017243D01*
X87543156Y-34977299D01*
X87558927Y-34933964D01*
X87567250Y-34913871D01*
X87586739Y-34872080D01*
X87586742Y-34872068D01*
X87594190Y-34851608D01*
X87597319Y-34852747D01*
X87638765Y-34755919D01*
X87729176Y-34646382D01*
X87846784Y-34566753D01*
X87982063Y-34523484D01*
X88124053Y-34520080D01*
X88261249Y-34556817D01*
X88275779Y-34563312D01*
X88400000Y-34621236D01*
X88400000Y-33520000D01*
X89400000Y-33520000D01*
X89400000Y-34621235D01*
X89552481Y-34550134D01*
X89552482Y-34550133D01*
X89738819Y-34419659D01*
X89738821Y-34419657D01*
X89817154Y-34341325D01*
X89930855Y-34256209D01*
X90063930Y-34206575D01*
X90205598Y-34196442D01*
X90344383Y-34226633D01*
X90469040Y-34294701D01*
X90522846Y-34341325D01*
X90601180Y-34419659D01*
X90787517Y-34550133D01*
X90787518Y-34550134D01*
X90940000Y-34621236D01*
X90940000Y-33520000D01*
X91940000Y-33520000D01*
X91940000Y-34621235D01*
X92092481Y-34550134D01*
X92092482Y-34550133D01*
X92278819Y-34419659D01*
X92278821Y-34419657D01*
X92357154Y-34341325D01*
X92470855Y-34256209D01*
X92603930Y-34206575D01*
X92745598Y-34196442D01*
X92884383Y-34226633D01*
X93009040Y-34294701D01*
X93062846Y-34341325D01*
X93141180Y-34419659D01*
X93327517Y-34550133D01*
X93327518Y-34550134D01*
X93480000Y-34621236D01*
X93480000Y-33520000D01*
X94480000Y-33520000D01*
X94480000Y-34621235D01*
X94632481Y-34550134D01*
X94632482Y-34550133D01*
X94818819Y-34419659D01*
X94979659Y-34258819D01*
X95004667Y-34223104D01*
X106184001Y-34223104D01*
X106233673Y-34246265D01*
X106453395Y-34305140D01*
X106679999Y-34324966D01*
X106680001Y-34324966D01*
X106906606Y-34305140D01*
X107126325Y-34246266D01*
X107175997Y-34223104D01*
X107175998Y-34223103D01*
X106680001Y-33727106D01*
X106184001Y-34223104D01*
X95004667Y-34223104D01*
X95110134Y-34072481D01*
X95206266Y-33866326D01*
X95265140Y-33646604D01*
X95265142Y-33646592D01*
X95276217Y-33520000D01*
X113043592Y-33520000D01*
X113126398Y-33697576D01*
X113126398Y-33697577D01*
X113261890Y-33891078D01*
X113261894Y-33891083D01*
X113428918Y-34058107D01*
X113622422Y-34193600D01*
X113800000Y-34276405D01*
X113800000Y-33520000D01*
X113043592Y-33520000D01*
X95276217Y-33520000D01*
X94480000Y-33520000D01*
X93480000Y-33520000D01*
X91940000Y-33520000D01*
X90940000Y-33520000D01*
X89400000Y-33520000D01*
X88400000Y-33520000D01*
X88400000Y-33020000D01*
X88495014Y-33020000D01*
X88514835Y-33145148D01*
X88572359Y-33258045D01*
X88661955Y-33347641D01*
X88774852Y-33405165D01*
X88868519Y-33420000D01*
X88931481Y-33420000D01*
X89025148Y-33405165D01*
X89138045Y-33347641D01*
X89227641Y-33258045D01*
X89285165Y-33145148D01*
X89304986Y-33020000D01*
X91035014Y-33020000D01*
X91054835Y-33145148D01*
X91112359Y-33258045D01*
X91201955Y-33347641D01*
X91314852Y-33405165D01*
X91408519Y-33420000D01*
X91471481Y-33420000D01*
X91565148Y-33405165D01*
X91678045Y-33347641D01*
X91767641Y-33258045D01*
X91825165Y-33145148D01*
X91844986Y-33020000D01*
X93575014Y-33020000D01*
X93594835Y-33145148D01*
X93652359Y-33258045D01*
X93741955Y-33347641D01*
X93854852Y-33405165D01*
X93948519Y-33420000D01*
X94011481Y-33420000D01*
X94105148Y-33405165D01*
X94218045Y-33347641D01*
X94307641Y-33258045D01*
X94365165Y-33145148D01*
X94384986Y-33020000D01*
X94365165Y-32894852D01*
X94307641Y-32781955D01*
X94218045Y-32692359D01*
X94105148Y-32634835D01*
X94011481Y-32620000D01*
X93948519Y-32620000D01*
X93854852Y-32634835D01*
X93741955Y-32692359D01*
X93652359Y-32781955D01*
X93594835Y-32894852D01*
X93575014Y-33020000D01*
X91844986Y-33020000D01*
X91825165Y-32894852D01*
X91767641Y-32781955D01*
X91678045Y-32692359D01*
X91565148Y-32634835D01*
X91471481Y-32620000D01*
X91408519Y-32620000D01*
X91314852Y-32634835D01*
X91201955Y-32692359D01*
X91112359Y-32781955D01*
X91054835Y-32894852D01*
X91035014Y-33020000D01*
X89304986Y-33020000D01*
X89285165Y-32894852D01*
X89227641Y-32781955D01*
X89138045Y-32692359D01*
X89025148Y-32634835D01*
X88931481Y-32620000D01*
X88868519Y-32620000D01*
X88774852Y-32634835D01*
X88661955Y-32692359D01*
X88572359Y-32781955D01*
X88514835Y-32894852D01*
X88495014Y-33020000D01*
X88400000Y-33020000D01*
X88400000Y-33019000D01*
X88420213Y-32878415D01*
X88479214Y-32749220D01*
X88572224Y-32641881D01*
X88691708Y-32565094D01*
X88827985Y-32525079D01*
X88899000Y-32520000D01*
X95276217Y-32520000D01*
X95276217Y-32519999D01*
X95263243Y-32371690D01*
X95266286Y-32371423D01*
X95262887Y-32264170D01*
X95298564Y-32126693D01*
X95371527Y-32004837D01*
X95475865Y-31908473D01*
X95603126Y-31845408D01*
X95743000Y-31820751D01*
X95758810Y-31820500D01*
X105021671Y-31820500D01*
X105162256Y-31840713D01*
X105291451Y-31899714D01*
X105398790Y-31992724D01*
X105475577Y-32112208D01*
X105515592Y-32248485D01*
X105515592Y-32390515D01*
X105475577Y-32526792D01*
X105473919Y-32530385D01*
X105453734Y-32573670D01*
X105453734Y-32573671D01*
X105394859Y-32793395D01*
X105375034Y-33019999D01*
X105375034Y-33020000D01*
X105394859Y-33246607D01*
X105453731Y-33466321D01*
X105476894Y-33515997D01*
X105972892Y-33020000D01*
X106275014Y-33020000D01*
X106294835Y-33145148D01*
X106352359Y-33258045D01*
X106441955Y-33347641D01*
X106554852Y-33405165D01*
X106648519Y-33420000D01*
X106711481Y-33420000D01*
X106805148Y-33405165D01*
X106918045Y-33347641D01*
X107007641Y-33258045D01*
X107065165Y-33145148D01*
X107084986Y-33020000D01*
X107065165Y-32894852D01*
X107007641Y-32781955D01*
X106918045Y-32692359D01*
X106805148Y-32634835D01*
X106711481Y-32620000D01*
X106648519Y-32620000D01*
X106554852Y-32634835D01*
X106441955Y-32692359D01*
X106352359Y-32781955D01*
X106294835Y-32894852D01*
X106275014Y-33020000D01*
X105972892Y-33020000D01*
X106327154Y-32665739D01*
X106440855Y-32580623D01*
X106573930Y-32530989D01*
X106715598Y-32520856D01*
X106854383Y-32551047D01*
X106979040Y-32619115D01*
X107032846Y-32665739D01*
X107151341Y-32784234D01*
X107151346Y-32784241D01*
X107883103Y-33515998D01*
X107883104Y-33515997D01*
X107906266Y-33466325D01*
X107965140Y-33246606D01*
X107984966Y-33020000D01*
X107984966Y-33019999D01*
X107965140Y-32793395D01*
X107906266Y-32573673D01*
X107867429Y-32490388D01*
X107826334Y-32354433D01*
X107825207Y-32212407D01*
X107864139Y-32075817D01*
X107939975Y-31955728D01*
X108046573Y-31861869D01*
X108175296Y-31801844D01*
X108315716Y-31780516D01*
X108319676Y-31780500D01*
X112561729Y-31780500D01*
X112702314Y-31800713D01*
X112831509Y-31859714D01*
X112914575Y-31926654D01*
X112944191Y-31956270D01*
X113029307Y-32069971D01*
X113078941Y-32203046D01*
X113089074Y-32344714D01*
X113058883Y-32483499D01*
X113043594Y-32520000D01*
X114264237Y-32520000D01*
X114157685Y-32535320D01*
X114026900Y-32595048D01*
X113918239Y-32689202D01*
X113840507Y-32810156D01*
X113800000Y-32948111D01*
X113800000Y-33091889D01*
X113840507Y-33229844D01*
X113918239Y-33350798D01*
X114026900Y-33444952D01*
X114157685Y-33504680D01*
X114264237Y-33520000D01*
X114335763Y-33520000D01*
X114800000Y-33520000D01*
X114800000Y-34276405D01*
X114977577Y-34193600D01*
X115171081Y-34058107D01*
X115338105Y-33891083D01*
X115338109Y-33891078D01*
X115473601Y-33697577D01*
X115473601Y-33697576D01*
X115556407Y-33520000D01*
X114800000Y-33520000D01*
X114335763Y-33520000D01*
X114442315Y-33504680D01*
X114573100Y-33444952D01*
X114681761Y-33350798D01*
X114759493Y-33229844D01*
X114800000Y-33091889D01*
X114800000Y-32948111D01*
X114759493Y-32810156D01*
X114681761Y-32689202D01*
X114573100Y-32595048D01*
X114442315Y-32535320D01*
X114335763Y-32520000D01*
X115556406Y-32520000D01*
X115515312Y-32384049D01*
X115514185Y-32242023D01*
X115553117Y-32105433D01*
X115628954Y-31985344D01*
X115655796Y-31956281D01*
X115779816Y-31832262D01*
X115875789Y-31679522D01*
X115935368Y-31509255D01*
X115937501Y-31490329D01*
X115950499Y-31374964D01*
X115950500Y-31374953D01*
X115950500Y-29585047D01*
X115950499Y-29585035D01*
X115935369Y-29450750D01*
X115935368Y-29450748D01*
X115935368Y-29450745D01*
X115875789Y-29280478D01*
X115779816Y-29127738D01*
X115779814Y-29127736D01*
X115779812Y-29127733D01*
X115652266Y-29000187D01*
X115652263Y-29000185D01*
X115652262Y-29000184D01*
X115547437Y-28934318D01*
X115499526Y-28904213D01*
X115499524Y-28904212D01*
X115499522Y-28904211D01*
X115329255Y-28844632D01*
X115329254Y-28844631D01*
X115329249Y-28844630D01*
X115194964Y-28829500D01*
X115194954Y-28829500D01*
X113405046Y-28829500D01*
X113405035Y-28829500D01*
X113270750Y-28844630D01*
X113193305Y-28871729D01*
X113100478Y-28904211D01*
X113100476Y-28904211D01*
X113100476Y-28904212D01*
X113100473Y-28904213D01*
X112947736Y-29000185D01*
X112947733Y-29000187D01*
X112914575Y-29033346D01*
X112800874Y-29118462D01*
X112667799Y-29168096D01*
X112561729Y-29179500D01*
X107696402Y-29179500D01*
X107555817Y-29159287D01*
X107435678Y-29105969D01*
X107408859Y-29089534D01*
X107176111Y-28993127D01*
X106931153Y-28934318D01*
X106931151Y-28934317D01*
X106931148Y-28934317D01*
X106680000Y-28914551D01*
X106679999Y-28914551D01*
X106647407Y-28917116D01*
X106428852Y-28934317D01*
X106428848Y-28934317D01*
X106428846Y-28934318D01*
X106183889Y-28993127D01*
X106183887Y-28993127D01*
X105951140Y-29089534D01*
X105859051Y-29145967D01*
X105728621Y-29202188D01*
X105598324Y-29219500D01*
X85745376Y-29219500D01*
X85604791Y-29199287D01*
X85475596Y-29140286D01*
X85392530Y-29073346D01*
X79290383Y-22971198D01*
X79205267Y-22857497D01*
X79155633Y-22724422D01*
X79145500Y-22582754D01*
X79175691Y-22443969D01*
X79243759Y-22319312D01*
X79344189Y-22218882D01*
X79452273Y-22157336D01*
X79468859Y-22150466D01*
X79683659Y-22018836D01*
X79685929Y-22016897D01*
X79689004Y-22014951D01*
X79699515Y-22007315D01*
X79700006Y-22007991D01*
X79805952Y-21940968D01*
X79942511Y-21901927D01*
X80084537Y-21902940D01*
X80220525Y-21943926D01*
X80320063Y-22007895D01*
X80320485Y-22007315D01*
X80330627Y-22014684D01*
X80334070Y-22016896D01*
X80336341Y-22018836D01*
X80551141Y-22150466D01*
X80783889Y-22246873D01*
X81028852Y-22305683D01*
X81280000Y-22325449D01*
X81531148Y-22305683D01*
X81776111Y-22246873D01*
X82008859Y-22150466D01*
X82223659Y-22018836D01*
X82225929Y-22016897D01*
X82229004Y-22014951D01*
X82239515Y-22007315D01*
X82240006Y-22007991D01*
X82345952Y-21940968D01*
X82482511Y-21901927D01*
X82624537Y-21902940D01*
X82760525Y-21943926D01*
X82860063Y-22007895D01*
X82860485Y-22007315D01*
X82870627Y-22014684D01*
X82874070Y-22016896D01*
X82876341Y-22018836D01*
X83091141Y-22150466D01*
X83323889Y-22246873D01*
X83568852Y-22305683D01*
X83820000Y-22325449D01*
X84071148Y-22305683D01*
X84316111Y-22246873D01*
X84548859Y-22150466D01*
X84763659Y-22018836D01*
X84765929Y-22016897D01*
X84769004Y-22014951D01*
X84779515Y-22007315D01*
X84780006Y-22007991D01*
X84885952Y-21940968D01*
X85022511Y-21901927D01*
X85164537Y-21902940D01*
X85300525Y-21943926D01*
X85400063Y-22007895D01*
X85400485Y-22007315D01*
X85410627Y-22014684D01*
X85414070Y-22016896D01*
X85416341Y-22018836D01*
X85631141Y-22150466D01*
X85863889Y-22246873D01*
X86108852Y-22305683D01*
X86360000Y-22325449D01*
X86611148Y-22305683D01*
X86856111Y-22246873D01*
X87088859Y-22150466D01*
X87303659Y-22018836D01*
X87305929Y-22016897D01*
X87309004Y-22014951D01*
X87319515Y-22007315D01*
X87320006Y-22007991D01*
X87425952Y-21940968D01*
X87562511Y-21901927D01*
X87704537Y-21902940D01*
X87840525Y-21943926D01*
X87940063Y-22007895D01*
X87940485Y-22007315D01*
X87950627Y-22014684D01*
X87954070Y-22016896D01*
X87956341Y-22018836D01*
X88171141Y-22150466D01*
X88403889Y-22246873D01*
X88648852Y-22305683D01*
X88900000Y-22325449D01*
X89151148Y-22305683D01*
X89396111Y-22246873D01*
X89628859Y-22150466D01*
X89843659Y-22018836D01*
X89845929Y-22016897D01*
X89849004Y-22014951D01*
X89859515Y-22007315D01*
X89860006Y-22007991D01*
X89965952Y-21940968D01*
X90102511Y-21901927D01*
X90244537Y-21902940D01*
X90380525Y-21943926D01*
X90480063Y-22007895D01*
X90480485Y-22007315D01*
X90490627Y-22014684D01*
X90494070Y-22016896D01*
X90496341Y-22018836D01*
X90711141Y-22150466D01*
X90943889Y-22246873D01*
X91188852Y-22305683D01*
X91440000Y-22325449D01*
X91691148Y-22305683D01*
X91936111Y-22246873D01*
X92168859Y-22150466D01*
X92383659Y-22018836D01*
X92385929Y-22016897D01*
X92389004Y-22014951D01*
X92399515Y-22007315D01*
X92400006Y-22007991D01*
X92505952Y-21940968D01*
X92642511Y-21901927D01*
X92784537Y-21902940D01*
X92920525Y-21943926D01*
X93020063Y-22007895D01*
X93020485Y-22007315D01*
X93030627Y-22014684D01*
X93034070Y-22016896D01*
X93036341Y-22018836D01*
X93251141Y-22150466D01*
X93483889Y-22246873D01*
X93728852Y-22305683D01*
X93980000Y-22325449D01*
X94231148Y-22305683D01*
X94476111Y-22246873D01*
X94708859Y-22150466D01*
X94923659Y-22018836D01*
X95014831Y-21940968D01*
X95115222Y-21855226D01*
X95115226Y-21855222D01*
X95278830Y-21663666D01*
X95278829Y-21663666D01*
X95278836Y-21663659D01*
X95410466Y-21448859D01*
X95506873Y-21216111D01*
X95565683Y-20971148D01*
X95580500Y-20782882D01*
X95580500Y-19857118D01*
X95565683Y-19668852D01*
X95506873Y-19423889D01*
X95410466Y-19191141D01*
X95354030Y-19099046D01*
X95297811Y-18968618D01*
X95280500Y-18838323D01*
X95280500Y-13877371D01*
X95300713Y-13736786D01*
X95354032Y-13616645D01*
X95455153Y-13451629D01*
X95455154Y-13451628D01*
X95554573Y-13211610D01*
X95615221Y-12958994D01*
X95635604Y-12700000D01*
X95615221Y-12441006D01*
X95554573Y-12188390D01*
X95455154Y-11948372D01*
X95367317Y-11805035D01*
X95319415Y-11726865D01*
X95319412Y-11726860D01*
X95150689Y-11529311D01*
X94953140Y-11360588D01*
X94953135Y-11360585D01*
X94953134Y-11360584D01*
X94731634Y-11224849D01*
X94731622Y-11224843D01*
X94491617Y-11125429D01*
X94491608Y-11125426D01*
X94354859Y-11092596D01*
X94238994Y-11064779D01*
X94238991Y-11064778D01*
X94238988Y-11064778D01*
X93980000Y-11044396D01*
X93721013Y-11064778D01*
X93721009Y-11064778D01*
X93468391Y-11125426D01*
X93468382Y-11125429D01*
X93228377Y-11224843D01*
X93228365Y-11224849D01*
X93006860Y-11360587D01*
X93003301Y-11363173D01*
X92998547Y-11365680D01*
X92990142Y-11370832D01*
X92989810Y-11370291D01*
X92877684Y-11429453D01*
X92738483Y-11457657D01*
X92596974Y-11445502D01*
X92464621Y-11393971D01*
X92416699Y-11363173D01*
X92413139Y-11360587D01*
X92191634Y-11224849D01*
X92191622Y-11224843D01*
X91951617Y-11125429D01*
X91951608Y-11125426D01*
X91814859Y-11092596D01*
X91698994Y-11064779D01*
X91698991Y-11064778D01*
X91698988Y-11064778D01*
X91473606Y-11047040D01*
X91440000Y-11044396D01*
X91439999Y-11044396D01*
X91181013Y-11064778D01*
X91181009Y-11064778D01*
X90928391Y-11125426D01*
X90928382Y-11125429D01*
X90670260Y-11232348D01*
X90668828Y-11228892D01*
X90569337Y-11262763D01*
X90427436Y-11268802D01*
X90289580Y-11234618D01*
X90211900Y-11194823D01*
X90099526Y-11124213D01*
X90099524Y-11124212D01*
X90099522Y-11124211D01*
X89929255Y-11064632D01*
X89929254Y-11064631D01*
X89929249Y-11064630D01*
X89794964Y-11049500D01*
X89794954Y-11049500D01*
X88005046Y-11049500D01*
X88005035Y-11049500D01*
X87870750Y-11064630D01*
X87793305Y-11091729D01*
X87700478Y-11124211D01*
X87700476Y-11124211D01*
X87700476Y-11124212D01*
X87700473Y-11124213D01*
X87547736Y-11220185D01*
X87547733Y-11220187D01*
X87420187Y-11347733D01*
X87420185Y-11347736D01*
X87324213Y-11500473D01*
X87324212Y-11500476D01*
X87264630Y-11670750D01*
X87249500Y-11805035D01*
X87249500Y-13594964D01*
X87264630Y-13729249D01*
X87264631Y-13729254D01*
X87264632Y-13729255D01*
X87324211Y-13899522D01*
X87324212Y-13899523D01*
X87324213Y-13899526D01*
X87379882Y-13988122D01*
X87420183Y-14052261D01*
X87420185Y-14052263D01*
X87420187Y-14052266D01*
X87453346Y-14085425D01*
X87538462Y-14199126D01*
X87588096Y-14332201D01*
X87599500Y-14438271D01*
X87599500Y-17098870D01*
X87579287Y-17239455D01*
X87520286Y-17368650D01*
X87427276Y-17475989D01*
X87307792Y-17552776D01*
X87171515Y-17592791D01*
X87029485Y-17592791D01*
X86893208Y-17552776D01*
X86773724Y-17475989D01*
X86747654Y-17451716D01*
X80966682Y-11670745D01*
X79015431Y-9719494D01*
X79015412Y-9719473D01*
X78845892Y-9549954D01*
X78845888Y-9549951D01*
X78808116Y-9523503D01*
X78790868Y-9510268D01*
X78755538Y-9480623D01*
X78715609Y-9457570D01*
X78697248Y-9445872D01*
X78659486Y-9419432D01*
X78659487Y-9419432D01*
X78617706Y-9399949D01*
X78598395Y-9389896D01*
X78558468Y-9366844D01*
X78515138Y-9351073D01*
X78495029Y-9342744D01*
X78453248Y-9323261D01*
X78453246Y-9323260D01*
X78408714Y-9311328D01*
X78387948Y-9304780D01*
X78344636Y-9289016D01*
X78344626Y-9289013D01*
X78312842Y-9283409D01*
X78299224Y-9281008D01*
X78277973Y-9276296D01*
X78233449Y-9264365D01*
X78233436Y-9264363D01*
X78187517Y-9260345D01*
X78165935Y-9257504D01*
X78120538Y-9249499D01*
X78120531Y-9249499D01*
X77892973Y-9249499D01*
X77882744Y-9249499D01*
X77882720Y-9249500D01*
X66497681Y-9249500D01*
X66475926Y-9248550D01*
X66430000Y-9244532D01*
X66373216Y-9249500D01*
X66316579Y-9254454D01*
X66203306Y-9264365D01*
X65983501Y-9323261D01*
X65777263Y-9419433D01*
X65590863Y-9549951D01*
X65590857Y-9549956D01*
X65429956Y-9710857D01*
X65429951Y-9710863D01*
X65299433Y-9897263D01*
X65203261Y-10103501D01*
X65144365Y-10323306D01*
X65124531Y-10549998D01*
X65124532Y-10549999D01*
X65128550Y-10595924D01*
X65129500Y-10617680D01*
X65129499Y-18536154D01*
X65129499Y-18784346D01*
X65137504Y-18829743D01*
X65140345Y-18851325D01*
X65144363Y-18897244D01*
X65144365Y-18897257D01*
X65156296Y-18941781D01*
X65161010Y-18963041D01*
X65169013Y-19008434D01*
X65169016Y-19008444D01*
X65184780Y-19051756D01*
X65191328Y-19072522D01*
X65198435Y-19099048D01*
X65203261Y-19117056D01*
X65222744Y-19158837D01*
X65231073Y-19178946D01*
X65246844Y-19222276D01*
X65269896Y-19262203D01*
X65279949Y-19281514D01*
X65299432Y-19323295D01*
X65325872Y-19361056D01*
X65337570Y-19379417D01*
X65360623Y-19419346D01*
X65390268Y-19454676D01*
X65403503Y-19471924D01*
X65429103Y-19508485D01*
X65429954Y-19509700D01*
X65599483Y-19679230D01*
X65599504Y-19679249D01*
X66240255Y-20320000D01*
X66587910Y-20667654D01*
X66673026Y-20781355D01*
X66722660Y-20914430D01*
X66732793Y-21056098D01*
X66702602Y-21194882D01*
X66634534Y-21319539D01*
X66534104Y-21419970D01*
X66409447Y-21488038D01*
X66270663Y-21518229D01*
X66235064Y-21519500D01*
X50342341Y-21519500D01*
X50201756Y-21499287D01*
X50072561Y-21440286D01*
X49965222Y-21347276D01*
X49888435Y-21227792D01*
X49848420Y-21091515D01*
X49844880Y-20981345D01*
X49860499Y-20782903D01*
X49860498Y-20782894D01*
X49860500Y-20782882D01*
X49860500Y-19857118D01*
X49845683Y-19668852D01*
X49786873Y-19423889D01*
X49690466Y-19191141D01*
X49634030Y-19099046D01*
X49577811Y-18968618D01*
X49560500Y-18838323D01*
X49560500Y-13877371D01*
X49580713Y-13736786D01*
X49634032Y-13616645D01*
X49735153Y-13451629D01*
X49735154Y-13451628D01*
X49834573Y-13211610D01*
X49895221Y-12958994D01*
X49915604Y-12700000D01*
X49895221Y-12441006D01*
X49834573Y-12188390D01*
X49735154Y-11948372D01*
X49647317Y-11805035D01*
X49599415Y-11726865D01*
X49599412Y-11726860D01*
X49430689Y-11529311D01*
X49233140Y-11360588D01*
X49233135Y-11360585D01*
X49233134Y-11360584D01*
X49011634Y-11224849D01*
X49011622Y-11224843D01*
X48771617Y-11125429D01*
X48771608Y-11125426D01*
X48634859Y-11092596D01*
X48518994Y-11064779D01*
X48518991Y-11064778D01*
X48518988Y-11064778D01*
X48260000Y-11044396D01*
X48001013Y-11064778D01*
X48001009Y-11064778D01*
X47748391Y-11125426D01*
X47748382Y-11125429D01*
X47508377Y-11224843D01*
X47508365Y-11224849D01*
X47286860Y-11360587D01*
X47283301Y-11363173D01*
X47278547Y-11365680D01*
X47270142Y-11370832D01*
X47269810Y-11370291D01*
X47157684Y-11429453D01*
X47018483Y-11457657D01*
X46876974Y-11445502D01*
X46744621Y-11393971D01*
X46696699Y-11363173D01*
X46693139Y-11360587D01*
X46471634Y-11224849D01*
X46471622Y-11224843D01*
X46231617Y-11125429D01*
X46231608Y-11125426D01*
X46094859Y-11092596D01*
X45978994Y-11064779D01*
X45978991Y-11064778D01*
X45978988Y-11064778D01*
X45720000Y-11044396D01*
X45461013Y-11064778D01*
X45461009Y-11064778D01*
X45208391Y-11125426D01*
X45208382Y-11125429D01*
X44950260Y-11232348D01*
X44948828Y-11228892D01*
X44849337Y-11262763D01*
X44707436Y-11268802D01*
X44569580Y-11234618D01*
X44491900Y-11194823D01*
X44379526Y-11124213D01*
X44379524Y-11124212D01*
X44379522Y-11124211D01*
X44209255Y-11064632D01*
X44209254Y-11064631D01*
X44209249Y-11064630D01*
X44074964Y-11049500D01*
X44074954Y-11049500D01*
X42285046Y-11049500D01*
X42285035Y-11049500D01*
X42150750Y-11064630D01*
X42073305Y-11091729D01*
X41980478Y-11124211D01*
X41980476Y-11124211D01*
X41980476Y-11124212D01*
X41980473Y-11124213D01*
X41827736Y-11220185D01*
X41827733Y-11220187D01*
X41700187Y-11347733D01*
X41700185Y-11347736D01*
X41604213Y-11500473D01*
X41604212Y-11500476D01*
X41544630Y-11670750D01*
X41529500Y-11805035D01*
X41529500Y-13594964D01*
X41544630Y-13729249D01*
X41544631Y-13729254D01*
X41544632Y-13729255D01*
X41604211Y-13899522D01*
X41604212Y-13899523D01*
X41604213Y-13899526D01*
X41647366Y-13968203D01*
X41700184Y-14052262D01*
X41733345Y-14085423D01*
X41818460Y-14199121D01*
X41868095Y-14332195D01*
X41879500Y-14438270D01*
X41879500Y-17098870D01*
X41859287Y-17239455D01*
X41800286Y-17368650D01*
X41707276Y-17475989D01*
X41587792Y-17552776D01*
X41451515Y-17592791D01*
X41309485Y-17592791D01*
X41173208Y-17552776D01*
X41053724Y-17475989D01*
X41027654Y-17451716D01*
X35246682Y-11670745D01*
X33295431Y-9719494D01*
X33295412Y-9719473D01*
X33125892Y-9549954D01*
X33125888Y-9549951D01*
X33088116Y-9523503D01*
X33070868Y-9510268D01*
X33035538Y-9480623D01*
X32995609Y-9457570D01*
X32977248Y-9445872D01*
X32939486Y-9419432D01*
X32939487Y-9419432D01*
X32897706Y-9399949D01*
X32878395Y-9389896D01*
X32838468Y-9366844D01*
X32795138Y-9351073D01*
X32775029Y-9342744D01*
X32733248Y-9323261D01*
X32733246Y-9323260D01*
X32688714Y-9311328D01*
X32667948Y-9304780D01*
X32624636Y-9289016D01*
X32624626Y-9289013D01*
X32592842Y-9283409D01*
X32579224Y-9281008D01*
X32557973Y-9276296D01*
X32513449Y-9264365D01*
X32513436Y-9264363D01*
X32467517Y-9260345D01*
X32445935Y-9257504D01*
X32400538Y-9249499D01*
X32400531Y-9249499D01*
X32172973Y-9249499D01*
X32162744Y-9249499D01*
X32162720Y-9249500D01*
X20777681Y-9249500D01*
X20755926Y-9248550D01*
X20710000Y-9244532D01*
X20653216Y-9249500D01*
X20596579Y-9254454D01*
X20483306Y-9264365D01*
X20263501Y-9323261D01*
X20057263Y-9419433D01*
X19870863Y-9549951D01*
X19870857Y-9549956D01*
X19709956Y-9710857D01*
X19709951Y-9710863D01*
X19579433Y-9897263D01*
X19483261Y-10103501D01*
X19424365Y-10323306D01*
X19404531Y-10549998D01*
X19404532Y-10549999D01*
X19408550Y-10595924D01*
X19409500Y-10617680D01*
X19409500Y-18545732D01*
X19409499Y-18545758D01*
X19409499Y-18784346D01*
X19417504Y-18829743D01*
X19420345Y-18851325D01*
X19424363Y-18897244D01*
X19424365Y-18897257D01*
X19436296Y-18941781D01*
X19441010Y-18963041D01*
X19449013Y-19008434D01*
X19449016Y-19008444D01*
X19464780Y-19051756D01*
X19471328Y-19072522D01*
X19478435Y-19099048D01*
X19483261Y-19117056D01*
X19502744Y-19158837D01*
X19511073Y-19178946D01*
X19526844Y-19222276D01*
X19549896Y-19262203D01*
X19559949Y-19281514D01*
X19579432Y-19323295D01*
X19605872Y-19361056D01*
X19617570Y-19379417D01*
X19640623Y-19419346D01*
X19670268Y-19454676D01*
X19683503Y-19471924D01*
X19709103Y-19508485D01*
X19709954Y-19509700D01*
X19879483Y-19679230D01*
X19879504Y-19679249D01*
X21297910Y-21097654D01*
X21383026Y-21211355D01*
X21432660Y-21344430D01*
X21442793Y-21486098D01*
X21412602Y-21624882D01*
X21344534Y-21749539D01*
X21244104Y-21849970D01*
X21119447Y-21918038D01*
X20980662Y-21948229D01*
X20945064Y-21949500D01*
X20834032Y-21949500D01*
X20834008Y-21949499D01*
X20823779Y-21949499D01*
X20596221Y-21949499D01*
X20596218Y-21949499D01*
X20596211Y-21949500D01*
X20550817Y-21957504D01*
X20529235Y-21960345D01*
X20483314Y-21964363D01*
X20483311Y-21964364D01*
X20438771Y-21976298D01*
X20417521Y-21981009D01*
X20407750Y-21982731D01*
X20372116Y-21989015D01*
X20372115Y-21989016D01*
X20328799Y-22004782D01*
X20308033Y-22011329D01*
X20263502Y-22023260D01*
X20221721Y-22042743D01*
X20201612Y-22051073D01*
X20158289Y-22066842D01*
X20158273Y-22066849D01*
X20118355Y-22089896D01*
X20099049Y-22099946D01*
X20057272Y-22119428D01*
X20057266Y-22119431D01*
X20019502Y-22145873D01*
X20001147Y-22157566D01*
X19961224Y-22180616D01*
X19961208Y-22180627D01*
X19925904Y-22210251D01*
X19908637Y-22223500D01*
X19870869Y-22249946D01*
X19870857Y-22249956D01*
X19704026Y-22416786D01*
X19703984Y-22416830D01*
X17909956Y-24210857D01*
X17909948Y-24210867D01*
X17883507Y-24248627D01*
X17870259Y-24265892D01*
X17840626Y-24301208D01*
X17840618Y-24301220D01*
X17817567Y-24341145D01*
X17805873Y-24359501D01*
X17779433Y-24397262D01*
X17779429Y-24397269D01*
X17759951Y-24439041D01*
X17749899Y-24458351D01*
X17726846Y-24498280D01*
X17726844Y-24498283D01*
X17711073Y-24541612D01*
X17702743Y-24561721D01*
X17683260Y-24603502D01*
X17671329Y-24648033D01*
X17664782Y-24668799D01*
X17649016Y-24712115D01*
X17649015Y-24712116D01*
X17641010Y-24757517D01*
X17636298Y-24778771D01*
X17624364Y-24823311D01*
X17624363Y-24823314D01*
X17620345Y-24869235D01*
X17617504Y-24890817D01*
X17609500Y-24936211D01*
X17609499Y-24936225D01*
X17609499Y-25175977D01*
X17609500Y-25175998D01*
X17609500Y-54851316D01*
X17609499Y-54851342D01*
X17609499Y-55102121D01*
X17609500Y-55102142D01*
X17609500Y-90411316D01*
X17609499Y-90411342D01*
X17609499Y-90649930D01*
X500Y-90649930D01*
X500Y-7687761D01*
X5765788Y-7687761D01*
X5795415Y-7957024D01*
X5863924Y-8219076D01*
X5863927Y-8219085D01*
X5969869Y-8468388D01*
X6110985Y-8699615D01*
X6284249Y-8907813D01*
X6284251Y-8907816D01*
X6284253Y-8907818D01*
X6284255Y-8907820D01*
X6485998Y-9088582D01*
X6711910Y-9238044D01*
X6957176Y-9353020D01*
X7216569Y-9431060D01*
X7305899Y-9444206D01*
X7484557Y-9470500D01*
X7484561Y-9470500D01*
X7687627Y-9470500D01*
X7687631Y-9470500D01*
X7890156Y-9455677D01*
X8154553Y-9396780D01*
X8407558Y-9300014D01*
X8643777Y-9167441D01*
X8858177Y-9001888D01*
X9046186Y-8806881D01*
X9203799Y-8586579D01*
X9327656Y-8345675D01*
X9415118Y-8089305D01*
X9464319Y-7822933D01*
X9469259Y-7687761D01*
X112445788Y-7687761D01*
X112475415Y-7957024D01*
X112543924Y-8219076D01*
X112543927Y-8219085D01*
X112649869Y-8468388D01*
X112790985Y-8699615D01*
X112964249Y-8907813D01*
X112964251Y-8907816D01*
X112964253Y-8907818D01*
X112964255Y-8907820D01*
X113165998Y-9088582D01*
X113391910Y-9238044D01*
X113637176Y-9353020D01*
X113896569Y-9431060D01*
X113985899Y-9444206D01*
X114164557Y-9470500D01*
X114164561Y-9470500D01*
X114367627Y-9470500D01*
X114367631Y-9470500D01*
X114570156Y-9455677D01*
X114834553Y-9396780D01*
X115087558Y-9300014D01*
X115323777Y-9167441D01*
X115538177Y-9001888D01*
X115726186Y-8806881D01*
X115883799Y-8586579D01*
X116007656Y-8345675D01*
X116095118Y-8089305D01*
X116144319Y-7822933D01*
X116154212Y-7552235D01*
X116124586Y-7282982D01*
X116056072Y-7020912D01*
X115950130Y-6771610D01*
X115809018Y-6540390D01*
X115809016Y-6540388D01*
X115809014Y-6540384D01*
X115635750Y-6332186D01*
X115635748Y-6332183D01*
X115635745Y-6332180D01*
X115434002Y-6151418D01*
X115208090Y-6001956D01*
X114962824Y-5886980D01*
X114817373Y-5843220D01*
X114703428Y-5808939D01*
X114435443Y-5769500D01*
X114435439Y-5769500D01*
X114232369Y-5769500D01*
X114190935Y-5772532D01*
X114029846Y-5784322D01*
X113765452Y-5843218D01*
X113765445Y-5843220D01*
X113512437Y-5939988D01*
X113512436Y-5939988D01*
X113276223Y-6072559D01*
X113276217Y-6072563D01*
X113061827Y-6238107D01*
X112971125Y-6332186D01*
X112873814Y-6433119D01*
X112716201Y-6653421D01*
X112592344Y-6894325D01*
X112592342Y-6894329D01*
X112504883Y-7150690D01*
X112455681Y-7417066D01*
X112455680Y-7417073D01*
X112445788Y-7687761D01*
X9469259Y-7687761D01*
X9474212Y-7552235D01*
X9444586Y-7282982D01*
X9376072Y-7020912D01*
X9270130Y-6771610D01*
X9129018Y-6540390D01*
X9129016Y-6540388D01*
X9129014Y-6540384D01*
X8955750Y-6332186D01*
X8955748Y-6332183D01*
X8955745Y-6332180D01*
X8754002Y-6151418D01*
X8528090Y-6001956D01*
X8282824Y-5886980D01*
X8137373Y-5843220D01*
X8023428Y-5808939D01*
X7755443Y-5769500D01*
X7755439Y-5769500D01*
X7552369Y-5769500D01*
X7510935Y-5772532D01*
X7349846Y-5784322D01*
X7085452Y-5843218D01*
X7085445Y-5843220D01*
X6832437Y-5939988D01*
X6832436Y-5939988D01*
X6596223Y-6072559D01*
X6596217Y-6072563D01*
X6381827Y-6238107D01*
X6291125Y-6332186D01*
X6193814Y-6433119D01*
X6036201Y-6653421D01*
X5912344Y-6894325D01*
X5912342Y-6894329D01*
X5824883Y-7150690D01*
X5775681Y-7417066D01*
X5775680Y-7417073D01*
X5765788Y-7687761D01*
X500Y-7687761D01*
X500Y-499500D01*
X20713Y-358915D01*
X79714Y-229720D01*
X172724Y-122381D01*
X292208Y-45594D01*
X428485Y-5579D01*
X499500Y-500D01*
X121420500Y-500D01*
X121561085Y-20713D01*
G37*
G04 #@! TD.AperFunction*
G04 #@! TD*
M02*
