M48
; DRILL file {KiCad 7.0.5} date Sat Jun 17 16:47:01 2023
; FORMAT={-:-/ absolute / inch / decimal}
; #@! TF.CreationDate,2023-06-17T16:47:01+02:00
; #@! TF.GenerationSoftware,Kicad,Pcbnew,7.0.5
; #@! TF.FileFunction,MixedPlating,1,2
FMAT,2
INCH
; #@! TA.AperFunction,Plated,PTH,ComponentDrill
T1C0.0315
; #@! TA.AperFunction,Plated,PTH,ComponentDrill
T2C0.0394
; #@! TA.AperFunction,NonPlated,NPTH,ComponentDrill
T3C0.1260
%
G90
G05
T1
X3.8Y-1.7
X3.8Y-2.2
X3.8Y-3.1
X3.8Y-3.6
X3.8Y-4.5
X3.8Y-5.0
X3.9Y-1.7
X3.9Y-2.2
X3.9Y-3.1
X3.9Y-3.6
X3.9Y-4.5
X3.9Y-5.0
X4.0Y-1.7
X4.0Y-2.2
X4.0Y-3.1
X4.0Y-3.6
X4.0Y-4.5
X4.0Y-5.0
X4.1Y-1.7
X4.1Y-2.2
X4.1Y-3.1
X4.1Y-3.6
X4.1Y-4.5
X4.1Y-5.0
X4.2Y-1.7
X4.2Y-2.2
X4.2Y-3.1
X4.2Y-3.6
X4.2Y-4.5
X4.2Y-5.0
X4.3Y-1.7
X4.3Y-2.2
X4.3Y-3.1
X4.3Y-3.6
X4.3Y-4.5
X4.3Y-5.0
X4.4Y-1.7
X4.4Y-2.2
X4.4Y-3.1
X4.4Y-3.6
X4.4Y-4.5
X4.4Y-5.0
X4.5Y-1.7
X4.5Y-2.2
X4.5Y-3.1
X4.5Y-3.6
X4.5Y-4.5
X4.5Y-5.0
X5.6Y-1.7
X5.6Y-2.2
X5.6Y-3.1
X5.6Y-3.6
X5.6Y-4.5
X5.6Y-5.0
X5.7Y-1.7
X5.7Y-2.2
X5.7Y-3.1
X5.7Y-3.6
X5.7Y-4.5
X5.7Y-5.0
X5.8Y-1.7
X5.8Y-2.2
X5.8Y-3.1
X5.8Y-3.6
X5.8Y-4.5
X5.8Y-5.0
X5.9Y-1.7
X5.9Y-2.2
X5.9Y-3.1
X5.9Y-3.6
X5.9Y-4.5
X5.9Y-5.0
X6.0Y-1.7
X6.0Y-2.2
X6.0Y-3.1
X6.0Y-3.6
X6.0Y-4.5
X6.0Y-5.0
X6.1Y-1.7
X6.1Y-2.2
X6.1Y-3.1
X6.1Y-3.6
X6.1Y-4.5
X6.1Y-5.0
X6.2Y-1.7
X6.2Y-2.2
X6.2Y-3.1
X6.2Y-3.6
X6.2Y-4.5
X6.2Y-5.0
X6.3Y-1.7
X6.3Y-2.2
X6.3Y-3.1
X6.3Y-3.6
X6.3Y-4.5
X6.3Y-5.0
X6.8Y-2.1016
X6.8Y-2.2
T2
X3.5Y-1.4
X3.5Y-1.5
X3.5Y-1.6
X3.5Y-1.7
X3.5Y-1.9
X3.5Y-2.1
X3.5Y-2.2
X3.5Y-2.3
X3.5Y-2.4
X3.5Y-2.8
X3.5Y-2.9
X3.5Y-3.0
X3.5Y-3.1
X3.5Y-3.3
X3.5Y-3.5
X3.5Y-3.6
X3.5Y-3.7
X3.5Y-3.8
X3.5Y-4.2
X3.5Y-4.3
X3.5Y-4.4
X3.5Y-4.5
X3.5Y-4.7
X3.5Y-4.9
X3.5Y-5.0
X3.5Y-5.1
X3.5Y-5.2
X4.3Y-1.4
X4.3Y-2.8
X4.3Y-4.2
X4.4Y-1.4
X4.4Y-2.8
X4.4Y-4.2
X4.5Y-1.4
X4.5Y-2.8
X4.5Y-4.2
X5.3Y-1.4
X5.3Y-1.5
X5.3Y-1.6
X5.3Y-1.7
X5.3Y-1.9
X5.3Y-2.1
X5.3Y-2.2
X5.3Y-2.3
X5.3Y-2.4
X5.3Y-2.8
X5.3Y-2.9
X5.3Y-3.0
X5.3Y-3.1
X5.3Y-3.3
X5.3Y-3.5
X5.3Y-3.6
X5.3Y-3.7
X5.3Y-3.8
X5.3Y-4.2
X5.3Y-4.3
X5.3Y-4.4
X5.3Y-4.5
X5.3Y-4.7
X5.3Y-4.9
X5.3Y-5.0
X5.3Y-5.1
X5.3Y-5.2
X6.1Y-1.4
X6.1Y-2.8
X6.1Y-4.2
X6.2Y-1.4
X6.2Y-2.8
X6.2Y-4.2
X6.3Y-1.4
X6.3Y-2.8
X6.3Y-4.2
X7.1Y-2.1
X7.1Y-2.2
T3
X2.9Y-1.2
X2.9Y-5.4
X7.1Y-1.2
X7.1Y-5.4
T0
M30
