<?xml version="1.0" encoding="UTF-8" standalone="no"?>
<svg
   version="1.1"
   width="2.04cm"
   height="2.2936201cm"
   viewBox="0 0 20400000 22936200"
   id="svg356"
   sodipodi:docname="breakout-brd-inverted.svg"
   inkscape:version="1.2 (dc2aedaf03, 2022-05-15)"
   xmlns:inkscape="http://www.inkscape.org/namespaces/inkscape"
   xmlns:sodipodi="http://sodipodi.sourceforge.net/DTD/sodipodi-0.dtd"
   xmlns="http://www.w3.org/2000/svg"
   xmlns:svg="http://www.w3.org/2000/svg"
   xmlns:rdf="http://www.w3.org/1999/02/22-rdf-syntax-ns#"
   xmlns:cc="http://creativecommons.org/ns#"
   xmlns:dc="http://purl.org/dc/elements/1.1/">
  <defs
     id="defs360">
    <filter
       style="color-interpolation-filters:sRGB"
       inkscape:label="Invert"
       id="filter701"
       x="-2.5881257e-08"
       y="-2.2873873e-08"
       width="1.0000001"
       height="1">
      <feColorMatrix
         type="hueRotate"
         values="180"
         result="color1"
         id="feColorMatrix697" />
      <feColorMatrix
         values="-1 0 0 0 1 0 -1 0 0 1 0 0 -1 0 1 -0.21 -0.72 -0.07 2 0 "
         result="color2"
         id="feColorMatrix699" />
    </filter>
  </defs>
  <sodipodi:namedview
     id="namedview358"
     pagecolor="#ffffff"
     bordercolor="#000000"
     borderopacity="0.25"
     inkscape:showpageshadow="2"
     inkscape:pageopacity="0.0"
     inkscape:pagecheckerboard="0"
     inkscape:deskcolor="#d1d1d1"
     inkscape:document-units="cm"
     showgrid="false"
     inkscape:zoom="6.8273388"
     inkscape:cx="1.1717596"
     inkscape:cy="47.309795"
     inkscape:window-width="1920"
     inkscape:window-height="1017"
     inkscape:window-x="-8"
     inkscape:window-y="-8"
     inkscape:window-maximized="1"
     inkscape:current-layer="svg356" />
  <title
     id="title2">SVG Picture created as breakout-brd.svg date 2022/05/26 14:17:30 </title>
  <desc
     id="desc4">Picture generated by PCBNEW </desc>
  <rect
     style="fill:#000000;stroke-width:242206"
     id="rect518"
     width="20400000"
     height="22940000"
     x="0"
     y="0" />
  <g
     id="g695"
     style="filter:url(#filter701)">
    <g
       style="fill:#000000;fill-opacity:1;stroke:#000000;stroke-linecap:round;stroke-linejoin:round;stroke-opacity:1"
       id="g6" />
    <g
       style="fill:#000000;fill-opacity:0;stroke:#000000;stroke-width:0;stroke-linecap:round;stroke-linejoin:round;stroke-opacity:1"
       id="g238">
      <g
         id="g8" />
      <g
         style="fill:#000000;fill-opacity:0;stroke:#000000;stroke-width:1;stroke-linecap:round;stroke-linejoin:round;stroke-opacity:1"
         id="g10" />
      <g
         style="fill:#000000;fill-opacity:1;stroke:#000000;stroke-width:1;stroke-linecap:round;stroke-linejoin:round;stroke-opacity:1"
         id="g16">
        <path
           style="fill:#000000;fill-opacity:1;fill-rule:evenodd;stroke:#000000;stroke-width:1;stroke-linecap:round;stroke-linejoin:round;stroke-opacity:1"
           d="m 5950000,17543000 -19030,95671 -54193,81106 -81106,54193 -95671,19030 h -675000 l -95671,-19030 -81106,-54193 -54193,-81106 -19030,-95671 v -950000 l 19030,-95671 54193,-81106 81106,-54193 95671,-19030 h 675000 l 95671,19030 81106,54193 54193,81106 19030,95671 z"
           id="path12" />
        <path
           style="fill:#000000;fill-opacity:1;fill-rule:evenodd;stroke:#000000;stroke-width:1;stroke-linecap:round;stroke-linejoin:round;stroke-opacity:1"
           d="m 8025000,17543000 -19030,95671 -54193,81106 -81106,54193 -95671,19030 h -675000 l -95671,-19030 -81106,-54193 -54193,-81106 -19030,-95671 v -950000 l 19030,-95671 54193,-81106 81106,-54193 95671,-19030 h 675000 l 95671,19030 81106,54193 54193,81106 19030,95671 z"
           id="path14" />
      </g>
      <g
         id="g18" />
      <g
         style="fill:#000000;fill-opacity:1;stroke:#000000;stroke-width:1;stroke-linecap:round;stroke-linejoin:round;stroke-opacity:1"
         id="g24">
        <path
           style="fill:#000000;fill-opacity:1;fill-rule:evenodd;stroke:#000000;stroke-width:1;stroke-linecap:round;stroke-linejoin:round;stroke-opacity:1"
           d="m 11295000,16593000 19030,-95671 54193,-81106 81106,-54193 95671,-19030 h 675000 l 95671,19030 81106,54193 54193,81106 19030,95671 v 950000 l -19030,95671 -54193,81106 -81106,54193 -95671,19030 h -675000 l -95671,-19030 -81106,-54193 -54193,-81106 -19030,-95671 z"
           id="path20" />
        <path
           style="fill:#000000;fill-opacity:1;fill-rule:evenodd;stroke:#000000;stroke-width:1;stroke-linecap:round;stroke-linejoin:round;stroke-opacity:1"
           d="m 9220000,16593000 19030,-95671 54193,-81106 81106,-54193 95671,-19030 h 675000 l 95671,19030 81106,54193 54193,81106 19030,95671 v 950000 l -19030,95671 -54193,81106 -81106,54193 -95671,19030 h -675000 l -95671,-19030 -81106,-54193 -54193,-81106 -19030,-95671 z"
           id="path22" />
      </g>
      <g
         id="g26" />
      <g
         style="fill:#000000;fill-opacity:1;stroke:#000000;stroke-width:1;stroke-linecap:round;stroke-linejoin:round;stroke-opacity:1"
         id="g36">
        <path
           style="fill:#000000;fill-opacity:1;fill-rule:evenodd;stroke:#000000;stroke-width:1;stroke-linecap:round;stroke-linejoin:round;stroke-opacity:1"
           d="m 13170001,1740001 h 1699998 v 1699998 h -1699998 z"
           id="path28" />
        <circle
           cx="11480000"
           cy="2590000"
           r="850000"
           id="circle30" />
        <circle
           cx="8940000"
           cy="2590000"
           r="850000"
           id="circle32" />
        <circle
           cx="6400000"
           cy="2590000"
           r="850000"
           id="circle34" />
      </g>
      <g
         id="g38" />
      <g
         style="fill:#000000;fill-opacity:1;stroke:#000000;stroke-width:1;stroke-linecap:round;stroke-linejoin:round;stroke-opacity:1"
         id="g50">
        <path
           style="fill:#000000;fill-opacity:1;fill-rule:evenodd;stroke:#000000;stroke-width:1;stroke-linecap:round;stroke-linejoin:round;stroke-opacity:1"
           d="M 1740001,5979999 V 4280001 h 1699998 v 1699998 z"
           id="path40" />
        <circle
           cx="2590000"
           cy="7670000"
           r="850000"
           id="circle42" />
        <circle
           cx="2590000"
           cy="10210000"
           r="850000"
           id="circle44" />
        <circle
           cx="2590000"
           cy="12750000"
           r="850000"
           id="circle46" />
        <circle
           cx="2590000"
           cy="15290000"
           r="850000"
           id="circle48" />
      </g>
      <g
         id="g52" />
      <g
         style="fill:#000000;fill-opacity:1;stroke:#000000;stroke-width:1;stroke-linecap:round;stroke-linejoin:round;stroke-opacity:1"
         id="g86">
        <path
           style="fill:#000000;fill-opacity:1;fill-rule:evenodd;stroke:#000000;stroke-width:1;stroke-linecap:round;stroke-linejoin:round;stroke-opacity:1"
           d="m 14660000,14805000 -11418,57403 -32516,48663 -48663,32516 -57403,11418 h -1675000 l -57403,-11418 -48663,-32516 -32516,-48663 -11418,-57403 v -300000 l 11418,-57403 32516,-48663 48663,-32516 57403,-11418 h 1675000 l 57403,11418 48663,32516 32516,48663 11418,57403 z"
           id="path54" />
        <path
           style="fill:#000000;fill-opacity:1;fill-rule:evenodd;stroke:#000000;stroke-width:1;stroke-linecap:round;stroke-linejoin:round;stroke-opacity:1"
           d="m 14660000,13535000 -11418,57403 -32516,48663 -48663,32516 -57403,11418 h -1675000 l -57403,-11418 -48663,-32516 -32516,-48663 -11418,-57403 v -300000 l 11418,-57403 32516,-48663 48663,-32516 57403,-11418 h 1675000 l 57403,11418 48663,32516 32516,48663 11418,57403 z"
           id="path56" />
        <path
           style="fill:#000000;fill-opacity:1;fill-rule:evenodd;stroke:#000000;stroke-width:1;stroke-linecap:round;stroke-linejoin:round;stroke-opacity:1"
           d="m 14660000,12265000 -11418,57403 -32516,48663 -48663,32516 -57403,11418 h -1675000 l -57403,-11418 -48663,-32516 -32516,-48663 -11418,-57403 v -300000 l 11418,-57403 32516,-48663 48663,-32516 57403,-11418 h 1675000 l 57403,11418 48663,32516 32516,48663 11418,57403 z"
           id="path58" />
        <path
           style="fill:#000000;fill-opacity:1;fill-rule:evenodd;stroke:#000000;stroke-width:1;stroke-linecap:round;stroke-linejoin:round;stroke-opacity:1"
           d="m 14660000,10995000 -11418,57403 -32516,48663 -48663,32516 -57403,11418 h -1675000 l -57403,-11418 -48663,-32516 -32516,-48663 -11418,-57403 v -300000 l 11418,-57403 32516,-48663 48663,-32516 57403,-11418 h 1675000 l 57403,11418 48663,32516 32516,48663 11418,57403 z"
           id="path60" />
        <path
           style="fill:#000000;fill-opacity:1;fill-rule:evenodd;stroke:#000000;stroke-width:1;stroke-linecap:round;stroke-linejoin:round;stroke-opacity:1"
           d="m 14660000,9725000 -11418,57403 -32516,48663 -48663,32516 -57403,11418 h -1675000 l -57403,-11418 -48663,-32516 -32516,-48663 -11418,-57403 v -300000 l 11418,-57403 32516,-48663 48663,-32516 57403,-11418 h 1675000 l 57403,11418 48663,32516 32516,48663 11418,57403 z"
           id="path62" />
        <path
           style="fill:#000000;fill-opacity:1;fill-rule:evenodd;stroke:#000000;stroke-width:1;stroke-linecap:round;stroke-linejoin:round;stroke-opacity:1"
           d="m 14660000,8455000 -11418,57403 -32516,48663 -48663,32516 -57403,11418 h -1675000 l -57403,-11418 -48663,-32516 -32516,-48663 -11418,-57403 v -300000 l 11418,-57403 32516,-48663 48663,-32516 57403,-11418 h 1675000 l 57403,11418 48663,32516 32516,48663 11418,57403 z"
           id="path64" />
        <path
           style="fill:#000000;fill-opacity:1;fill-rule:evenodd;stroke:#000000;stroke-width:1;stroke-linecap:round;stroke-linejoin:round;stroke-opacity:1"
           d="m 14660000,7185000 -11418,57403 -32516,48663 -48663,32516 -57403,11418 h -1675000 l -57403,-11418 -48663,-32516 -32516,-48663 -11418,-57403 v -300000 l 11418,-57403 32516,-48663 48663,-32516 57403,-11418 h 1675000 l 57403,11418 48663,32516 32516,48663 11418,57403 z"
           id="path66" />
        <path
           style="fill:#000000;fill-opacity:1;fill-rule:evenodd;stroke:#000000;stroke-width:1;stroke-linecap:round;stroke-linejoin:round;stroke-opacity:1"
           d="m 14660000,5915000 -11418,57403 -32516,48663 -48663,32516 -57403,11418 h -1675000 l -57403,-11418 -48663,-32516 -32516,-48663 -11418,-57403 v -300000 l 11418,-57403 32516,-48663 48663,-32516 57403,-11418 h 1675000 l 57403,11418 48663,32516 32516,48663 11418,57403 z"
           id="path68" />
        <path
           style="fill:#000000;fill-opacity:1;fill-rule:evenodd;stroke:#000000;stroke-width:1;stroke-linecap:round;stroke-linejoin:round;stroke-opacity:1"
           d="m 7735000,5915000 -11418,57403 -32516,48663 -48663,32516 -57403,11418 H 5910000 l -57403,-11418 -48663,-32516 -32516,-48663 -11418,-57403 v -300000 l 11418,-57403 32516,-48663 48663,-32516 57403,-11418 h 1675000 l 57403,11418 48663,32516 32516,48663 11418,57403 z"
           id="path70" />
        <path
           style="fill:#000000;fill-opacity:1;fill-rule:evenodd;stroke:#000000;stroke-width:1;stroke-linecap:round;stroke-linejoin:round;stroke-opacity:1"
           d="m 7735000,7185000 -11418,57403 -32516,48663 -48663,32516 -57403,11418 H 5910000 l -57403,-11418 -48663,-32516 -32516,-48663 -11418,-57403 v -300000 l 11418,-57403 32516,-48663 48663,-32516 57403,-11418 h 1675000 l 57403,11418 48663,32516 32516,48663 11418,57403 z"
           id="path72" />
        <path
           style="fill:#000000;fill-opacity:1;fill-rule:evenodd;stroke:#000000;stroke-width:1;stroke-linecap:round;stroke-linejoin:round;stroke-opacity:1"
           d="m 7735000,8455000 -11418,57403 -32516,48663 -48663,32516 -57403,11418 H 5910000 l -57403,-11418 -48663,-32516 -32516,-48663 -11418,-57403 v -300000 l 11418,-57403 32516,-48663 48663,-32516 57403,-11418 h 1675000 l 57403,11418 48663,32516 32516,48663 11418,57403 z"
           id="path74" />
        <path
           style="fill:#000000;fill-opacity:1;fill-rule:evenodd;stroke:#000000;stroke-width:1;stroke-linecap:round;stroke-linejoin:round;stroke-opacity:1"
           d="m 7735000,9725000 -11418,57403 -32516,48663 -48663,32516 -57403,11418 H 5910000 l -57403,-11418 -48663,-32516 -32516,-48663 -11418,-57403 v -300000 l 11418,-57403 32516,-48663 48663,-32516 57403,-11418 h 1675000 l 57403,11418 48663,32516 32516,48663 11418,57403 z"
           id="path76" />
        <path
           style="fill:#000000;fill-opacity:1;fill-rule:evenodd;stroke:#000000;stroke-width:1;stroke-linecap:round;stroke-linejoin:round;stroke-opacity:1"
           d="m 7735000,10995000 -11418,57403 -32516,48663 -48663,32516 -57403,11418 H 5910000 l -57403,-11418 -48663,-32516 -32516,-48663 -11418,-57403 v -300000 l 11418,-57403 32516,-48663 48663,-32516 57403,-11418 h 1675000 l 57403,11418 48663,32516 32516,48663 11418,57403 z"
           id="path78" />
        <path
           style="fill:#000000;fill-opacity:1;fill-rule:evenodd;stroke:#000000;stroke-width:1;stroke-linecap:round;stroke-linejoin:round;stroke-opacity:1"
           d="m 7735000,12265000 -11418,57403 -32516,48663 -48663,32516 -57403,11418 H 5910000 l -57403,-11418 -48663,-32516 -32516,-48663 -11418,-57403 v -300000 l 11418,-57403 32516,-48663 48663,-32516 57403,-11418 h 1675000 l 57403,11418 48663,32516 32516,48663 11418,57403 z"
           id="path80" />
        <path
           style="fill:#000000;fill-opacity:1;fill-rule:evenodd;stroke:#000000;stroke-width:1;stroke-linecap:round;stroke-linejoin:round;stroke-opacity:1"
           d="m 7735000,13535000 -11418,57403 -32516,48663 -48663,32516 -57403,11418 H 5910000 l -57403,-11418 -48663,-32516 -32516,-48663 -11418,-57403 v -300000 l 11418,-57403 32516,-48663 48663,-32516 57403,-11418 h 1675000 l 57403,11418 48663,32516 32516,48663 11418,57403 z"
           id="path82" />
        <path
           style="fill:#000000;fill-opacity:1;fill-rule:evenodd;stroke:#000000;stroke-width:1;stroke-linecap:round;stroke-linejoin:round;stroke-opacity:1"
           d="m 7735000,14805000 -11418,57403 -32516,48663 -48663,32516 -57403,11418 H 5910000 l -57403,-11418 -48663,-32516 -32516,-48663 -11418,-57403 v -300000 l 11418,-57403 32516,-48663 48663,-32516 57403,-11418 h 1675000 l 57403,11418 48663,32516 32516,48663 11418,57403 z"
           id="path84" />
      </g>
      <g
         id="g88" />
      <g
         style="fill:#000000;fill-opacity:1;stroke:#000000;stroke-width:1;stroke-linecap:round;stroke-linejoin:round;stroke-opacity:1"
         id="g100">
        <path
           style="fill:#000000;fill-opacity:1;fill-rule:evenodd;stroke:#000000;stroke-width:1;stroke-linecap:round;stroke-linejoin:round;stroke-opacity:1"
           d="M 16980001,5979999 V 4280001 h 1699998 v 1699998 z"
           id="path90" />
        <circle
           cx="17830000"
           cy="7670000"
           r="850000"
           id="circle92" />
        <circle
           cx="17830000"
           cy="10210000"
           r="850000"
           id="circle94" />
        <circle
           cx="17830000"
           cy="12750000"
           r="850000"
           id="circle96" />
        <circle
           cx="17830000"
           cy="15290000"
           r="850000"
           id="circle98" />
      </g>
      <g
         id="g102" />
      <g
         style="fill:#000000;fill-opacity:1;stroke:#000000;stroke-width:1;stroke-linecap:round;stroke-linejoin:round;stroke-opacity:1"
         id="g108">
        <path
           style="fill:#000000;fill-opacity:1;fill-rule:evenodd;stroke:#000000;stroke-width:1;stroke-linecap:round;stroke-linejoin:round;stroke-opacity:1"
           d="m 16139999,21219999 h -1699998 v -1699998 h 1699998 z"
           id="path104" />
        <circle
           cx="17830000"
           cy="20370000"
           r="850000"
           id="circle106" />
      </g>
      <g
         id="g110" />
      <g
         style="fill:#000000;fill-opacity:1;stroke:#000000;stroke-width:1;stroke-linecap:round;stroke-linejoin:round;stroke-opacity:1"
         id="g118">
        <path
           style="fill:#000000;fill-opacity:1;fill-rule:evenodd;stroke:#000000;stroke-width:1;stroke-linecap:round;stroke-linejoin:round;stroke-opacity:1"
           d="M 5979999,21219999 H 4280001 v -1699998 h 1699998 z"
           id="path112" />
        <circle
           cx="7670000"
           cy="20370000"
           r="850000"
           id="circle114" />
        <circle
           cx="10210000"
           cy="20370000"
           r="850000"
           id="circle116" />
      </g>
      <g
         id="g120" />
      <g
         id="g122" />
      <g
         style="fill:#000000;fill-opacity:1;stroke:#000000;stroke-width:1;stroke-linecap:round;stroke-linejoin:round;stroke-opacity:1"
         id="g124" />
      <g
         style="fill:#000000;fill-opacity:1;stroke:#000000;stroke-width:250000;stroke-linecap:round;stroke-linejoin:round;stroke-opacity:1"
         id="g126" />
      <g
         style="fill:#000000;fill-opacity:0;stroke:#000000;stroke-width:250000;stroke-linecap:round;stroke-linejoin:round;stroke-opacity:1"
         id="g226">
        <path
           d="m 13283928,12115000 h 388572"
           id="path128" />
        <path
           d="m 12279520,13119408 1004408,-1004408"
           id="path130" />
        <path
           d="M 17728928,20370000 12279520,14920592"
           id="path132" />
        <path
           d="m 17830000,20370000 h -101072"
           id="path134" />
        <path
           d="M 12279520,14920592 V 13119408"
           id="path136" />
        <path
           d="M 11830000,9550000 13075000,8305000"
           id="path138" />
        <path
           d="m 13075000,8305000 h 597500"
           id="path140" />
        <path
           d="M 11830000,15106790 V 9550000"
           id="path142" />
        <path
           d="M 15290000,18566790 11830000,15106790"
           id="path144" />
        <path
           d="M 15290000,20370000 V 18566790"
           id="path146" />
        <path
           d="M 8686000,15819500 7437500,17068000"
           id="path148" />
        <path
           d="m 8686000,9956000 v 5863500"
           id="path150" />
        <path
           d="M 12877000,5765000 8686000,9956000"
           id="path152" />
        <path
           d="m 13672500,5765000 h -795500"
           id="path154" />
        <path
           d="m 9807500,10511428 v 6556572"
           id="path156" />
        <path
           d="m 13672500,7035000 h -388572"
           id="path158" />
        <path
           d="M 13283928,7035000 9807500,10511428"
           id="path160" />
        <path
           d="M 9807500,19967500 V 17068000"
           id="path162" />
        <path
           d="m 10210000,20370000 -402500,-402500"
           id="path164" />
        <path
           d="M 5362500,16040000 6747500,14655000"
           id="path166" />
        <path
           d="M 5362500,17068000 V 16040000"
           id="path168" />
        <path
           d="m 7670000,17300500 -232500,-232500"
           id="path170" />
        <path
           d="M 7670000,20370000 V 17300500"
           id="path172" />
        <path
           d="M 5362500,20137500 V 17068000"
           id="path174" />
        <path
           d="m 5130000,20370000 232500,-232500"
           id="path176" />
        <path
           d="M 17195000,14655000 H 13672500"
           id="path178" />
        <path
           d="m 17830000,15290000 -635000,-635000"
           id="path180" />
        <path
           d="M 17195000,13385000 H 13672500"
           id="path182" />
        <path
           d="m 17830000,12750000 -635000,635000"
           id="path184" />
        <path
           d="M 17195000,10845000 H 13672500"
           id="path186" />
        <path
           d="m 17830000,10210000 -635000,635000"
           id="path188" />
        <path
           d="M 15925000,9575000 H 13672500"
           id="path190" />
        <path
           d="M 17830000,7670000 15925000,9575000"
           id="path192" />
        <path
           d="M 4495000,13385000 2590000,15290000"
           id="path194" />
        <path
           d="M 6747500,13385000 H 4495000"
           id="path196" />
        <path
           d="m 3225000,12115000 -635000,635000"
           id="path198" />
        <path
           d="M 6747500,12115000 H 3225000"
           id="path200" />
        <path
           d="m 3225000,10845000 -635000,-635000"
           id="path202" />
        <path
           d="M 6747500,10845000 H 3225000"
           id="path204" />
        <path
           d="M 4495000,9575000 2590000,7670000"
           id="path206" />
        <path
           d="M 6747500,9575000 H 4495000"
           id="path208" />
        <path
           d="M 11480000,5431072 V 2590000"
           id="path210" />
        <path
           d="M 8606072,8305000 11480000,5431072"
           id="path212" />
        <path
           d="M 8940000,6701072 V 2590000"
           id="path214" />
        <path
           d="m 8606072,7035000 333928,-333928"
           id="path216" />
        <path
           d="M 6747500,7035000 H 8606072"
           id="path218" />
        <path
           d="M 6747500,5765000 V 2937500"
           id="path220" />
        <path
           d="M 6747500,8305000 H 8606072"
           id="path222" />
        <path
           d="M 6747500,2937500 6400000,2590000"
           id="path224" />
      </g>
      <g
         id="g228" />
      <g
         style="fill:#000000;fill-opacity:0;stroke:#000000;stroke-width:250000;stroke-linecap:round;stroke-linejoin:round;stroke-opacity:1"
         id="g236">
        <g
           id="g230" />
        <g
           style="fill:#000000;fill-opacity:1;stroke:#000000;stroke-width:1;stroke-linecap:round;stroke-linejoin:round;stroke-opacity:1"
           id="g234">
          <path
             style="fill:#000000;fill-opacity:1;fill-rule:evenodd;stroke:#000000;stroke-width:1;stroke-linecap:round;stroke-linejoin:round;stroke-opacity:1"
             d="m 19812539,570185 45755,52804 11206,51511 v 21611000 l -19685,67039 -52804,45755 -51511,11206 H 674500 l -67039,-19685 -45755,-52804 -11206,-51511 v -6995500 h 683841 l 472,5395 16172,184838 3952,45175 1399,5223 1,3 20156,75224 39604,147805 2287,4904 2,6 66391,142373 31188,66883 3107,4437 1,2 129326,184698 4,4 3102,4431 167094,167094 193571,135540 214167,99868 83800,22454 139229,37306 3,1 5223,1399 5387,471 4,1 224622,19652 5395,472 5395,-472 224622,-19652 4,-1 5387,-471 5223,-1399 3,-1 139229,-37306 83800,-22454 214167,-99868 193571,-135540 167094,-167094 3102,-4431 4,-4 129326,-184698 1,-2 3107,-4437 31188,-66883 66391,-142373 2,-6 2287,-4904 39604,-147805 20156,-75224 1,-3 1399,-5223 3953,-45175 16171,-184838 472,-5395 -7241,-82762 -12883,-147255 -1,-4 -471,-5387 -1400,-5226 v -1 l -25519,-95238 1663,-69850 30431,-49924 787534,-787534 61323,-33485 26358,-2834 h 423855 l 67039,19685 45755,52804 9944,69158 -16006,45473 -23811,40263 -2,4 -3971,6715 -45854,157829 -2902,36875 v 431388 l 2902,36875 30172,103852 12543,43171 3139,10806 4646,7855 256,1011 2168,5010 -808,350 15568,61350 -22157,66264 -14077,16819 -318651,318651 -8185,7449 -6393,4057 -5342,5689 -40681,43320 -2711,2797 -19509,19509 -2465,3178 -7580,8874 -29897,31837 -3759,6838 -5891,10716 -10685,16266 -7493,9659 -2,4 -4781,6163 -3098,7160 -4,6 -14247,32923 -5139,10490 -17277,31427 -3759,6838 -1941,7558 v 1 l -3040,11840 -6302,18408 -661,1528 -44692,53703 -11769,6655 -3427,1143 -6124,3789 -3,2 -136564,84508 -4,3 -6121,3788 -123639,123855 -3779,6131 -1,1 -21210,34409 -66840,108436 -55096,166106 -10590,103362 v 1049732 l 10859,104653 55385,166010 3790,6124 84509,136567 3,4 3788,6121 123855,123639 6131,3779 1,1 115245,71037 46740,51935 12194,53623 v 579142 l -19685,67039 -52804,45755 -51511,11206 h -380376 l -61204,6648 -134244,50325 -7065,5295 -2,1 -100590,75389 -7065,5295 -85980,114722 -50325,134244 -6649,61203 1,1794753 6648,61204 50325,134244 85980,114722 7065,5295 100590,75389 2,1 7065,5295 134244,50325 61203,6649 h 897243 l 897510,-1 61204,-6648 134244,-50325 7065,-5295 2,-1 100590,-75389 7065,-5295 85980,-114722 3100,-8270 3,-5 46568,-124220 41964,-55864 65505,-24308 68248,14966 28073,21052 118104,118104 8266,6936 184635,129283 9332,5388 204279,95257 10133,3689 191043,51190 13874,-331 3347,-7816 v -2630681 l -3910,-13317 -8416,-1210 -195938,52501 -10133,3689 -204270,95253 -9350,5398 -184626,129276 -8264,6935 -118106,118106 -61323,33485 -69692,-4984 -55933,-41872 -16842,-30783 -46568,-124220 -3,-6 -3100,-8269 -85980,-114722 -7065,-5295 -100590,-75389 -2,-1 -7065,-5295 -134244,-50325 -5952,-647 -59980,-34266 -32299,-61956 -2349,-24022 v -588784 l 19685,-67039 39065,-38405 116470,-72073 4,-3 6121,-3788 123639,-123855 3780,-6132 4465,-5654 1801,1422 43712,-39350 68958,-11251 64094,27817 19586,22560 583,-462 13362,16859 113579,113381 11231,8869 136606,84205 12977,6052 152728,50658 13167,2823 93406,9570 6306,322 h 116345 l 14999,-4404 1187,-1370 1644,-7558 v -2418837 l -4404,-14999 -1370,-1187 -7558,-1644 h -120804 l -6379,330 -94656,9820 -13178,2846 -152632,50923 -12962,6071 -140097,86695 -67365,18538 -66694,-20825 -44848,-53577 -8762,-69318 34738,-67943 314742,-314742 61323,-33485 26358,-2834 h 767742 l 36875,-2902 157829,-45854 141467,-83663 116216,-116216 83663,-141467 3140,-10806 12542,-43171 30172,-103852 2902,-36875 v -431388 l -2902,-36875 -45854,-157829 -3973,-6719 -75718,-128032 -1,-1 -3971,-6715 -5519,-5519 -1252,-1614 -25536,-65036 13679,-68517 11857,-18451 1252,-1614 5519,-5519 10905,-18439 68787,-116313 1,-1 3970,-6714 45854,-157829 2902,-36875 v -431388 l -2902,-36875 -42354,-145783 -1323,-4553 -2177,-7493 -34557,-58434 -45134,-76317 -1,-1 -3971,-6715 -5519,-5519 -1252,-1614 -25536,-65036 13679,-68517 11857,-18451 1252,-1614 5519,-5519 3972,-6716 75720,-128036 1,-1 3970,-6714 3140,-10806 40945,-140935 1769,-6088 2902,-36875 v -431388 l -2902,-36875 -45854,-157829 -3973,-6719 -75718,-128032 -1,-1 -3971,-6715 -5519,-5519 -1252,-1614 -25536,-65036 13679,-68517 11857,-18451 1252,-1614 5519,-5519 10905,-18439 68787,-116313 1,-1 3970,-6714 45854,-157829 2902,-36875 v -431388 l -2902,-36875 -41196,-141797 -2481,-8539 -2177,-7493 -5762,-9744 -73929,-125007 -1,-1 -3971,-6715 -5519,-5519 -1252,-1614 -25536,-65036 13679,-68517 11857,-18451 1252,-1614 5519,-5519 15816,-26744 63876,-108008 1,-1 3970,-6714 3140,-10806 40945,-140935 1769,-6088 2902,-36875 v -431388 l -2902,-36875 -45854,-157829 -3971,-6715 -2,-4 -23811,-40263 -17183,-67724 22160,-66262 54467,-43763 47288,-9371 h 262605 l 11056,522 7386,1651 67206,-2112 3895,-61 h 27582 l 3850,-486 8,-1 115,-15 11655,-918 43649,-1371 7491,-2176 4,-1 11744,-3412 19054,-3946 19872,-2510 40609,-16079 11054,-3784 34445,-10007 7490,-2176 17240,-10196 17473,-8560 11371,-4502 3,-1 7255,-2873 35328,-25667 9762,-6412 30881,-18263 8,-6 6709,-3968 14164,-14164 14796,-12637 9893,-7188 6314,-4587 27840,-33653 7863,-8641 2793937,-2793936 8185,-7449 6393,-4057 46024,-49010 2710,-2796 19509,-19509 2465,-3178 7583,-8878 3402,-3622 7040,-7497 60242,-35393 69814,2794 57220,40096 26460,64666 654,12723 v 70943 l 192,4880 2211,28097 2266,12405 41872,144126 6148,14208 75658,127930 10663,13747 25534,65036 -13680,68517 -11854,18446 -1574,2029 -5517,5517 -3971,6714 -2,3 -53363,90233 -26327,44517 -45854,157829 -2902,36875 v 379170 l -19685,67039 -16634,20642 -2727980,2727979 -8185,7449 -6393,4057 -44632,47528 -1391,1481 -2711,2797 -19509,19509 -2465,3178 -7582,8877 -23464,24986 -6431,6848 -3759,6838 -5891,10716 -10685,16266 -7493,9659 -2,4 -4781,6163 -3098,7160 -4,6 -14247,32923 -5139,10490 -21036,38265 -1941,7558 v 1 l -3040,11840 -6301,18405 -7959,18392 -1221,7710 -5611,35426 -2367,11433 -10863,42308 v 20036 l -1525,19385 -3135,19794 734,7766 v 3 l 3376,35711 550,11669 v 5272753 l -19685,67039 -39065,38405 -116470,72073 -4,3 -6121,3788 -123639,123855 -3779,6131 -1,1 -21210,34409 -66840,108436 -16915,50998 -28287,85280 -39790,57433 -64523,26805 -68772,-12335 -51187,-47558 -11049,-24139 -43583,-130631 -6071,-12962 -84447,-136464 -8887,-11213 -113579,-113381 -11231,-8869 -136606,-84205 -12977,-6052 -152728,-50658 -13167,-2823 -93406,-9570 -6306,-322 h -116345 l -14999,4404 -1187,1370 -1644,7558 v 2418837 l 4404,14999 1370,1187 7558,1644 h 120804 l 6379,-330 94656,-9820 13178,-2846 152632,-50923 12962,-6071 136464,-84447 11213,-8887 113381,-113579 8869,-11231 84205,-136606 6052,-12977 42863,-129227 39790,-57433 64523,-26805 68772,12335 51187,47558 11049,24139 45933,137680 3790,6124 84509,136567 3,4 3788,6121 123855,123639 6131,3779 1,1 115245,71037 46740,51935 12194,53623 v 1128155 l -22425,71123 -118305,168958 -54577,43625 -69498,7194 -62355,-31523 -16720,-19295 -126908,-181244 -6931,-8259 -159372,-159372 -8266,-6936 -184635,-129283 -9332,-5388 -204279,-95257 -10133,-3689 -191043,-51190 -13874,331 -3347,7816 v 2630681 l 3910,13317 8416,1210 195938,-52501 10133,-3689 204279,-95257 9332,-5388 184635,-129283 8266,-6936 159372,-159372 6931,-8259 126908,-181244 54577,-43624 69499,-7193 62354,31522 16720,19296 127129,181561 4,4 3102,4431 167094,167094 193571,135540 214167,99868 51820,13885 171209,45875 3,1 5223,1399 5387,471 4,1 224622,19652 5395,472 5395,-472 224622,-19652 4,-1 5387,-471 5223,-1399 3,-1 171209,-45875 51820,-13885 214167,-99868 193571,-135540 144523,-144523 h 2714076 l 363,6697 5440,50075 3568,15009 44446,118558 8395,15335 75304,100478 12360,12360 100478,75304 15335,8395 118558,44446 15009,3568 50075,5440 6697,363 h 626142 l 14999,-4404 1187,-1370 1644,-7558 v -1068838 l -4404,-14999 -1370,-1187 -7558,-1644 h -1068838 l -14999,4404 -1187,1370 -1644,7558 v 630640 h -2714076 l 22571,-22571 3102,-4431 4,-4 129326,-184698 1,-2 3107,-4437 20164,-43242 77415,-166014 2,-6 2287,-4904 61160,-228255 20596,-235408 -20596,-235408 -8687,-32422 h 2403624 l 4404,14999 1370,1187 7558,1644 h 1068838 l 14999,-4404 1187,-1370 1644,-7558 v -1068838 l -4404,-14999 -1370,-1187 -7558,-1644 h -630640 l -6697,363 -50075,5440 -15009,3568 -118558,44446 -15335,8395 -100478,75304 -12360,12360 -75304,100478 -8395,15335 -44446,118558 -3568,15009 -5440,50075 -363,6697 v 626142 h -2403624 l -52473,-195833 -2287,-4904 -2,-6 -95289,-204345 -2290,-4911 -5305,-7576 -127129,-181561 -4,-4 -3102,-4431 -167094,-167094 -193571,-135540 -214167,-99868 -103195,-27651 -45562,-12208 -59660,-36365 -30529,-62847 -1717,-20563 v -619989 l 19685,-67039 39065,-38405 116470,-72073 4,-3 6121,-3788 123639,-123855 3780,-6132 4465,-5654 1801,1422 43712,-39350 68958,-11251 64094,27817 19586,22560 583,-462 13362,16859 113579,113381 11231,8869 136606,84205 12977,6052 152728,50658 13167,2823 93406,9570 6306,322 h 116345 l 14999,-4404 1187,-1370 1644,-7558 v -4499 h 500000 l 4404,14999 1370,1187 7558,1644 h 120804 l 6379,-330 94656,-9820 13178,-2846 152632,-50923 12962,-6071 136464,-84447 11213,-8887 113381,-113579 8869,-11231 84205,-136606 6052,-12977 50658,-152728 2823,-13167 9570,-93406 322,-6306 v -253845 l -4404,-14999 -1370,-1187 -7558,-1644 h -806338 l -14999,4404 -1187,1370 -1644,7558 v 943837 h -500000 v -2414338 l -4404,-14999 -1370,-1187 -7558,-1644 h -120804 l -6379,330 -94656,9820 -13178,2846 -152632,50923 -12962,6071 -136464,84447 -11213,8887 -113381,113579 -13330,16880 -1881,-1485 -43450,39108 -68959,11246 -64092,-27822 -19820,-22830 -536,425 -4474,-5645 -3791,-6126 -123855,-123639 -121378,-74818 -46739,-51934 -12194,-53623 v -4997761 l 19685,-67039 16634,-20642 1506579,-1506579 61323,-33485 69692,4984 55933,41872 24417,65464 -66,18573 -2505,31838 -192,2440 v 431388 l 2902,36875 1769,6088 40946,140935 3139,10806 3970,6714 1,1 63876,108008 15816,26744 5519,5519 1252,1614 25536,65036 -13679,68517 -11857,18451 -1252,1614 -5519,5519 -3971,6715 -1,1 -73928,125007 -5763,9744 -2177,7493 -2481,8539 -41196,141797 -2902,36875 v 431388 l 2902,36875 45854,157829 3970,6714 1,1 68787,116313 10905,18439 5519,5519 1252,1614 25536,65036 -13679,68517 -11857,18451 -1252,1614 -5519,5519 -3971,6715 -1,1 -75717,128032 -3974,6719 -45854,157829 -2902,36875 v 379169 l -19685,67039 -16634,20642 -255960,255960 -8185,7449 -6393,4057 -37916,40376 -8107,8633 -2711,2797 -19509,19509 -2465,3178 -7582,8877 -22076,23508 -7819,8326 -3759,6838 -5891,10716 -10685,16266 -7493,9659 -2,4 -4781,6163 -3098,7160 -4,6 -14247,32923 -5139,10490 -21036,38265 -1941,7558 v 1 l -3040,11840 -6301,18405 -7959,18392 -1221,7710 -5611,35426 -2367,11433 -10863,42308 v 20036 l -1525,19385 -3135,19794 734,7766 v 3 l 3376,35711 550,11669 v 1688064 l -522,11056 -1651,7386 245,7794 1867,59412 61,3895 v 27582 l 486,3850 1,8 15,115 918,11655 1371,43649 2176,7491 1,4 3412,11744 3946,19054 2510,19872 2873,7255 13205,33352 3785,11056 10007,34445 2176,7490 10196,17240 8560,17473 2649,6689 4727,11940 4587,6313 21080,29015 6412,9762 18263,30881 6,8 3968,6709 14164,14164 12637,14796 11775,16207 6013,4974 27640,22866 8641,7863 278016,278016 33485,61323 -4984,69692 -22469,37868 -12123,13991 -1645,7560 v 943838 l 4404,14999 1370,1187 7558,1644 h 806337 l 14999,-4404 1187,-1370 1644,-7558 v -9645 l 19685,-67039 52804,-45755 69158,-9944 63556,29025 6478,6032 2322001,2322001 33485,61323 2834,26358 v 2585146 l 4404,14999 1370,1187 7558,1644 h 630640 l 6697,-363 50075,-5440 15009,-3568 118558,-44446 15335,-8395 100478,-75304 12360,-12360 75304,-100478 8394,-15333 46433,-123859 41964,-55863 65506,-24308 68248,14966 28072,21052 122194,122194 193571,135540 214167,99868 51820,13885 171209,45875 3,1 5223,1399 5387,471 4,1 224622,19652 5395,472 5395,-472 224622,-19652 4,-1 5387,-471 5223,-1399 3,-1 171209,-45875 51820,-13885 214167,-99868 193571,-135540 167094,-167094 3102,-4431 4,-4 129326,-184698 1,-2 3107,-4437 20164,-43242 77415,-166014 2,-6 2287,-4904 61160,-228255 20596,-235408 -20596,-235408 -61160,-228255 -2287,-4904 -2,-6 -95289,-204345 -2290,-4911 -5305,-7576 -127129,-181561 -4,-4 -3102,-4431 -167094,-167094 -193571,-135540 -214167,-99868 -84804,-22723 -138225,-37037 -3,-1 -5223,-1399 -5387,-471 -4,-1 -224622,-19652 -5395,-472 -5395,472 -224622,19652 -4,1 -5387,471 -5221,1399 -6,1 -174952,46878 -69850,-1663 -49924,-30431 -3383939,-3383940 -33485,-61323 4984,-69692 41872,-55933 65464,-24417 8846,-316 h 577313 l 36875,-2902 157829,-45854 141467,-83663 6262,-6262 726,-396 4692,-3640 587,757 55318,-30206 26358,-2834 h 1354077 l 67039,19685 45755,52804 10734,40703 7572,86541 3952,45175 1399,5223 1,3 20156,75224 39604,147805 2287,4904 2,6 66391,142373 31188,66883 3107,4437 1,2 129326,184698 4,4 3102,4431 167094,167094 193571,135540 214167,99868 83800,22454 139229,37306 3,1 5223,1399 5387,471 4,1 224622,19652 5395,472 5395,-472 224622,-19652 4,-1 5387,-471 5223,-1399 3,-1 139229,-37306 83800,-22454 214167,-99868 193571,-135540 167094,-167094 3102,-4431 4,-4 129326,-184698 1,-2 3107,-4437 31188,-66883 66391,-142373 2,-6 2287,-4904 39604,-147805 20156,-75224 1,-3 1399,-5223 3953,-45175 16171,-184838 472,-5395 -7241,-82762 -12883,-147255 -1,-4 -471,-5387 -1400,-5227 -47875,-178671 -11885,-44357 -2287,-4904 -2,-6 -95289,-204345 -2290,-4911 -3108,-4439 -129326,-184698 -4,-4 -3102,-4431 -167094,-167094 -185559,-129930 -43624,-54577 -7193,-69499 31522,-62354 19295,-16720 166110,-116312 19449,-13618 167094,-167094 3102,-4431 4,-4 129326,-184698 1,-2 3107,-4437 10334,-22160 87245,-187096 2,-6 2287,-4904 35862,-133841 23898,-89188 1,-3 1399,-5223 946,-10806 19178,-219207 472,-5395 -6649,-76002 -13475,-154015 -1,-4 -471,-5387 -61160,-228255 -2287,-4904 -2,-6 -95289,-204345 -2290,-4911 -3108,-4439 -129326,-184698 -4,-4 -3102,-4431 -167094,-167094 -185559,-129930 -43624,-54577 -7193,-69499 31522,-62354 19295,-16720 166110,-116312 19449,-13618 167094,-167094 3102,-4431 4,-4 129326,-184698 1,-2 3107,-4437 30753,-65949 66826,-143307 2,-6 2287,-4904 48777,-182039 10983,-40990 1,-3 1399,-5223 946,-10806 19178,-219207 472,-5395 -4270,-48803 -15854,-181214 -1,-4 -471,-5387 -1640,-6123 -58118,-216899 -1402,-5233 -2287,-4904 -2,-6 -95289,-204345 -2290,-4911 -3108,-4439 -129326,-184698 -4,-4 -3102,-4431 -167094,-167094 -185559,-129930 -43624,-54577 -7193,-69499 31522,-62354 19295,-16720 80433,-56320 105126,-73610 167094,-167094 3102,-4431 4,-4 129326,-184698 1,-2 3107,-4437 78727,-168829 18852,-40427 2,-6 2287,-4904 34241,-127790 25519,-95239 1,-3 1399,-5223 946,-10806 19178,-219207 472,-5395 -6649,-76002 -13475,-154015 -1,-4 -471,-5387 -61160,-228255 -2287,-4904 -2,-6 -95289,-204345 -2290,-4911 -3108,-4439 -129326,-184698 -4,-4 -3102,-4431 -122194,-122194 -33485,-61323 4984,-69692 41872,-55933 30782,-16842 123859,-46433 15333,-8394 100478,-75304 12360,-12360 75304,-100478 8395,-15335 44446,-118558 3568,-15009 5440,-50075 363,-6697 v -626142 l -4404,-14999 -1370,-1187 -7558,-1644 h -2668838 l -14999,4404 -1187,1370 -1644,7558 v 630640 l 363,6697 5440,50075 3568,15009 44446,118558 8395,15335 75304,100478 12360,12360 100478,75304 15333,8394 123859,46433 55863,41964 24308,65506 -14966,68248 -21052,28072 -122194,122194 -3102,4431 -4,4 -129326,184698 -3108,4439 -2290,4911 -95289,204345 -2,6 -2287,4904 -61160,228255 -471,5387 -1,4 -13475,154015 -6649,76002 472,5395 19179,219207 945,10806 1399,5221 1,6 25519,95238 -1663,69850 -30431,49924 -787534,787534 -61323,33485 -26358,2834 h -424436 l -67039,-19685 -45755,-52804 -9944,-69158 16006,-45475 23933,-40469 6147,-14204 41080,-141399 -1762,-8384 -11280,-2922 h -1594997 l -67039,-19685 -45755,-52804 -11206,-51511 v -252000 l 19685,-67039 52804,-45755 51511,-11206 h 1592966 l 14563,-4276 965,-5463 -41535,-142966 -6148,-14208 -75656,-127927 -10663,-13746 -25536,-65036 13679,-68518 11853,-18445 1580,-2037 5513,-5513 83663,-141467 3140,-10806 40945,-140935 1769,-6088 2902,-36875 v -431388 l -2902,-36875 -45854,-157829 -26327,-44517 -53363,-90233 -2,-3 -3971,-6714 -5517,-5517 -1574,-2029 -25534,-65037 13680,-68517 11854,-18445 10663,-13747 75658,-127930 6148,-14208 41080,-141399 -1762,-8384 -11280,-2922 h -1594997 l -67039,-19685 -45755,-52804 -11206,-51511 v -393830 h 500000 l 4404,14999 1370,1187 7558,1644 h 1203634 l 14563,-4276 965,-5463 -41535,-142966 -6148,-14208 -75656,-127926 -9491,-12236 -105089,-105089 -12236,-9491 -127926,-75656 -14208,-6148 -144126,-41872 -12405,-2266 -28097,-2211 -4880,-192 h -632867 l -14999,4404 -1187,1370 -1644,7558 v 518838 h -500000 v -514340 l -4404,-14999 -1370,-1187 -7558,-1644 h -637365 l -4880,192 -28097,2211 -12405,2266 -144126,41872 -14208,6148 -127926,75656 -12236,9491 -110608,110608 -2406,-2406 -44181,31845 -69771,3726 -60708,-34587 -32373,-61917 -2378,-24167 v -263768 h 4374500 l 4404,14999 1370,1187 7558,1644 h 1068838 l 14999,-4404 1187,-1370 1644,-7558 v -4498 h 500000 l 4404,14999 1370,1187 7558,1644 h 1068838 l 14999,-4404 1187,-1370 1644,-7558 v -630640 l -363,-6697 -5440,-50075 -3568,-15009 -44446,-118558 -8395,-15335 -75304,-100478 -12360,-12360 -100478,-75304 -15335,-8395 -118558,-44446 -15009,-3568 -50075,-5440 -6697,-363 h -626142 l -14999,4404 -1187,1370 -1644,7558 v 1068838 h -500000 V 3797830 l -4404,-14999 -1370,-1187 -7558,-1644 h -630640 l -6697,363 -50075,5440 -15009,3568 -118558,44446 -15335,8395 -100478,75304 -12360,12360 -75304,100478 -8395,15335 -44446,118558 -3568,15009 -5440,50075 -363,6697 v 626142 h -4374500 v -996942 l 19685,-67039 33191,-34536 127593,-89342 65432,-45816 122194,-122194 61323,-33485 69692,4984 55933,41872 16842,30782 46433,123859 8394,15333 75304,100478 12360,12360 100478,75304 15335,8395 118558,44446 15009,3568 50075,5440 6697,363 h 626142 l 14999,-4404 1187,-1370 1644,-7558 v -4498 h 500000 l 4404,14999 1370,1187 7558,1644 h 630640 l 6697,-363 50075,-5440 15009,-3568 118558,-44446 15335,-8395 100478,-75304 12360,-12360 75304,-100478 8395,-15335 44446,-118558 3568,-15009 5440,-50075 363,-6697 v -626142 l -4404,-14999 -1370,-1187 -7558,-1644 h -1068838 l -14999,4404 -1187,1370 -1644,7558 v 1068838 h -500000 V 2322170 h 500000 l 4404,14999 1370,1187 7558,1644 h 1068838 l 14999,-4404 1187,-1370 1644,-7558 v -630640 l -363,-6697 -5440,-50075 -3568,-15009 -44446,-118558 -8395,-15335 -75304,-100478 -12360,-12360 -100478,-75304 -15335,-8395 -118558,-44446 -15009,-3568 -50075,-5440 -6697,-363 h -626142 l -14999,4404 -1187,1370 -1644,7558 v 1068838 h -500000 V 1257830 l -4404,-14999 -1370,-1187 -7558,-1644 h -630640 l -6697,363 -50075,5440 -15009,3568 -118558,44446 -15335,8395 -100478,75304 -12360,12360 -75304,100478 -8394,15333 -46433,123859 -41964,55863 -65506,24308 -68248,-14966 -28072,-21052 -122194,-122194 -193571,-135540 -214167,-99868 -83800,-22454 -139229,-37306 -3,-1 -5223,-1399 -5387,-471 -4,-1 -224622,-19652 -5395,-472 -5395,472 -224622,19652 -4,1 -5387,471 -5223,1399 -3,1 -139229,37306 -83800,22454 -4904,2287 -6,2 -187096,87245 -22160,10334 -4437,3107 -2,1 -184698,129326 -1,1 -4434,3105 -167094,167094 -3102,4431 -4,4 -126824,181125 -54577,43625 -69498,7194 -62355,-31523 -16720,-19296 -126824,-181125 -4,-4 -3102,-4431 -167094,-167094 -193571,-135540 -214167,-99868 -83800,-22454 -139229,-37306 -3,-1 -5223,-1399 -5387,-471 -4,-1 -224622,-19652 -5395,-472 -5395,472 -224622,19652 -4,1 -5387,471 -5223,1399 -3,1 -139229,37306 -83800,22454 -4904,2287 -6,2 -187096,87245 -22160,10334 -4437,3107 -2,1 -184698,129326 -1,1 -4434,3105 -167094,167094 -3102,4431 -4,4 -126824,181125 -54577,43625 -69498,7194 -62355,-31523 -16720,-19296 -126824,-181125 -4,-4 -3102,-4431 -167094,-167094 -193571,-135540 -214167,-99868 -83800,-22454 -139229,-37306 -3,-1 -5223,-1399 -5387,-471 -4,-1 -224622,-19652 -5395,-472 -5395,472 -224622,19652 -4,1 -5387,471 -5223,1399 -3,1 -139229,37306 -83800,22454 -4904,2287 -6,2 -187096,87245 -22160,10334 -4437,3107 -2,1 -184698,129326 -1,1 -4434,3105 -167094,167094 -3102,4431 -4,4 -126824,181125 -5610,8012 -2290,4911 -95289,204345 -2,6 -2287,4904 -61160,228255 -20596,235408 20596,235408 61160,228255 2287,4904 2,6 77618,166449 19961,42807 3107,4437 1,2 129326,184698 4,4 3102,4431 167094,167094 193571,135540 214167,99868 51820,13885 41937,11237 59660,36365 30529,62847 1717,20563 v 831700 l -19685,67039 -52804,45755 -51511,11206 h -153694 l -36875,2902 -157829,45854 -141467,83663 -116216,116216 -83663,141467 -45854,157829 -2902,36875 v 431388 l 2902,36875 45854,157829 3970,6714 1,1 31827,53816 47865,80936 5519,5519 1252,1614 25536,65036 -13679,68517 -11857,18451 -1252,1614 -5519,5519 -3971,6715 -1,1 -32845,55539 -46846,79212 -45854,157829 -2902,36875 v 431388 l 2902,36875 1769,6088 40946,140935 3139,10806 83663,141467 5519,5519 1252,1614 25536,65036 -13679,68517 -11857,18451 -1252,1614 -5519,5519 -3971,6715 -1,1 -44738,75649 -34953,59102 -2177,7493 -2481,8539 -41196,141797 -2902,36875 v 431388 l 2902,36875 45854,157829 3971,6715 2,4 23811,40263 17183,67724 -22160,66262 -54467,43763 -47288,9371 h -423856 l -67039,-19685 -20642,-16634 -787533,-787534 -33485,-61323 1391,-58451 25519,-95238 1,-6 1399,-5221 946,-10806 19178,-219207 472,-5395 -6649,-76002 -13475,-154015 -1,-4 -471,-5387 -61160,-228255 -2287,-4904 -2,-6 -95289,-204345 -2290,-4911 -3108,-4439 -129326,-184698 -4,-4 -3102,-4431 -122194,-122194 -33485,-61323 4984,-69692 41872,-55933 30782,-16842 123859,-46433 15333,-8394 100478,-75304 12360,-12360 75304,-100478 8395,-15335 44446,-118558 3568,-15009 5440,-50075 363,-6697 v -626142 l -4404,-14999 -1370,-1187 -7558,-1644 H 1257830 l -14999,4404 -1187,1370 -1644,7558 v 630640 l 363,6697 5440,50075 3568,15009 44446,118558 8395,15335 75304,100478 12360,12360 100478,75304 15333,8394 123859,46433 55863,41964 24308,65506 -14966,68248 -21052,28072 -122194,122194 -3102,4431 -4,4 -129326,184698 -3108,4439 -2290,4911 -95289,204345 -2,6 -2287,4904 -61160,228255 -471,5387 -1,4 -13475,154015 -6649,76002 472,5395 19179,219207 945,10806 1399,5223 1,3 25519,95239 34241,127790 2287,4904 2,6 18852,40427 78727,168829 3107,4437 1,2 129326,184698 4,4 3102,4431 167094,167094 71530,50086 114030,79845 43624,54577 7193,69499 -31522,62354 -19294,16719 -55338,38747 -125788,88077 -1,1 -4434,3105 -167094,167094 -3102,4431 -4,4 -129326,184698 -3108,4439 -2290,4911 -95289,204345 -2,6 -2287,4904 -1402,5233 -58117,216899 -1641,6123 -471,5387 -1,4 -15854,181214 -4270,48803 472,5395 19179,219207 945,10806 1399,5223 1,3 10983,40990 48777,182039 2287,4904 2,6 66826,143307 30753,65949 3107,4437 1,2 129326,184698 4,4 3102,4431 167094,167094 19449,13618 166111,116313 43624,54577 7193,69499 -31522,62354 -19294,16719 -43662,30572 -137464,96252 -1,1 -4434,3105 -167094,167094 -3102,4431 -4,4 -129326,184698 -3108,4439 -2290,4911 -95289,204345 -2,6 -2287,4904 -61160,228255 -471,5387 -1,4 -13475,154015 -6649,76002 472,5395 19179,219207 945,10806 1399,5223 1,3 23898,89188 35862,133841 2287,4904 2,6 87245,187096 10334,22160 3107,4437 1,2 129326,184698 4,4 3102,4431 167094,167094 19449,13618 166111,116313 43624,54577 7193,69499 -31522,62354 -19296,16720 -181124,126823 -1,1 -4434,3105 -167094,167094 -3102,4431 -4,4 -129326,184698 -3108,4439 -2290,4911 -95289,204345 -2,6 -2287,4904 -11885,44357 -47874,178671 -1401,5227 -471,5387 -1,4 -12883,147255 -7241,82762 H 550500 V 4862170 h 689500 l 4404,14999 1370,1187 7558,1644 h 1068838 l 14999,-4404 1187,-1370 1644,-7558 v -4498 h 500000 l 4404,14999 1370,1187 7558,1644 h 1068838 l 14999,-4404 1187,-1370 1644,-7558 v -630640 l -363,-6697 -5440,-50075 -3568,-15009 -44446,-118558 -8395,-15335 -75304,-100478 -12360,-12360 -100478,-75304 -15335,-8395 -118558,-44446 -15009,-3568 -50075,-5440 -6697,-363 h -626142 l -14999,4404 -1187,1370 -1644,7558 V 4862170 H 2340000 V 3797830 l -4404,-14999 -1370,-1187 -7558,-1644 h -630640 l -6697,363 -50075,5440 -15009,3568 -118558,44446 -15335,8395 -100478,75304 -12360,12360 -75304,100478 -8395,15335 -44446,118558 -3568,15009 -5440,50075 -363,6697 v 626142 H 550500 V 674500 l 19685,-67039 52804,-45755 51511,-11206 h 19071000 z"
             id="path232" />
        </g>
      </g>
      <rect
         style="fill:#000000;stroke-width:0"
         id="rect945"
         width="438445.88"
         height="2726585.2"
         x="11454399"
         y="12714930" />
    </g>
    <g
       style="fill:#ffffff;fill-opacity:1;stroke:#ffffff;stroke-width:1;stroke-linecap:round;stroke-linejoin:round;stroke-opacity:1"
       id="g242">
      <circle
         cx="14020000"
         cy="2590000"
         r="500000"
         id="circle240" />
    </g>
    <g
       style="fill:#ffffff;fill-opacity:1;stroke:#ffffff;stroke-width:21200;stroke-linecap:round;stroke-linejoin:round;stroke-opacity:1"
       id="g244" />
    <g
       style="fill:#ffffff;fill-opacity:1;stroke:#ffffff;stroke-width:1;stroke-linecap:round;stroke-linejoin:round;stroke-opacity:1"
       id="g248">
      <circle
         cx="11480000"
         cy="2590000"
         r="500000"
         id="circle246" />
    </g>
    <g
       style="fill:#ffffff;fill-opacity:1;stroke:#ffffff;stroke-width:21200;stroke-linecap:round;stroke-linejoin:round;stroke-opacity:1"
       id="g250" />
    <g
       style="fill:#ffffff;fill-opacity:1;stroke:#ffffff;stroke-width:1;stroke-linecap:round;stroke-linejoin:round;stroke-opacity:1"
       id="g254">
      <circle
         cx="8940000"
         cy="2590000"
         r="500000"
         id="circle252" />
    </g>
    <g
       style="fill:#ffffff;fill-opacity:1;stroke:#ffffff;stroke-width:21200;stroke-linecap:round;stroke-linejoin:round;stroke-opacity:1"
       id="g256" />
    <g
       style="fill:#ffffff;fill-opacity:1;stroke:#ffffff;stroke-width:1;stroke-linecap:round;stroke-linejoin:round;stroke-opacity:1"
       id="g260">
      <circle
         cx="6400000"
         cy="2590000"
         r="500000"
         id="circle258" />
    </g>
    <g
       style="fill:#ffffff;fill-opacity:1;stroke:#ffffff;stroke-width:21200;stroke-linecap:round;stroke-linejoin:round;stroke-opacity:1"
       id="g262" />
    <g
       style="fill:#ffffff;fill-opacity:1;stroke:#ffffff;stroke-width:1;stroke-linecap:round;stroke-linejoin:round;stroke-opacity:1"
       id="g266">
      <circle
         cx="2590000"
         cy="5130000"
         r="500000"
         id="circle264" />
    </g>
    <g
       style="fill:#ffffff;fill-opacity:1;stroke:#ffffff;stroke-width:21200;stroke-linecap:round;stroke-linejoin:round;stroke-opacity:1"
       id="g268" />
    <g
       style="fill:#ffffff;fill-opacity:1;stroke:#ffffff;stroke-width:1;stroke-linecap:round;stroke-linejoin:round;stroke-opacity:1"
       id="g272">
      <circle
         cx="2590000"
         cy="7670000"
         r="500000"
         id="circle270" />
    </g>
    <g
       style="fill:#ffffff;fill-opacity:1;stroke:#ffffff;stroke-width:21200;stroke-linecap:round;stroke-linejoin:round;stroke-opacity:1"
       id="g274" />
    <g
       style="fill:#ffffff;fill-opacity:1;stroke:#ffffff;stroke-width:1;stroke-linecap:round;stroke-linejoin:round;stroke-opacity:1"
       id="g278">
      <circle
         cx="2590000"
         cy="10210000"
         r="500000"
         id="circle276" />
    </g>
    <g
       style="fill:#ffffff;fill-opacity:1;stroke:#ffffff;stroke-width:21200;stroke-linecap:round;stroke-linejoin:round;stroke-opacity:1"
       id="g280" />
    <g
       style="fill:#ffffff;fill-opacity:1;stroke:#ffffff;stroke-width:1;stroke-linecap:round;stroke-linejoin:round;stroke-opacity:1"
       id="g284">
      <circle
         cx="2590000"
         cy="12750000"
         r="500000"
         id="circle282" />
    </g>
    <g
       style="fill:#ffffff;fill-opacity:1;stroke:#ffffff;stroke-width:21200;stroke-linecap:round;stroke-linejoin:round;stroke-opacity:1"
       id="g286" />
    <g
       style="fill:#ffffff;fill-opacity:1;stroke:#ffffff;stroke-width:1;stroke-linecap:round;stroke-linejoin:round;stroke-opacity:1"
       id="g290">
      <circle
         cx="2590000"
         cy="15290000"
         r="500000"
         id="circle288" />
    </g>
    <g
       style="fill:#ffffff;fill-opacity:1;stroke:#ffffff;stroke-width:21200;stroke-linecap:round;stroke-linejoin:round;stroke-opacity:1"
       id="g292" />
    <g
       style="fill:#ffffff;fill-opacity:1;stroke:#ffffff;stroke-width:1;stroke-linecap:round;stroke-linejoin:round;stroke-opacity:1"
       id="g296">
      <circle
         cx="17830000"
         cy="5130000"
         r="500000"
         id="circle294" />
    </g>
    <g
       style="fill:#ffffff;fill-opacity:1;stroke:#ffffff;stroke-width:21200;stroke-linecap:round;stroke-linejoin:round;stroke-opacity:1"
       id="g298" />
    <g
       style="fill:#ffffff;fill-opacity:1;stroke:#ffffff;stroke-width:1;stroke-linecap:round;stroke-linejoin:round;stroke-opacity:1"
       id="g302">
      <circle
         cx="17830000"
         cy="7670000"
         r="500000"
         id="circle300" />
    </g>
    <g
       style="fill:#ffffff;fill-opacity:1;stroke:#ffffff;stroke-width:21200;stroke-linecap:round;stroke-linejoin:round;stroke-opacity:1"
       id="g304" />
    <g
       style="fill:#ffffff;fill-opacity:1;stroke:#ffffff;stroke-width:1;stroke-linecap:round;stroke-linejoin:round;stroke-opacity:1"
       id="g308">
      <circle
         cx="17830000"
         cy="10210000"
         r="500000"
         id="circle306" />
    </g>
    <g
       style="fill:#ffffff;fill-opacity:1;stroke:#ffffff;stroke-width:21200;stroke-linecap:round;stroke-linejoin:round;stroke-opacity:1"
       id="g310" />
    <g
       style="fill:#ffffff;fill-opacity:1;stroke:#ffffff;stroke-width:1;stroke-linecap:round;stroke-linejoin:round;stroke-opacity:1"
       id="g314">
      <circle
         cx="17830000"
         cy="12750000"
         r="500000"
         id="circle312" />
    </g>
    <g
       style="fill:#ffffff;fill-opacity:1;stroke:#ffffff;stroke-width:21200;stroke-linecap:round;stroke-linejoin:round;stroke-opacity:1"
       id="g316" />
    <g
       style="fill:#ffffff;fill-opacity:1;stroke:#ffffff;stroke-width:1;stroke-linecap:round;stroke-linejoin:round;stroke-opacity:1"
       id="g320">
      <circle
         cx="17830000"
         cy="15290000"
         r="500000"
         id="circle318" />
    </g>
    <g
       style="fill:#ffffff;fill-opacity:1;stroke:#ffffff;stroke-width:21200;stroke-linecap:round;stroke-linejoin:round;stroke-opacity:1"
       id="g322" />
    <g
       style="fill:#ffffff;fill-opacity:1;stroke:#ffffff;stroke-width:1;stroke-linecap:round;stroke-linejoin:round;stroke-opacity:1"
       id="g326">
      <circle
         cx="15290000"
         cy="20370000"
         r="500000"
         id="circle324" />
    </g>
    <g
       style="fill:#ffffff;fill-opacity:1;stroke:#ffffff;stroke-width:21200;stroke-linecap:round;stroke-linejoin:round;stroke-opacity:1"
       id="g328" />
    <g
       style="fill:#ffffff;fill-opacity:1;stroke:#ffffff;stroke-width:1;stroke-linecap:round;stroke-linejoin:round;stroke-opacity:1"
       id="g332">
      <circle
         cx="17830000"
         cy="20370000"
         r="500000"
         id="circle330" />
    </g>
    <g
       style="fill:#ffffff;fill-opacity:1;stroke:#ffffff;stroke-width:21200;stroke-linecap:round;stroke-linejoin:round;stroke-opacity:1"
       id="g334" />
    <g
       style="fill:#ffffff;fill-opacity:1;stroke:#ffffff;stroke-width:1;stroke-linecap:round;stroke-linejoin:round;stroke-opacity:1"
       id="g338">
      <circle
         cx="5130000"
         cy="20370000"
         r="500000"
         id="circle336" />
    </g>
    <g
       style="fill:#ffffff;fill-opacity:1;stroke:#ffffff;stroke-width:21200;stroke-linecap:round;stroke-linejoin:round;stroke-opacity:1"
       id="g340" />
    <g
       style="fill:#ffffff;fill-opacity:1;stroke:#ffffff;stroke-width:1;stroke-linecap:round;stroke-linejoin:round;stroke-opacity:1"
       id="g344">
      <circle
         cx="7670000"
         cy="20370000"
         r="500000"
         id="circle342" />
    </g>
    <g
       style="fill:#ffffff;fill-opacity:1;stroke:#ffffff;stroke-width:21200;stroke-linecap:round;stroke-linejoin:round;stroke-opacity:1"
       id="g346" />
    <g
       style="fill:#ffffff;fill-opacity:1;stroke:#ffffff;stroke-width:1;stroke-linecap:round;stroke-linejoin:round;stroke-opacity:1"
       id="g350">
      <circle
         cx="10210000"
         cy="20370000"
         r="500000"
         id="circle348" />
    </g>
    <g
       style="fill:#ffffff;fill-opacity:1;stroke:#ffffff;stroke-width:21200;stroke-linecap:round;stroke-linejoin:round;stroke-opacity:1"
       id="g352" />
    <g
       style="fill:#000000;fill-opacity:1;stroke:#000000;stroke-width:21200;stroke-linecap:round;stroke-linejoin:round;stroke-opacity:1"
       id="g354" />
  </g>
  <metadata
     id="metadata757">
    <rdf:RDF>
      <cc:Work
         rdf:about="">
        <dc:title>SVG Picture created as breakout-brd.svg date 2022/05/26 14:17:30 </dc:title>
      </cc:Work>
    </rdf:RDF>
  </metadata>
  <rect
     style="fill:#ffffff;fill-rule:evenodd;stroke-width:109352;fill-opacity:1"
     id="rect7351"
     width="456918.09"
     height="3060476.2"
     x="11415694"
     y="12427368" />
  <rect
     style="fill:#ffffff;fill-opacity:1;fill-rule:evenodd;stroke-width:324436"
     id="rect7405"
     width="202578.98"
     height="4820435.5"
     x="-2691244.2"
     y="18981344"
     transform="matrix(0.64977075,-0.76013023,0.71024819,0.70395135,0,0)" />
</svg>
